{"glyphs":{"0":{"ha":619,"x_min":21,"x_max":610,"o":"m 610 694 q 590 641 610 665 q 544 614 569 617 l 544 75 q 552 62 549 68 q 558 51 556 56 l 560 47 q 561 39 560 43 q 563 29 563 35 q 565 17 563 24 l 565 0 q 450 21 492 21 q 215 -60 306 21 q 136 -3 164 -15 l 83 8 l 75 8 q 43 3 71 8 q 38 2 40 3 q 35 1 36 1 q 26 -1 32 1 l 21 4 l 21 8 q 43 61 21 32 q 92 106 65 90 l 92 638 q 74 683 74 656 l 74 689 l 75 692 l 75 710 q 164 690 100 690 q 431 790 332 690 q 553 700 510 700 q 610 715 571 700 l 610 694 m 392 67 l 394 67 l 394 604 q 297 660 350 606 q 238 650 282 650 l 238 119 l 239 118 l 243 118 l 244 117 q 300 93 257 114 q 331 74 318 82 q 354 60 343 67 l 360 60 q 389 65 379 60 l 392 67 z "},"1":{"ha":435,"x_min":15,"x_max":432,"o":"m 275 -65 q 118 4 217 4 q 54 -11 65 4 l 15 10 q 37 37 25 22 q 56 58 49 51 l 60 63 q 153 125 99 108 l 153 594 q 136 635 153 614 q 99 664 119 657 q 78 668 92 665 q 49 674 64 671 l 49 715 q 53 715 50 715 q 58 714 57 714 q 68 713 63 713 q 88 717 76 713 q 235 796 185 743 q 300 619 300 756 l 300 132 q 308 129 304 131 q 322 124 311 128 l 321 124 q 342 113 331 121 q 368 93 353 104 l 397 125 l 432 88 l 275 -65 z "},"2":{"ha":571,"x_min":21,"x_max":565,"o":"m 431 -67 q 238 7 340 7 q 26 -64 117 7 q 34 32 32 -15 q 38 132 36 79 l 39 221 q 65 306 42 278 q 140 353 89 331 q 156 359 146 356 q 183 369 167 363 l 199 375 l 197 375 l 200 376 l 204 376 q 254 393 213 376 q 340 463 340 426 l 340 661 l 329 664 q 199 593 276 593 q 86 624 133 593 q 21 742 21 664 q 94 721 51 721 q 231 800 168 721 q 343 721 263 749 q 476 699 408 699 l 479 699 l 482 700 l 503 700 l 504 701 l 522 701 q 492 644 492 671 l 492 450 q 513 400 492 442 q 304 351 426 392 q 132 263 165 303 q 117 229 119 247 l 118 229 l 118 118 q 117 111 118 115 q 117 100 117 107 q 116 90 117 96 q 115 78 115 85 q 114 63 114 69 l 114 53 q 318 153 206 153 q 501 86 411 153 l 526 114 l 565 79 l 431 -67 z "},"3":{"ha":578,"x_min":17,"x_max":568,"o":"m 561 8 q 476 21 524 21 q 451 19 464 21 q 424 14 439 17 q 371 1 392 7 q 336 -11 350 -6 l 338 -11 q 265 -69 294 -32 q 136 -1 204 -1 q 17 -49 83 -1 q 169 107 43 65 q 256 119 204 119 l 263 119 q 267 119 265 119 q 271 118 268 118 q 287 116 278 117 q 308 113 296 115 q 356 92 333 103 q 396 69 378 82 l 396 300 q 385 308 392 301 l 383 310 l 385 310 q 374 315 379 313 q 363 321 369 318 l 364 321 q 282 340 314 340 l 278 340 q 204 308 268 340 l 204 435 q 271 404 235 404 q 389 449 324 404 l 389 653 l 379 654 q 278 608 339 608 q 263 607 275 607 q 119 656 174 607 q 83 728 83 689 l 83 733 l 85 735 l 85 754 q 125 725 107 725 q 127 724 126 725 q 129 724 128 724 q 139 722 133 722 q 256 796 194 722 q 463 697 353 697 q 565 728 506 697 q 540 650 540 679 l 540 474 q 565 417 540 442 l 457 399 q 378 375 394 386 q 486 357 403 357 q 538 356 488 356 l 539 357 l 565 357 q 547 304 547 322 l 547 86 q 568 17 547 58 l 561 8 z "},"4":{"ha":636,"x_min":17,"x_max":629,"o":"m 494 -60 q 338 6 425 6 q 256 -7 303 6 q 331 86 272 46 q 369 110 358 106 l 372 111 l 375 111 l 376 113 l 376 182 l 29 183 l 31 186 q 35 194 33 192 q 40 208 36 197 l 40 211 l 42 213 l 42 219 l 44 222 l 44 317 l 43 319 l 43 322 q 17 369 36 343 q 124 464 71 415 q 229 565 178 513 q 349 689 265 597 l 424 782 l 424 797 q 507 704 485 711 q 542 700 525 700 q 558 701 549 700 q 579 707 567 703 l 579 692 q 578 686 578 690 q 557 649 567 663 q 521 618 546 635 l 522 618 l 521 617 l 521 254 l 561 254 q 626 297 578 254 l 626 132 q 590 158 607 147 q 558 178 574 168 l 560 176 q 540 180 550 179 q 521 182 531 181 l 521 115 q 540 103 529 110 q 563 86 550 97 l 592 119 l 629 83 l 494 -60 m 185 254 l 376 254 l 376 625 l 185 438 l 185 254 z "},"5":{"ha":593,"x_min":18,"x_max":583,"o":"m 583 460 q 517 371 578 408 l 517 111 q 544 26 517 65 l 531 26 q 508 31 521 26 q 488 32 490 31 l 489 32 q 482 33 486 33 q 477 34 479 33 q 472 35 475 35 q 450 36 454 35 l 449 36 q 244 -61 331 36 q 106 11 168 11 q 18 -18 60 11 q 210 122 43 122 l 219 122 l 222 121 l 225 121 q 351 79 285 121 l 372 88 l 372 357 l 371 358 l 360 363 q 338 372 349 367 l 329 376 l 331 376 q 318 388 319 386 l 318 386 l 319 383 l 322 382 q 282 414 311 383 l 168 364 l 117 303 l 58 390 l 110 411 l 110 771 l 578 771 q 558 728 575 749 q 552 717 556 722 q 544 707 549 713 q 526 680 536 694 q 507 653 515 665 q 432 621 479 621 l 167 624 l 167 433 l 392 538 q 533 456 457 456 q 576 465 542 456 l 583 460 z "},"6":{"ha":601,"x_min":21,"x_max":592,"o":"m 592 415 l 592 442 q 554 424 557 424 l 551 424 q 443 506 492 424 q 429 492 433 496 q 424 488 425 489 l 424 489 q 417 482 419 486 l 418 483 q 405 473 411 476 q 393 467 399 469 q 351 449 372 453 l 233 390 l 233 644 l 263 651 q 389 590 311 590 q 492 615 447 590 q 551 713 550 649 q 511 694 519 694 l 510 693 l 490 693 l 489 694 q 399 771 424 711 l 390 769 l 390 768 q 103 679 213 679 l 94 679 l 90 681 q 56 685 64 681 l 49 678 l 53 674 l 54 672 l 60 667 l 60 668 q 75 643 68 657 q 89 614 82 629 l 89 617 l 90 97 q 21 -8 21 54 q 86 8 47 8 q 244 -57 150 8 q 482 18 344 18 l 485 18 l 489 17 q 495 16 492 17 q 503 15 499 15 q 510 15 506 15 q 519 14 514 14 q 528 13 525 14 q 535 13 532 13 q 545 12 539 13 q 554 11 551 11 q 549 32 550 31 l 546 33 q 544 42 544 40 q 543 49 544 44 l 542 49 q 535 82 535 63 l 535 347 q 569 374 551 354 q 589 407 588 393 l 590 408 l 590 414 l 592 415 m 235 117 l 235 336 l 328 378 l 329 378 q 390 331 361 336 l 390 64 l 351 53 q 235 117 294 90 z "},"7":{"ha":603,"x_min":18,"x_max":594,"o":"m 594 763 q 319 64 319 371 q 322 3 319 36 q 331 -68 325 -31 q 199 -8 250 -8 q 78 -69 139 -8 q 363 531 131 174 q 402 590 383 563 q 440 638 421 617 q 431 633 436 635 q 422 629 426 632 q 411 624 418 626 q 389 614 404 621 l 390 614 q 383 611 386 611 q 376 608 381 611 q 219 581 289 581 q 79 622 119 581 l 54 597 l 18 633 q 45 661 25 638 q 103 728 65 685 l 103 726 q 117 749 106 733 q 149 792 128 764 l 149 807 q 375 710 267 710 q 556 790 476 710 l 593 771 l 594 763 z "},"8":{"ha":601,"x_min":19,"x_max":592,"o":"m 592 703 q 542 632 586 660 l 542 433 l 556 397 q 432 385 508 397 l 393 372 l 393 371 q 500 357 419 357 q 524 358 522 357 l 561 358 l 542 318 l 542 64 l 563 18 q 552 15 556 15 q 544 14 549 14 q 519 15 529 14 q 503 19 510 15 q 481 21 485 19 l 479 21 q 225 -58 356 21 q 156 -9 189 -26 q 90 8 124 8 l 88 8 q 76 7 85 7 q 51 2 65 6 q 19 -12 36 -1 q 89 92 21 32 l 89 310 q 79 350 86 326 q 78 359 79 351 q 78 368 78 367 l 89 358 l 99 358 l 101 357 l 108 357 q 240 371 197 357 q 176 386 217 379 q 76 399 135 393 l 89 446 l 88 629 l 88 626 l 85 635 q 82 644 82 640 l 81 646 l 81 647 q 70 669 74 660 q 64 685 67 679 q 253 710 163 686 q 425 782 363 738 l 433 774 l 435 771 q 439 765 435 769 l 440 764 q 451 752 444 760 q 464 738 457 744 q 477 724 471 731 q 486 715 483 718 l 485 715 q 546 701 506 701 q 563 706 553 704 q 585 710 572 707 l 592 703 m 389 67 l 392 67 l 392 310 q 321 340 374 314 q 299 333 304 333 q 283 326 289 326 q 273 324 279 325 q 260 319 267 322 q 251 315 254 317 q 240 311 247 314 l 240 107 q 326 65 289 92 l 326 67 l 331 64 q 342 56 332 60 q 383 65 368 65 l 386 65 l 389 67 m 349 418 q 371 426 360 421 q 392 435 382 431 l 392 603 q 364 619 372 610 q 301 665 344 621 q 292 663 297 664 q 281 660 286 663 q 260 655 269 657 q 249 651 251 653 q 242 650 244 650 l 240 650 l 240 436 l 279 417 l 283 417 l 285 415 q 288 414 286 414 q 292 413 289 414 q 302 408 296 410 q 319 400 308 406 q 344 417 329 408 l 346 418 l 347 418 q 347 417 346 417 l 349 418 z "},"9":{"ha":622,"x_min":17,"x_max":613,"o":"m 607 682 l 603 682 l 601 681 l 597 681 q 568 672 589 672 q 440 781 508 672 l 440 764 q 76 675 281 675 q 80 663 79 668 q 83 656 81 658 l 86 650 l 86 644 q 89 643 88 644 l 89 642 l 90 639 q 92 630 90 635 q 94 622 93 625 l 96 619 l 96 340 q 55 310 71 329 q 24 265 39 292 l 47 265 l 50 267 q 250 186 153 264 q 326 251 288 225 q 367 277 349 265 q 399 297 385 289 l 399 64 q 371 57 383 63 q 313 101 349 82 q 244 119 276 119 l 243 121 l 226 121 q 156 108 190 121 q 93 74 121 96 q 45 21 65 51 q 17 -46 25 -10 l 28 -40 q 75 -12 51 -21 q 122 -4 99 -4 q 274 -57 185 -4 q 483 11 367 11 q 575 -3 524 11 l 560 13 q 558 18 558 15 l 557 19 q 556 28 556 25 q 553 33 556 31 q 549 45 550 42 q 549 50 549 49 l 549 592 q 613 676 613 632 l 607 682 m 379 350 l 379 351 q 361 342 371 347 q 344 332 351 336 q 331 324 336 326 q 322 318 325 321 q 283 344 293 338 q 271 351 272 350 q 246 360 254 351 l 246 635 q 256 637 244 635 q 274 640 267 639 q 283 642 278 642 l 285 643 q 293 644 290 643 l 290 644 q 292 645 292 644 q 294 646 293 646 q 319 653 307 647 q 397 596 349 604 l 397 360 q 388 355 392 357 q 379 350 383 353 z "},"\r":{"ha":344,"x_min":19,"x_max":338,"o":"m 218 -57 q 132 -24 171 -54 q 90 53 90 10 l 90 401 q 58 426 69 403 l 39 415 l 19 442 l 24 450 l 25 449 l 28 451 l 31 453 l 29 451 q 60 480 43 464 q 106 519 78 496 q 122 531 113 524 q 143 551 131 539 l 149 556 q 157 564 153 560 l 157 581 q 257 500 213 500 q 301 518 265 500 l 301 503 q 299 483 299 494 q 269 431 288 451 q 232 403 251 411 l 232 108 q 239 86 232 100 q 296 60 251 60 q 332 68 311 60 l 338 58 l 218 -57 z "},"\u001d":{"ha":333,"x_min":-4,"x_max":326,"o":"m 83 353 l 83 664 l 75 707 q 74 709 75 708 q 74 711 74 710 l 74 710 q 72 719 72 713 l 69 724 l 68 725 q 67 732 68 729 l 65 735 l 65 753 q 78 748 74 749 q 86 747 82 747 q 239 831 135 747 l 246 825 q 236 799 240 814 q 226 764 232 783 q 218 704 218 722 l 218 411 l 288 444 l 313 389 l 218 346 l 218 111 q 237 99 225 107 q 263 82 249 92 l 261 83 l 263 83 l 265 82 q 269 77 267 79 q 272 72 271 75 l 276 68 l 299 88 l 326 51 l 188 -58 q 17 28 118 3 q 83 97 47 76 l 83 283 l 21 257 l -4 313 l 83 353 z "}," ":{"ha":363,"x_min":0,"x_max":0,"o":""},"!":{"ha":318,"x_min":10,"x_max":311,"o":"m 311 735 q 286 669 311 704 q 272 651 282 663 q 242 621 261 640 l 201 186 l 161 186 l 101 625 q 83 637 94 631 q 56 651 72 643 l 50 654 l 36 668 q 25 681 33 672 q 10 697 17 690 q 164 803 68 697 l 164 817 q 264 732 228 732 q 304 740 268 732 l 311 735 m 181 -60 l 72 47 l 181 160 l 288 47 l 181 -60 z "},"\"":{"ha":564,"x_min":64,"x_max":522,"o":"m 522 744 q 358 581 522 643 l 340 600 q 388 668 388 635 q 310 746 388 713 q 378 803 349 774 q 432 861 408 832 q 522 744 522 803 m 275 744 q 111 581 275 643 l 96 601 q 142 668 142 633 q 64 746 142 713 q 188 861 138 803 q 275 744 275 803 z "},"#":{"ha":654,"x_min":54,"x_max":617,"o":"m 549 247 q 438 251 513 251 q 403 100 418 164 q 382 -3 389 36 q 358 -1 371 -1 q 329 0 346 0 q 306 -1 317 0 q 282 -3 294 -1 l 269 -3 q 320 138 299 75 q 356 253 342 201 q 351 253 353 253 q 349 254 350 254 q 324 256 335 256 l 307 256 q 276 255 292 256 q 244 253 261 254 q 243 244 243 249 q 242 236 243 240 q 210 97 224 157 q 190 -3 197 36 q 167 -1 179 -1 q 138 0 154 0 q 115 -1 126 0 q 92 -3 103 -1 l 79 -3 q 126 131 104 68 q 163 251 147 194 q 54 247 100 251 q 81 346 78 301 q 123 340 97 342 q 185 339 149 339 l 213 447 q 158 447 185 447 q 104 443 132 446 q 118 492 113 467 q 125 542 124 517 q 238 536 153 536 q 242 558 240 547 q 246 579 243 568 q 273 704 261 650 q 292 793 285 758 q 344 788 319 788 q 372 789 357 788 q 403 793 386 790 q 353 651 375 717 q 318 533 332 586 l 325 533 q 349 532 338 532 l 396 532 q 428 533 411 532 q 461 685 447 618 q 482 793 475 751 q 512 789 499 790 q 536 788 525 788 q 563 789 549 788 q 594 793 578 790 q 546 658 567 722 q 510 536 525 594 q 569 538 542 536 q 617 542 596 539 q 593 443 596 486 q 547 447 574 446 q 488 447 521 447 l 458 339 q 517 340 489 339 q 572 346 544 342 q 556 295 561 319 q 549 247 550 271 m 343 336 q 354 335 349 335 q 376 336 364 335 l 407 449 q 400 450 404 450 l 394 450 q 372 451 383 451 l 332 451 q 306 450 321 451 q 301 449 303 450 q 296 449 299 449 l 267 336 l 343 336 z "},"$":{"ha":564,"x_min":15,"x_max":558,"o":"m 558 24 q 538 69 538 63 l 536 300 l 533 300 q 544 331 540 310 q 548 335 544 332 q 556 343 551 339 q 399 374 456 361 q 326 394 343 388 l 326 603 q 365 597 344 597 q 538 722 510 597 q 526 721 531 722 q 519 718 522 719 q 506 714 511 715 q 497 713 500 713 q 389 781 438 713 q 369 767 378 772 q 363 762 367 764 q 358 758 360 760 l 360 760 l 357 758 q 326 742 336 742 l 326 807 l 271 807 l 271 724 q 106 690 193 690 q 90 692 92 690 l 50 692 q 61 675 61 679 q 63 669 61 672 l 63 661 l 64 661 q 67 650 65 654 q 72 642 69 646 l 72 450 q 57 408 72 428 l 57 410 q 54 401 54 407 l 54 404 l 57 404 l 61 400 l 56 396 q 100 390 78 390 q 210 370 168 379 q 271 357 253 361 l 271 111 q 200 122 243 122 l 186 122 q 168 121 185 121 q 143 114 153 115 q 126 110 132 111 q 117 108 119 110 q 15 -1 38 81 q 88 19 53 19 q 211 -33 156 19 l 233 -56 l 240 -50 q 271 -26 268 -29 l 271 -83 l 326 -83 l 326 0 q 481 28 422 28 l 492 28 q 514 26 496 26 q 531 25 517 25 l 533 24 l 558 24 m 372 72 l 368 72 l 367 71 l 361 68 q 351 66 357 67 q 343 64 346 65 l 326 83 l 326 343 l 385 328 l 385 75 l 383 74 l 375 74 l 372 72 m 229 644 l 232 646 l 233 646 q 243 649 238 646 q 246 650 244 649 l 247 650 q 253 653 250 651 l 256 654 l 258 654 l 260 656 l 271 644 l 271 410 l 222 422 l 222 644 l 229 644 z "},"%":{"ha":844,"x_min":21,"x_max":846,"o":"m 358 735 q 347 706 358 719 q 322 689 336 692 l 322 386 l 325 383 q 332 365 329 371 l 333 364 l 333 357 l 335 354 l 335 339 q 263 351 311 351 l 253 351 l 214 346 q 132 306 172 339 q 88 336 115 322 q 75 340 83 338 q 61 344 67 343 l 57 344 l 54 346 l 51 346 l 51 344 l 40 344 l 38 343 q 32 342 36 342 l 31 340 l 21 340 l 21 351 q 35 380 21 363 q 61 404 49 397 l 61 703 q 50 732 50 710 l 50 736 l 51 738 l 51 754 l 63 742 l 65 742 l 67 740 q 88 738 78 738 l 92 736 l 97 736 q 254 793 197 736 q 324 743 297 743 l 325 743 l 328 744 q 333 746 331 744 q 337 747 335 746 q 342 747 339 747 l 344 747 l 346 749 l 349 749 l 350 750 l 358 750 l 358 735 m 833 381 q 822 353 833 367 q 796 336 810 339 l 796 36 l 801 24 l 804 21 q 806 13 806 18 l 807 10 l 807 7 l 808 6 l 808 -10 q 783 -3 794 -6 q 760 0 771 0 l 700 0 q 679 -4 692 0 q 653 -15 667 -8 q 627 -28 639 -21 q 608 -43 615 -36 l 606 -42 l 607 -40 l 604 -39 q 585 -26 597 -33 q 561 -10 572 -18 q 526 -1 538 -1 l 521 -1 l 521 -3 q 514 -4 517 -4 q 504 -7 511 -4 l 506 -7 l 499 -10 q 493 6 493 -4 q 499 15 494 8 q 508 32 503 22 l 515 36 q 533 50 522 40 l 532 50 l 533 51 l 535 51 l 535 353 q 524 378 524 361 l 524 382 l 525 383 l 525 400 l 538 388 l 540 388 l 542 386 l 549 386 l 551 385 l 554 385 q 567 383 556 383 l 569 382 l 574 382 q 729 442 669 382 q 741 429 736 435 q 753 415 746 424 l 753 417 q 757 412 756 414 q 760 408 758 410 q 790 390 774 393 l 792 389 l 796 389 q 813 392 801 389 l 814 392 l 817 394 l 821 394 l 824 397 l 833 397 l 833 381 m 835 781 q 827 775 832 778 q 814 764 822 772 l 811 763 l 811 764 q 747 709 775 736 q 694 654 718 682 l 233 81 l 233 82 q 190 11 193 33 q 204 0 192 10 l 39 -28 q 116 41 83 10 q 167 96 149 72 l 664 722 q 688 751 686 744 l 686 753 l 685 753 l 685 757 l 683 758 l 683 771 l 846 790 l 835 781 m 232 383 l 232 683 q 201 697 221 683 q 181 713 186 707 l 172 713 l 169 711 q 163 710 167 711 q 156 710 160 710 q 149 708 153 708 l 149 415 q 174 401 160 410 q 210 379 189 392 l 211 381 l 217 381 l 219 382 l 231 382 l 232 383 m 706 32 l 706 332 q 654 361 681 332 l 651 361 l 650 360 l 647 360 l 646 358 l 638 358 q 629 357 633 358 q 625 356 626 357 q 622 356 624 356 l 622 63 q 642 51 629 58 q 672 33 654 44 l 671 35 q 674 33 672 35 q 685 28 678 31 l 689 28 l 690 29 l 696 29 l 697 31 l 704 31 l 706 32 z "},"&":{"ha":828,"x_min":17,"x_max":819,"o":"m 811 415 q 760 403 778 403 q 686 490 699 403 q 672 467 679 479 q 654 443 664 454 q 631 421 635 421 l 521 304 l 488 372 q 461 419 474 397 q 435 465 449 442 l 621 646 q 557 713 583 685 q 518 757 531 742 q 465 822 488 793 q 432 865 443 850 q 412 848 422 857 q 394 832 401 839 q 363 804 372 813 q 281 735 321 768 q 203 672 240 701 q 158 642 179 654 q 117 618 138 629 l 117 608 q 235 483 183 554 l 250 458 q 269 428 258 444 q 286 404 281 411 l 17 138 q 85 72 54 101 q 135 22 115 42 l 178 -21 q 198 -41 190 -33 q 210 -56 206 -49 l 208 -56 q 211 -58 210 -58 q 214 -61 213 -58 q 217 -67 215 -64 q 226 -72 219 -69 l 429 129 q 503 8 465 54 q 579 -58 542 -39 q 654 -74 613 -74 l 663 -74 l 665 -72 l 675 -72 l 678 -71 q 698 -66 686 -71 q 726 -54 710 -61 q 815 69 815 -3 l 815 83 l 814 86 l 814 90 l 813 93 l 813 99 l 811 100 l 811 113 q 725 57 756 57 q 549 254 632 57 l 585 292 q 622 274 600 279 q 669 268 644 268 q 726 279 699 268 q 773 309 753 290 q 806 354 793 328 q 819 410 818 381 l 811 415 m 221 176 q 199 192 207 183 q 185 207 190 200 q 180 211 182 210 q 176 214 178 213 l 317 351 q 346 301 335 322 q 368 256 357 279 q 369 251 368 253 l 375 240 l 375 243 q 376 241 375 242 q 376 239 376 240 q 385 219 381 228 q 393 204 390 211 q 401 183 397 192 l 307 79 q 261 133 282 110 q 221 176 240 157 m 397 517 l 381 542 q 332 611 360 578 l 278 667 l 349 726 q 356 715 351 721 q 367 700 361 708 q 392 668 382 675 q 432 618 414 639 q 468 583 450 597 l 399 513 q 397 517 399 514 m 188 206 q 185 207 186 206 l 185 208 l 188 206 z "},"'":{"ha":228,"x_min":18,"x_max":218,"o":"m 217 710 l 217 699 q 215 694 215 697 q 197 647 213 675 q 53 568 149 568 l 44 568 l 44 569 l 32 569 q 85 642 85 611 q 58 690 85 664 l 57 690 l 50 697 l 51 697 q 35 708 44 703 q 18 718 26 713 l 18 726 l 119 832 q 218 718 218 814 l 218 714 l 217 710 z "},"(":{"ha":297,"x_min":17,"x_max":290,"o":"m 225 -103 q 221 -59 225 -79 q 210 -18 217 -39 q 196 7 204 -6 q 176 35 188 19 q 149 70 158 57 q 136 88 139 83 q 49 254 71 188 q 17 439 17 339 q 39 578 17 500 q 104 757 61 657 l 104 756 q 113 776 110 768 q 118 790 115 783 q 126 806 122 799 q 133 822 129 814 l 133 821 q 144 907 144 854 l 282 776 q 274 758 279 767 q 261 742 269 750 l 261 743 q 226 686 251 726 q 219 672 221 678 q 138 425 138 525 l 139 424 l 139 404 l 138 401 q 147 302 138 353 q 176 199 157 251 q 276 19 215 93 l 283 13 l 290 8 l 225 -103 z "},")":{"ha":296,"x_min":17,"x_max":289,"o":"m 24 33 q 46 61 33 43 q 76 110 58 79 q 140 240 117 181 q 168 349 163 299 q 169 368 169 356 l 169 404 q 100 668 169 531 q 24 792 53 763 l 17 799 l 74 900 l 82 897 q 81 888 82 890 q 89 838 81 864 q 117 788 97 811 q 138 758 125 775 q 168 717 151 740 q 176 706 172 711 q 185 694 181 700 q 289 363 289 538 q 211 61 289 246 q 202 41 208 54 q 186 8 196 28 q 163 -96 163 -42 l 24 33 z "},"*":{"ha":469,"x_min":14,"x_max":471,"o":"m 471 647 q 425 718 435 689 l 425 719 l 424 721 l 422 725 l 422 726 q 417 771 417 736 l 418 772 l 418 788 l 410 788 l 406 783 l 407 783 q 376 767 378 767 l 372 767 q 365 764 368 765 q 358 763 361 763 q 313 746 322 750 l 311 746 q 303 754 303 749 l 303 821 q 310 853 303 840 l 311 854 q 313 863 311 856 l 313 868 q 276 856 293 861 q 249 851 260 851 l 249 853 l 235 853 l 233 851 q 165 869 210 851 q 166 858 165 865 q 169 846 167 851 q 174 833 172 839 q 175 824 175 826 l 176 819 l 176 753 q 169 746 176 749 l 169 747 l 106 764 q 83 778 96 765 l 82 778 l 79 781 l 76 782 q 69 790 71 788 q 61 800 68 792 l 61 757 q 58 747 60 753 q 57 739 57 742 q 56 732 56 736 l 56 725 l 54 724 l 54 719 l 53 718 l 53 715 q 47 706 47 710 q 31 677 39 690 q 14 656 24 664 q 39 651 26 651 l 42 650 l 57 650 l 58 649 l 71 649 l 72 650 l 128 628 l 126 629 l 129 626 l 129 614 q 103 581 113 593 q 86 563 93 569 l 89 564 q 64 548 78 556 q 39 535 50 540 q 111 494 79 519 q 167 433 143 469 l 167 450 l 168 451 q 176 472 174 465 l 178 478 q 200 507 189 493 q 219 532 211 521 l 219 531 l 221 532 q 222 535 221 533 l 224 535 q 228 538 225 536 l 229 538 l 231 539 q 238 542 235 539 l 240 540 l 243 540 q 250 538 244 538 l 253 536 l 254 535 l 260 535 q 297 481 289 494 q 306 463 304 467 q 308 460 307 461 l 308 453 l 310 450 l 315 439 q 435 532 360 506 l 425 542 l 421 542 l 418 544 l 415 546 l 414 547 l 410 550 q 403 556 407 553 l 399 557 l 397 558 q 392 567 392 564 l 351 614 l 351 617 l 349 619 l 349 621 l 353 629 l 354 631 q 419 649 407 649 l 421 650 l 435 650 l 436 651 l 449 651 l 449 653 l 471 647 m 313 657 q 292 603 313 625 q 240 582 271 582 q 187 603 208 582 q 165 657 165 625 q 235 732 165 719 l 235 731 q 313 657 313 725 m 285 657 q 235 707 285 692 l 235 701 q 194 657 194 694 q 240 611 194 611 q 271 626 257 611 q 285 657 285 640 z "},"+":{"ha":811,"x_min":58,"x_max":763,"o":"m 450 297 l 450 -12 l 371 -12 l 371 297 l 58 297 l 58 374 l 371 374 l 371 683 l 450 683 l 450 374 l 763 374 l 763 297 l 450 297 z "},",":{"ha":231,"x_min":18,"x_max":218,"o":"m 218 50 q 200 -4 218 24 q 54 -86 147 -86 l 32 -86 q 85 -12 85 -44 q 18 58 85 17 l 18 67 l 119 171 q 218 58 218 161 l 218 50 z "},"-":{"ha":313,"x_min":17,"x_max":301,"o":"m 301 318 q 264 215 264 264 l 264 206 q 265 197 265 203 l 267 197 l 267 193 l 264 197 l 264 188 q 251 189 256 189 q 232 192 247 189 l 233 192 q 157 196 200 196 l 57 196 q 40 194 47 194 l 17 194 q 54 307 54 269 q 56 317 56 315 q 57 321 56 318 l 68 319 l 65 321 q 110 318 79 318 l 201 318 q 236 321 213 319 q 299 325 260 322 l 301 318 z "},".":{"ha":232,"x_min":15,"x_max":226,"o":"m 122 -58 l 15 44 l 122 153 l 226 44 l 122 -58 z "},"/":{"ha":411,"x_min":14,"x_max":404,"o":"m 404 796 q 400 788 403 794 l 396 783 l 393 778 l 393 776 l 392 775 l 392 774 q 379 750 386 769 l 126 -31 l 128 -32 q 129 -44 128 -43 l 135 -54 l 108 -54 q 60 -59 83 -54 q 14 -76 38 -64 q 20 -53 17 -61 q 26 -36 24 -44 l 31 -28 l 31 -25 l 32 -22 q 33 -15 32 -18 l 33 -17 q 34 -14 33 -15 q 35 -11 35 -12 l 285 751 l 285 750 q 285 755 285 753 q 286 760 286 757 q 288 774 288 767 q 292 792 289 781 l 292 800 l 303 800 q 307 801 303 801 l 310 800 l 311 800 q 342 797 319 797 q 399 806 349 797 l 404 796 z "},":":{"ha":232,"x_min":15,"x_max":226,"o":"m 122 243 l 15 354 l 122 465 l 226 354 l 122 243 m 122 -60 l 15 46 l 122 158 l 226 46 l 122 -60 z "},";":{"ha":232,"x_min":15,"x_max":226,"o":"m 218 25 q 215 4 218 17 q 204 -28 213 -8 q 54 -118 147 -118 l 33 -118 l 51 -100 q 61 -87 56 -93 q 72 -76 67 -82 l 83 -51 l 83 -49 l 85 -46 q 18 31 85 -10 l 18 38 l 119 144 q 218 31 218 126 l 218 25 m 122 271 l 15 381 l 122 494 l 226 381 l 122 271 z "},"<":{"ha":1011,"x_min":31,"x_max":1000,"o":"m 342 115 q 302 24 342 61 q 203 -12 263 -12 q 79 46 131 -12 q 31 194 31 110 q 114 400 31 317 q 324 482 197 482 q 542 382 440 482 l 579 336 q 692 194 615 289 q 833 97 771 97 q 906 131 878 97 q 935 214 935 165 q 892 282 935 282 q 853 226 858 282 q 829 285 829 260 q 849 332 829 313 q 899 351 868 351 q 937 341 918 351 q 969 313 956 331 q 992 270 983 294 q 1000 219 1000 246 q 943 79 1000 135 q 803 22 888 22 q 586 121 683 22 l 438 300 q 268 396 354 396 q 144 340 200 396 q 93 210 93 286 q 133 93 93 144 q 228 43 176 43 q 288 99 281 43 q 267 96 274 96 q 213 149 213 96 q 264 201 213 201 q 320 176 299 201 q 342 115 342 150 z "},"=":{"ha":829,"x_min":67,"x_max":771,"o":"m 67 469 l 771 469 l 771 394 l 67 394 l 67 469 m 67 222 l 771 222 l 771 147 l 67 147 l 67 222 z "},">":{"ha":1011,"x_min":22,"x_max":993,"o":"m 993 194 q 942 46 993 110 q 818 -12 892 -12 q 719 24 760 -12 q 679 115 679 61 q 701 176 679 150 q 758 201 722 201 q 808 149 808 201 q 756 96 808 96 q 744 97 749 96 q 733 99 739 97 q 793 43 740 43 q 888 93 847 43 q 928 210 928 144 q 876 340 928 286 q 754 396 825 396 q 583 300 668 396 l 435 121 q 218 22 340 22 q 78 79 135 22 q 22 219 22 135 q 31 270 22 246 q 53 313 39 294 q 85 341 67 331 q 124 351 103 351 q 173 332 154 351 q 192 285 192 313 q 169 226 192 261 q 131 282 164 282 q 86 214 86 282 q 115 131 86 165 q 188 97 144 97 q 329 194 253 97 q 443 336 406 289 l 481 382 q 699 482 581 482 q 908 400 825 482 q 993 194 993 317 z "},"?":{"ha":508,"x_min":18,"x_max":501,"o":"m 501 578 q 454 457 501 510 q 351 378 415 407 q 263 354 297 354 q 235 285 247 343 q 222 196 222 235 l 179 199 q 174 220 176 207 q 168 240 171 233 l 168 242 q 167 244 167 243 l 150 294 q 106 388 132 364 l 104 392 l 103 394 l 103 406 q 185 396 140 396 q 344 521 315 396 q 353 590 353 556 q 338 672 353 631 q 289 721 322 721 q 207 672 243 721 q 168 565 168 621 l 18 638 q 89 753 32 710 q 221 797 146 797 q 403 738 318 797 q 501 578 501 671 m 200 -60 l 90 47 l 200 160 l 308 47 l 200 -60 z "},"@":{"ha":1754,"x_min":24,"x_max":1721,"o":"m 219 25 l 1521 25 l 1521 133 l 219 133 l 219 25 m 279 75 q 315 111 279 111 q 351 75 351 111 q 315 39 351 39 q 279 75 279 39 m 554 75 q 590 111 554 111 q 626 75 626 111 q 590 39 626 39 q 554 75 554 39 m 833 75 q 869 111 833 111 q 906 75 906 111 q 869 39 906 39 q 833 75 833 39 m 1110 75 q 1144 111 1110 111 q 1181 75 1181 111 q 1144 39 1181 39 q 1110 75 1110 39 m 1390 75 q 1425 111 1390 111 q 1461 75 1461 111 q 1425 39 1461 39 q 1390 75 1390 39 m 219 146 l 1524 146 q 1525 219 1525 182 l 219 219 l 219 146 m 219 232 l 1524 232 l 1524 256 q 1544 310 1524 286 q 1582 335 1561 328 q 1646 374 1604 343 q 1703 436 1685 404 q 1721 489 1718 463 l 1721 496 q 1711 538 1721 521 q 1581 465 1679 465 q 1546 467 1564 465 q 1476 401 1538 414 q 1501 347 1501 376 q 1499 331 1501 339 q 1463 301 1497 301 q 1447 303 1456 301 q 1438 322 1438 311 q 1458 361 1438 339 l 1408 400 l 1361 364 q 1382 331 1382 353 q 1376 304 1382 319 q 1353 288 1360 289 q 1349 289 1351 288 l 1340 293 q 1324 310 1329 300 q 1319 328 1319 318 q 1350 383 1319 351 l 1276 446 l 1200 383 q 1232 326 1232 351 q 1210 292 1232 306 q 1178 279 1190 279 q 1151 319 1156 279 q 1150 328 1150 324 q 1171 350 1150 342 l 1097 399 l 1026 349 q 1047 322 1047 335 l 1047 310 q 1043 297 1047 301 q 1006 279 1036 283 q 968 314 968 282 q 971 335 968 324 q 1011 385 979 368 q 1035 393 1021 390 l 1046 396 l 1054 399 q 872 503 1006 479 l 871 503 q 690 399 738 479 l 697 396 l 708 393 q 733 385 722 390 q 774 335 764 368 q 776 314 776 324 q 738 279 776 282 q 700 297 708 283 q 697 310 697 301 l 696 321 q 717 349 696 333 l 647 399 l 572 350 q 594 326 594 342 q 593 319 594 324 q 567 279 589 279 q 533 292 553 279 q 511 326 511 306 q 544 383 511 350 l 468 446 l 394 383 q 424 328 424 353 q 419 310 424 318 q 404 293 414 300 l 396 289 q 392 288 393 288 q 367 304 385 289 q 361 329 361 318 q 383 364 361 353 l 335 400 l 286 361 q 307 322 307 339 q 297 303 307 311 q 282 301 289 301 q 246 331 247 301 q 243 350 243 340 q 267 401 243 376 q 197 467 207 414 q 163 465 179 465 q 33 538 64 465 q 24 500 24 522 l 24 489 q 97 374 28 429 q 163 335 140 343 q 200 310 183 328 q 219 260 219 288 l 219 232 m 1526 219 l 1526 232 l 1524 232 l 1525 219 l 1526 219 m 872 529 q 993 489 946 529 l 994 488 q 1042 471 1011 471 q 1085 515 1085 471 q 1050 589 1085 558 l 1032 607 l 1061 632 q 1213 485 1196 574 l 1301 485 q 1257 596 1301 514 q 1486 444 1429 553 q 1604 525 1531 525 q 1632 522 1617 525 l 1647 568 l 1625 568 q 1547 560 1582 568 q 1554 575 1554 568 q 1510 597 1554 592 l 1510 603 q 1435 640 1510 640 l 1435 644 q 1388 688 1435 671 q 1346 697 1363 697 q 1321 688 1329 697 q 1264 726 1310 717 q 1238 729 1249 729 q 1204 717 1214 729 q 1129 756 1196 747 q 1100 757 1113 757 q 1053 742 1061 757 q 1013 767 1042 764 l 1008 767 q 968 751 981 767 q 946 767 958 767 q 926 757 936 767 l 918 757 q 892 774 900 757 q 913 799 896 794 q 943 801 929 801 q 894 844 940 833 q 900 863 900 853 q 872 903 900 882 l 868 903 q 842 863 842 883 q 847 844 842 854 q 799 801 800 833 q 828 799 811 801 q 849 774 846 794 q 822 757 840 757 l 815 757 q 794 767 804 767 q 772 751 782 767 q 733 767 760 767 l 729 767 q 688 742 699 764 q 640 757 679 757 q 611 756 628 757 q 536 717 546 747 q 503 729 526 729 q 476 726 492 729 q 421 688 432 717 q 394 697 413 697 q 353 688 378 697 q 306 643 306 671 l 306 640 q 231 603 231 640 l 231 597 q 186 575 186 592 q 193 560 186 568 q 115 568 158 568 l 93 568 l 108 522 q 136 525 124 525 q 256 444 210 525 q 483 596 311 553 q 439 485 439 514 l 529 485 q 681 632 546 574 l 708 607 l 690 589 q 657 515 657 558 q 700 471 657 471 q 746 488 731 471 l 749 489 q 868 529 794 529 l 872 529 z "},"A":{"ha":953,"x_min":19,"x_max":950,"o":"m 950 139 q 872 119 879 119 q 817 151 839 119 q 797 197 813 156 l 569 801 q 506 863 553 842 l 507 863 q 491 869 497 867 q 482 872 485 871 q 463 874 472 874 q 447 876 454 875 l 440 876 q 251 776 311 876 q 224 707 224 736 l 224 689 q 306 732 279 732 q 349 738 315 738 l 350 738 q 357 736 354 736 q 364 735 361 736 q 372 733 369 733 l 375 733 q 439 675 439 714 l 438 672 l 438 669 q 436 665 436 667 l 435 663 l 432 657 l 432 656 l 431 654 l 425 657 l 426 656 l 417 661 q 357 678 400 678 q 207 575 258 678 l 208 575 q 197 540 197 557 q 221 482 197 506 q 299 538 250 538 q 365 499 331 538 l 217 143 q 184 132 197 136 q 167 126 171 128 q 19 -26 19 61 l 19 -31 l 21 -32 l 21 -43 q 39 -29 38 -36 q 53 -22 47 -24 q 172 6 104 6 q 207 1 178 6 q 333 -58 282 -10 l 479 104 l 444 133 l 422 106 q 386 126 404 118 q 350 139 368 133 q 313 144 331 142 q 276 150 294 147 l 322 263 l 604 263 q 643 147 628 192 q 664 88 658 103 l 665 86 q 692 32 665 74 q 821 -64 733 -40 l 950 139 m 471 624 l 549 408 l 382 408 l 471 624 m 417 661 q 415 663 417 663 l 417 661 z "},"B":{"ha":826,"x_min":21,"x_max":817,"o":"m 817 43 l 803 67 q 799 92 799 75 l 799 400 q 733 475 799 446 q 715 480 726 478 q 694 483 703 482 q 692 484 693 483 q 689 485 690 485 l 685 485 q 705 504 694 492 q 729 533 715 517 q 793 676 783 613 q 794 697 794 682 l 794 703 q 668 886 794 839 l 381 689 l 381 688 q 358 661 367 678 l 360 665 q 357 658 360 667 q 349 638 351 646 l 349 214 l 347 211 l 346 206 q 343 193 344 199 q 340 178 340 182 q 329 165 332 168 l 326 161 l 331 150 q 442 196 381 150 q 499 293 499 246 l 499 707 l 578 761 q 663 608 663 719 l 663 604 q 661 592 661 597 q 660 583 661 588 q 658 576 658 579 q 657 571 657 574 q 588 476 636 492 l 588 515 l 536 515 l 536 131 q 435 149 496 149 q 247 93 338 149 q 113 -61 156 40 q 326 3 211 3 l 344 3 q 357 1 350 3 q 370 1 364 1 q 379 0 376 0 q 522 -60 424 0 q 669 25 585 -3 q 701 31 688 28 q 722 36 714 33 q 729 39 726 38 l 732 39 q 750 40 747 39 l 771 40 q 781 38 775 39 q 799 38 788 38 q 801 37 800 38 q 803 36 801 36 l 801 36 q 811 35 806 35 l 817 43 m 342 701 q 270 678 301 694 q 214 639 239 663 q 157 510 157 586 l 157 503 l 158 501 l 158 493 q 63 389 63 481 q 88 311 63 332 l 88 313 q 102 300 93 308 q 119 283 111 292 q 153 329 119 329 l 156 331 l 160 331 l 160 100 q 154 74 154 85 l 154 75 l 153 72 l 154 74 q 151 68 151 71 l 143 58 l 161 58 l 164 60 l 167 60 l 168 61 q 221 85 188 61 q 318 233 318 150 l 318 636 q 346 692 318 674 l 342 701 q 353 704 344 701 q 404 722 379 711 q 451 751 429 733 q 510 842 507 790 l 501 846 q 431 821 468 821 q 361 838 411 821 q 199 871 263 871 q 104 846 151 871 q 39 785 57 819 q 21 728 21 750 l 21 711 q 89 746 56 746 q 146 735 108 746 q 306 701 243 701 l 307 700 l 326 700 q 342 701 335 700 m 593 103 q 588 107 590 104 l 588 188 l 590 189 l 593 189 l 596 192 l 600 192 l 603 193 l 610 193 l 611 194 l 617 194 l 619 193 l 622 193 q 636 192 625 192 l 639 192 q 642 189 640 190 l 642 71 q 610 92 622 85 q 593 103 599 99 m 636 361 l 635 360 l 633 360 q 629 358 631 358 q 624 357 625 358 l 607 357 q 592 361 597 357 l 590 361 l 589 363 q 588 361 588 363 l 588 426 l 603 426 l 604 422 q 642 399 642 422 l 642 363 q 636 361 640 361 m 626 246 q 622 247 624 246 q 619 247 621 247 l 603 247 l 600 246 l 599 246 q 588 242 593 244 l 588 310 l 592 310 q 607 306 597 306 l 629 306 l 631 307 l 638 307 l 640 310 l 642 310 l 642 242 q 626 246 635 243 m 89 310 l 90 310 q 89 311 89 310 l 88 311 l 89 310 z "},"C":{"ha":900,"x_min":24,"x_max":1007,"o":"m 396 885 l 397 886 l 396 885 m 1007 761 q 858 700 956 700 q 826 701 843 700 l 826 90 q 861 104 847 99 l 865 104 q 876 97 874 104 q 878 90 878 93 q 872 81 878 85 q 846 60 865 75 q 832 49 839 54 l 826 44 l 826 -103 q 763 -156 826 -156 q 697 -103 697 -156 q 763 -50 697 -50 q 772 -46 772 -50 l 772 19 q 496 -46 653 -46 l 483 -46 q 154 64 282 -46 q 24 369 24 178 q 199 713 24 561 q 561 858 367 858 l 561 842 q 436 771 483 815 q 289 583 326 675 q 265 447 265 525 q 268 392 265 421 q 358 213 276 306 q 439 138 400 167 l 478 178 l 478 656 l 464 692 q 806 896 672 746 q 928 781 842 815 q 1007 761 971 763 m 771 708 q 688 750 706 750 q 679 743 679 750 l 679 244 l 508 99 q 647 68 544 68 q 771 76 700 68 l 771 708 z "},"D":{"ha":744,"x_min":21,"x_max":732,"o":"m 732 72 l 729 75 q 721 86 721 83 l 719 700 q 706 765 719 735 q 670 817 693 794 q 617 851 647 839 q 550 863 586 863 l 149 849 l 149 846 l 138 846 l 138 844 l 136 844 q 81 848 108 844 q 25 860 53 851 l 25 853 l 24 851 l 24 842 l 22 840 l 22 833 l 21 831 l 21 825 q 38 757 21 782 q 238 699 74 699 l 292 699 q 190 640 232 682 q 133 513 133 589 l 133 506 l 135 504 l 135 497 q 40 393 40 485 q 45 346 40 365 q 64 315 50 326 l 64 317 q 78 303 69 313 q 96 288 88 294 q 131 333 96 333 l 133 335 l 136 335 l 136 135 q 131 119 133 128 q 129 111 129 114 l 129 108 q 126 101 126 106 q 124 94 125 96 l 136 94 l 138 96 l 143 96 l 144 97 q 197 122 163 100 q 294 271 294 188 l 294 639 q 321 696 294 678 l 318 700 q 331 701 324 701 l 331 135 q 158 83 235 132 q 42 -53 82 35 q 236 0 132 0 q 453 -58 342 0 q 729 63 544 38 l 732 72 m 382 136 l 382 293 q 425 304 407 304 q 460 311 453 311 l 467 308 q 563 294 503 308 l 563 78 q 382 136 489 122 m 493 546 l 436 546 q 382 563 399 546 l 382 710 q 436 708 410 708 l 490 708 q 517 707 507 707 l 529 707 l 531 706 q 563 669 563 689 l 563 561 q 493 546 497 546 m 464 363 l 449 361 q 421 356 433 358 q 382 349 393 349 l 382 503 q 435 496 406 496 q 443 494 438 494 l 489 494 q 529 500 501 494 q 550 504 542 501 q 557 505 554 504 q 563 506 560 506 l 563 347 q 464 363 510 363 m 65 314 l 67 314 q 65 315 65 314 l 64 315 l 65 314 z "},"E":{"ha":769,"x_min":13,"x_max":746,"o":"m 165 893 l 171 893 q 201 889 182 893 l 219 883 l 235 879 q 315 868 268 872 l 397 861 q 457 860 426 860 q 650 874 543 860 l 671 876 l 693 881 q 721 883 708 883 q 735 882 729 883 q 714 849 726 865 l 690 819 l 682 810 l 672 797 l 649 767 q 603 724 617 729 l 586 722 l 569 724 l 533 724 l 494 722 l 417 722 l 388 724 l 357 725 l 339 725 q 297 722 314 725 q 290 614 290 661 q 299 529 290 564 q 332 542 313 532 l 364 556 q 397 560 378 560 q 421 558 408 560 l 451 553 l 483 546 q 544 538 519 538 q 588 549 574 538 l 597 560 q 607 568 603 568 q 615 569 611 569 q 632 551 632 569 q 618 504 632 535 q 558 422 585 433 q 478 408 529 408 q 390 418 438 410 l 374 421 l 354 424 q 336 425 344 425 q 317 422 325 425 q 289 339 290 413 q 290 276 289 315 l 292 249 l 292 218 q 279 154 288 168 q 264 118 274 144 q 314 124 285 118 l 338 128 l 361 131 q 388 132 374 132 q 447 126 415 132 l 486 118 l 524 111 l 554 107 l 589 106 l 596 106 q 647 118 632 106 q 661 135 654 124 l 672 158 q 699 196 688 190 l 713 197 l 725 196 q 746 169 746 189 l 746 167 q 688 57 744 156 q 625 -44 632 -40 l 625 -46 q 619 -49 624 -47 l 604 -51 l 588 -51 q 436 -28 536 -47 l 361 -14 l 288 -4 q 236 -1 263 -1 q 183 -4 210 -1 q 154 -10 176 -4 l 111 -19 q 57 -29 74 -29 q 46 -26 49 -29 q 38 -12 38 -21 q 44 6 38 -4 l 60 21 l 65 25 l 71 29 q 88 46 81 36 q 101 67 99 58 q 107 110 107 82 q 106 133 107 121 l 104 171 l 103 186 l 101 199 q 97 317 97 247 q 99 392 97 351 l 101 490 l 104 589 l 103 611 l 103 644 q 108 679 103 667 q 139 717 114 694 l 158 733 l 175 751 q 151 756 164 756 q 126 751 139 756 q 86 729 111 746 q 35 708 53 708 q 22 713 26 708 q 13 729 13 721 q 19 746 13 738 l 79 808 l 139 871 l 144 876 l 151 883 q 165 893 160 892 z "},"F":{"ha":924,"x_min":19,"x_max":915,"o":"m 915 850 q 913 836 913 842 l 911 835 q 893 794 911 822 q 850 742 872 763 q 800 715 828 722 l 800 86 l 749 86 l 749 381 l 653 381 l 651 142 q 647 122 651 132 q 508 0 619 51 q 328 -44 411 -44 q 226 -28 268 -44 q 108 7 139 7 l 106 7 q 94 6 103 6 q 19 -35 50 1 q 38 35 24 6 q 76 86 53 65 q 189 132 128 132 q 338 81 249 132 l 338 82 q 446 33 425 35 l 457 49 l 457 35 l 460 35 q 488 56 475 35 q 501 97 501 76 l 503 99 l 503 668 q 549 751 503 718 l 744 886 q 844 826 794 826 q 907 856 869 826 l 915 850 m 488 724 q 469 702 476 719 q 461 669 461 685 l 461 310 q 364 163 461 226 q 311 139 331 139 l 310 138 l 307 138 l 304 136 l 290 136 q 294 147 292 139 q 299 160 296 154 q 301 167 300 163 q 303 174 301 171 l 303 378 l 297 378 l 294 379 l 285 379 q 238 347 238 379 l 239 346 l 239 340 l 240 339 l 240 329 q 188 355 207 329 q 168 414 168 381 q 281 529 168 529 l 293 529 q 301 528 296 528 l 301 533 l 300 535 l 300 542 q 357 671 300 619 q 413 711 382 694 q 485 735 444 728 l 488 724 m 586 878 q 514 765 579 813 q 385 721 453 721 l 379 721 l 378 722 q 274 738 343 722 q 168 753 200 753 l 167 751 l 161 751 q 99 721 147 751 l 99 733 q 119 797 99 761 q 286 881 167 878 l 296 885 q 339 878 299 882 l 353 878 q 375 873 360 876 q 414 865 390 869 l 415 864 l 418 864 q 501 851 443 851 q 576 882 543 851 l 586 878 m 653 749 l 653 526 l 749 526 l 749 713 q 746 711 747 711 l 746 713 l 743 713 q 653 749 704 713 z "},"G":{"ha":875,"x_min":21,"x_max":865,"o":"m 865 242 q 579 503 865 451 l 806 807 l 776 829 l 746 814 q 733 809 736 810 q 724 807 731 808 q 719 806 721 807 q 715 806 718 806 q 610 868 657 806 l 294 674 l 294 611 l 329 632 l 329 126 l 326 113 q 324 100 325 107 l 322 93 l 324 97 l 322 96 q 319 89 319 93 l 318 88 l 318 78 l 328 78 q 465 156 419 78 q 485 213 485 188 l 485 378 l 522 426 l 522 6 l 515 6 l 513 4 q 496 3 499 4 l 481 3 q 472 1 475 3 l 469 1 q 374 14 411 1 q 251 133 300 42 q 215 217 228 174 q 199 303 201 260 q 194 374 194 353 l 196 375 l 196 389 l 194 390 q 347 769 194 629 q 383 800 364 785 q 418 826 401 815 l 415 835 q 128 671 238 808 q 21 356 21 538 q 144 56 21 169 q 450 -58 263 -58 q 765 44 624 -58 q 865 242 865 117 m 525 717 q 596 689 565 689 q 672 708 633 689 l 485 456 l 485 728 l 503 738 q 517 725 513 731 q 525 717 522 719 m 686 158 q 614 174 647 174 l 592 174 q 575 169 581 171 l 575 263 l 576 263 q 583 261 581 261 q 611 256 594 256 l 636 256 q 663 261 646 256 q 665 262 664 261 q 667 263 665 263 q 683 267 676 264 q 690 269 689 269 l 692 268 q 693 240 692 244 l 693 229 q 691 193 693 211 q 686 158 689 175 m 632 308 l 607 308 q 594 312 603 310 q 575 317 586 314 l 575 439 q 682 321 651 413 q 632 308 658 308 m 575 22 l 575 115 l 578 115 l 581 117 l 579 117 q 590 119 582 117 q 608 122 604 122 l 611 124 l 619 124 q 664 110 632 124 q 575 22 640 58 z "},"H":{"ha":929,"x_min":21,"x_max":919,"o":"m 917 60 q 873 30 899 49 q 815 -12 847 11 q 764 -67 794 -26 l 757 -60 l 756 -58 l 753 -56 l 750 -54 l 746 -50 l 744 -47 q 617 56 668 28 l 676 118 l 676 375 l 508 375 l 508 118 l 521 132 l 560 99 l 400 -60 q 200 3 301 3 q 36 -50 108 3 q 85 36 51 0 q 168 97 119 72 q 256 127 211 117 q 351 138 301 138 q 460 121 407 138 l 460 797 q 436 840 436 806 q 486 892 436 892 q 520 876 506 892 q 535 840 535 860 q 508 794 535 807 l 508 515 l 676 515 l 676 725 q 671 728 672 725 l 672 728 q 661 735 668 731 q 647 746 654 739 l 649 746 q 640 753 646 747 l 617 739 l 594 776 l 750 882 q 879 796 824 796 l 882 796 q 901 803 885 797 q 919 806 907 806 q 869 740 897 764 q 858 734 864 738 q 846 725 853 731 l 847 725 l 843 721 l 833 718 l 833 118 l 867 83 l 894 100 l 918 65 l 917 60 m 431 750 l 431 747 q 417 678 417 733 l 417 288 q 396 228 417 265 q 367 192 385 208 q 329 163 350 175 q 285 143 308 150 q 240 136 263 136 l 233 136 l 232 138 l 218 138 l 232 151 q 242 160 235 153 l 251 179 l 251 178 l 257 188 q 264 201 261 196 q 265 207 264 206 l 265 381 l 218 381 l 204 375 q 201 374 203 375 q 199 374 200 374 q 181 331 181 361 l 182 329 l 182 310 q 160 323 171 314 q 141 343 150 332 q 126 365 132 354 q 119 386 119 376 q 117 408 117 394 q 124 447 117 428 q 146 483 132 467 q 176 508 160 499 q 213 518 193 518 l 265 521 l 265 639 q 354 735 288 696 q 443 763 397 763 l 431 750 m 431 826 q 359 755 403 785 q 272 724 315 725 q 253 722 269 722 l 251 721 l 247 721 q 168 740 222 721 q 99 760 117 760 l 96 758 l 86 758 q 78 757 85 757 q 50 745 63 756 q 24 711 38 735 l 24 731 l 22 732 l 22 738 l 21 740 l 21 747 q 65 840 21 804 q 168 876 108 876 q 281 851 228 876 q 289 849 286 849 l 288 849 q 298 844 294 846 q 304 842 301 843 l 303 842 q 314 838 308 839 q 343 828 319 836 l 346 828 q 361 826 354 826 q 374 825 368 825 q 417 832 406 825 q 422 833 418 833 q 424 834 424 833 q 426 835 425 835 l 431 826 z "},"I":{"ha":681,"x_min":21,"x_max":669,"o":"m 664 844 q 493 729 533 818 q 486 706 486 713 l 486 74 q 467 26 486 46 q 422 7 449 7 q 375 13 407 7 q 344 32 372 14 q 319 56 322 50 q 303 67 310 61 q 289 79 296 72 q 178 125 222 125 q 167 124 169 125 q 88 86 128 119 q 37 25 53 58 q 21 -46 21 -8 q 119 0 75 0 l 126 0 q 233 -37 147 0 q 301 -53 269 -49 q 365 -57 333 -57 l 389 -57 q 397 -56 393 -56 q 543 -1 468 -51 q 608 56 581 22 q 642 136 642 99 l 642 792 q 669 835 642 807 l 664 844 m 454 718 l 450 718 l 449 717 l 447 717 q 417 706 436 714 q 375 682 399 697 q 317 633 329 654 q 293 589 293 604 l 293 506 q 281 507 285 506 q 274 509 276 508 q 267 510 271 510 l 263 510 q 181 483 214 510 q 149 411 149 456 q 228 314 149 326 l 228 325 l 226 326 l 226 331 l 225 332 q 265 364 228 364 l 267 363 q 293 344 283 363 l 293 193 q 272 115 293 165 q 388 167 329 115 q 447 265 447 217 l 447 654 q 450 683 447 669 q 460 710 453 696 l 454 718 m 535 851 q 456 826 490 826 l 453 825 q 399 833 440 825 q 367 840 379 838 q 349 847 356 843 l 346 847 l 344 849 q 292 860 313 856 q 260 864 271 864 q 82 767 133 864 q 64 701 64 735 l 64 682 q 83 701 71 692 q 108 717 94 710 q 134 729 121 725 q 157 733 147 733 q 219 725 190 733 q 235 721 231 722 q 281 708 272 710 q 343 704 293 704 q 365 707 364 704 l 363 706 q 476 749 426 711 q 543 846 526 786 l 535 851 z "},"J":{"ha":646,"x_min":21,"x_max":635,"o":"m 632 843 l 632 840 q 618 803 618 814 q 617 796 617 801 l 618 796 l 618 149 q 585 61 618 113 q 357 -54 524 -32 q 310 -58 328 -58 l 283 -58 q 144 -29 213 -58 q 38 61 65 4 q 21 138 21 94 q 53 228 21 190 q 135 265 85 265 q 173 257 154 265 q 206 234 192 249 q 229 201 221 219 q 238 164 238 183 q 213 103 238 129 q 154 76 188 76 q 126 81 139 76 q 181 24 140 46 q 271 3 215 3 l 274 1 l 279 1 q 403 39 349 1 q 461 146 461 78 l 461 707 q 615 850 461 771 q 622 852 618 851 q 631 856 625 853 l 635 846 l 632 843 m 440 726 q 424 683 429 704 q 419 639 419 663 l 419 156 q 419 151 419 153 q 418 147 418 149 q 417 142 417 144 l 415 140 l 415 139 q 387 99 406 118 q 342 63 368 81 q 229 31 286 31 q 269 110 269 79 l 269 356 l 268 357 l 267 358 l 268 358 q 258 362 260 361 q 253 364 256 363 l 251 364 l 250 365 l 244 365 l 242 367 q 215 356 226 365 q 203 333 204 347 l 204 332 l 204 319 q 124 406 124 335 q 158 483 124 454 q 244 513 192 513 l 254 513 l 257 511 l 265 511 l 267 510 l 269 510 l 269 596 q 368 700 269 646 l 368 699 q 382 706 374 701 q 401 718 390 711 l 401 717 q 414 724 407 719 q 428 732 421 728 l 431 735 l 435 735 l 440 726 m 468 846 q 415 747 465 789 q 310 704 364 704 q 294 703 307 703 q 197 721 260 703 q 144 735 167 731 q 106 739 121 739 l 103 739 q 85 735 92 735 q 60 722 74 729 q 31 701 47 714 l 31 714 q 126 846 31 797 q 156 857 142 853 q 182 864 171 861 q 189 865 185 864 l 210 865 q 259 862 233 865 q 314 850 285 858 q 396 831 383 831 q 428 835 413 831 q 460 850 443 840 l 468 846 z "},"K":{"ha":911,"x_min":21,"x_max":903,"o":"m 775 -64 l 768 -64 q 710 -53 736 -64 q 664 -18 683 -42 q 608 85 639 11 l 607 86 l 478 -58 q 451 -40 461 -47 q 436 -31 440 -33 l 438 -31 q 276 8 375 8 q 57 -60 146 8 q 271 128 106 68 q 365 149 322 146 q 374 150 369 149 q 390 151 389 150 l 397 151 q 561 101 499 151 l 575 115 l 606 92 q 587 151 600 108 q 553 264 574 194 q 528 329 539 303 q 506 367 517 356 q 503 328 504 343 q 499 301 501 313 q 432 211 486 254 l 433 211 q 329 169 383 169 l 324 183 l 331 183 q 339 193 333 188 q 347 206 344 199 l 347 204 q 351 221 347 208 q 357 236 354 228 l 358 243 l 358 668 q 375 718 365 699 q 443 800 392 757 q 496 835 469 822 q 553 853 522 849 q 535 831 546 844 q 517 807 524 817 l 518 808 l 506 771 l 506 514 l 700 876 l 710 874 q 760 840 710 857 q 794 835 775 835 q 868 865 838 835 l 871 856 l 876 861 q 835 739 876 790 q 722 679 790 679 q 672 689 692 679 l 669 689 l 576 521 q 672 393 633 464 q 691 352 682 374 q 710 307 700 331 q 724 261 715 289 q 746 197 733 233 q 825 99 782 101 l 828 103 q 835 99 832 99 q 878 119 850 99 l 903 104 l 775 -64 m 332 694 q 322 665 325 675 l 319 656 l 319 258 q 261 147 319 201 q 140 93 200 93 l 140 101 q 163 144 156 128 q 169 171 169 161 l 169 326 q 158 331 161 329 l 147 331 l 144 332 q 106 294 113 331 q 63 326 81 300 q 46 379 46 353 q 76 458 46 426 q 156 490 107 490 l 163 490 l 165 489 l 169 489 l 169 546 q 222 650 169 607 q 272 683 246 669 q 331 707 299 697 l 335 697 l 332 694 m 419 850 q 372 763 419 810 q 286 714 329 717 l 279 714 q 182 731 215 714 l 181 731 l 176 732 q 142 736 168 732 q 107 740 114 740 q 21 690 56 740 l 21 710 q 69 825 21 774 q 122 861 93 849 q 183 875 151 874 l 186 878 q 232 869 206 875 q 288 857 258 864 q 326 845 311 850 q 350 839 342 840 l 351 838 l 356 838 q 411 854 386 838 l 419 850 z "},"L":{"ha":842,"x_min":21,"x_max":835,"o":"m 697 649 l 661 682 l 685 710 q 680 714 682 713 q 676 718 678 715 l 668 726 q 658 733 664 729 q 640 746 651 736 q 622 756 632 750 q 601 771 613 763 l 597 771 l 594 772 l 586 772 l 585 774 q 522 747 538 774 q 508 719 508 729 l 508 297 q 499 256 508 278 q 476 216 490 235 q 443 182 461 197 q 406 158 425 167 l 406 160 q 389 152 399 154 q 361 143 379 150 l 363 143 q 357 142 360 142 q 354 140 356 142 q 349 140 351 140 q 343 139 346 139 q 332 138 339 138 l 311 138 q 342 178 331 157 q 356 224 353 199 l 356 231 q 357 243 356 236 q 358 247 357 246 q 358 251 358 249 l 358 638 q 479 790 358 713 q 669 863 590 863 l 675 863 q 765 836 699 863 q 822 789 807 815 l 697 649 m 707 -58 q 393 7 553 7 q 151 -40 256 7 q 128 -51 142 -43 q 100 -65 115 -58 q 179 35 131 -7 q 299 104 228 76 q 546 153 419 153 q 692 132 629 153 l 692 389 q 668 431 668 397 q 683 466 668 450 q 718 482 699 482 q 752 466 738 482 q 767 431 767 450 q 742 386 767 397 l 742 118 q 757 113 744 115 l 763 108 l 760 108 q 767 104 765 106 l 767 106 l 769 104 l 771 103 l 776 100 l 796 124 l 835 93 l 707 -58 m 324 682 l 333 679 q 317 625 317 629 l 314 235 l 314 232 q 292 176 314 211 q 132 71 232 81 q 165 176 165 125 l 165 318 q 156 323 163 321 q 143 331 150 325 l 139 331 q 111 321 124 331 q 97 296 99 311 l 99 294 l 99 285 l 92 285 l 90 283 l 85 283 q 42 305 61 283 q 22 350 24 326 q 21 365 21 353 q 104 474 21 442 q 133 478 118 476 q 165 483 147 481 l 165 535 q 167 561 165 554 q 231 640 172 600 q 326 683 286 683 l 324 682 m 444 818 q 378 722 438 760 q 267 685 325 685 q 190 701 232 685 q 179 704 181 701 q 169 708 174 707 q 161 710 164 708 q 140 715 153 713 q 124 717 128 717 l 122 715 q 101 711 107 715 q 83 701 93 711 q 67 692 78 700 q 42 672 57 685 l 42 686 q 85 812 42 764 q 203 860 128 860 q 253 853 226 860 q 313 836 281 847 q 404 813 376 813 q 414 814 408 813 q 428 818 419 815 q 438 824 431 821 l 444 818 z "},"M":{"ha":1099,"x_min":21,"x_max":1090,"o":"m 988 -58 l 982 -58 q 832 149 832 -58 l 832 346 l 753 346 l 753 93 l 769 108 l 803 71 l 635 -58 q 508 13 572 13 q 472 8 492 13 q 426 -6 451 3 q 428 6 426 -1 q 435 19 431 13 l 433 19 q 510 108 465 78 l 510 346 l 432 346 l 432 103 q 413 42 432 81 q 272 -54 363 -54 q 222 -43 258 -54 q 175 -33 193 -33 l 175 -31 q 104 -12 119 -12 q 21 -57 53 -12 q 62 72 21 22 q 175 121 103 121 q 219 115 194 121 q 272 99 243 110 q 280 95 279 96 q 288 92 281 94 q 317 83 300 83 l 317 94 q 331 83 328 83 q 362 98 344 83 q 379 128 379 113 l 379 714 l 350 697 l 349 696 l 344 693 l 344 692 q 340 683 340 688 q 336 672 336 679 l 336 269 q 333 249 336 260 q 324 224 331 238 q 294 188 313 204 q 255 158 276 171 q 209 138 233 146 q 163 131 185 131 l 154 131 l 154 132 l 142 132 l 156 146 l 157 146 q 179 188 179 168 l 179 340 l 176 343 l 167 349 l 165 349 l 163 350 l 158 350 l 157 351 q 132 326 132 349 q 133 318 133 324 l 136 315 l 139 301 l 132 301 l 131 300 l 126 300 q 68 332 92 300 q 50 394 50 358 q 99 476 50 447 q 126 489 119 489 l 179 492 l 179 626 q 240 706 179 672 l 574 875 q 703 768 635 772 l 703 868 l 753 868 l 753 771 l 756 771 q 899 876 806 771 q 1001 790 953 815 l 1006 790 q 1024 794 1015 790 l 1028 794 l 1029 796 q 1047 804 1035 796 l 1047 781 l 1046 778 l 1046 771 l 1044 769 q 1026 728 1043 750 q 990 699 1010 707 l 990 146 q 1004 110 990 126 q 1038 90 1018 94 l 1051 110 l 1090 82 l 988 -58 m 701 117 l 701 696 q 669 689 685 689 q 661 688 667 688 l 660 688 l 660 129 q 674 126 667 128 q 688 121 681 124 q 694 119 689 119 l 696 118 q 698 117 697 118 q 701 117 699 117 m 444 744 l 432 742 l 432 493 l 510 493 l 510 706 q 506 708 507 708 q 503 710 504 708 q 494 713 497 711 q 488 715 490 714 l 489 715 q 457 736 482 715 l 457 735 l 454 736 q 449 740 451 738 q 444 744 447 742 m 753 718 l 753 493 l 832 493 l 832 696 q 769 731 793 703 q 754 719 761 719 l 753 718 z "},"N":{"ha":881,"x_min":18,"x_max":871,"o":"m 871 853 q 860 814 869 833 q 829 774 850 794 q 760 721 797 740 l 760 722 q 745 715 751 717 q 735 711 739 713 l 735 -58 l 726 -58 q 581 82 658 -58 l 582 82 q 553 134 568 103 q 511 219 539 165 q 497 247 504 232 q 483 276 490 261 q 356 307 411 307 q 249 285 282 307 l 249 151 l 250 151 l 253 153 l 261 153 q 349 138 307 153 q 431 96 390 124 l 447 118 l 478 88 l 367 -58 q 185 3 269 3 q 64 -25 122 3 l 64 -24 q 50 -32 56 -29 l 39 -36 q 18 -44 26 -42 q 196 144 58 103 l 196 331 q 190 333 193 332 q 183 336 188 333 l 181 336 q 165 324 171 336 q 158 301 158 313 l 160 300 l 160 285 q 99 314 124 285 q 74 382 74 343 q 135 492 74 467 q 156 496 140 493 q 196 501 171 499 l 196 729 l 193 729 q 176 722 186 724 q 156 717 165 719 q 146 715 151 715 q 139 713 142 715 q 76 636 81 683 l 67 636 l 69 633 q 40 693 40 639 q 93 825 40 768 q 221 885 144 885 q 349 836 296 885 q 440 721 383 804 q 477 652 456 693 q 535 546 499 611 q 608 532 556 532 q 624 533 622 532 q 665 538 657 533 l 671 538 l 682 540 l 685 540 l 683 703 l 681 703 l 678 701 l 671 701 q 572 729 601 701 l 546 707 l 513 740 l 665 886 q 785 836 729 836 q 863 858 819 836 l 871 853 m 451 346 q 428 395 443 363 q 389 479 413 428 q 326 613 349 568 q 249 711 281 696 l 249 339 q 363 358 319 358 q 451 346 407 358 m 685 239 l 683 488 q 662 482 675 483 q 632 481 649 481 l 594 481 q 558 486 575 481 q 571 458 563 476 q 592 413 579 440 q 641 312 618 354 q 685 239 664 269 z "},"O":{"ha":932,"x_min":21,"x_max":922,"o":"m 454 -58 q 640 -18 556 -58 q 849 186 775 44 q 922 474 922 322 q 908 586 922 532 q 683 885 860 776 l 683 875 q 658 860 671 867 q 631 849 644 853 l 629 847 l 628 847 q 592 829 601 833 l 592 871 l 540 871 l 540 803 q 382 742 444 765 q 294 710 319 718 l 294 656 q 319 660 301 656 q 347 671 336 665 l 347 135 l 346 132 q 344 119 346 121 q 343 113 343 117 l 343 107 l 344 110 q 338 96 340 103 q 333 82 336 89 l 339 82 l 340 81 l 343 81 l 344 79 q 378 85 360 79 q 418 107 397 92 q 440 124 428 114 q 464 149 451 133 q 499 200 499 185 l 499 724 q 522 735 511 731 q 540 744 533 740 l 540 6 q 532 4 536 6 q 529 3 531 3 q 526 2 528 3 q 522 1 524 1 q 461 -6 490 -6 q 226 193 293 -6 q 190 411 190 304 l 190 421 q 213 496 213 444 l 213 514 q 208 588 208 560 q 211 614 208 603 q 394 857 253 785 l 393 867 l 385 867 l 385 868 l 372 868 q 169 763 267 868 q 22 440 28 608 q 21 408 21 436 l 22 407 l 22 403 q 21 399 22 400 q 54 210 21 293 q 213 15 103 89 q 454 -58 319 -58 m 763 364 q 758 303 763 358 q 757 297 758 301 q 754 288 756 293 q 753 276 753 282 q 747 277 750 276 q 739 278 743 278 l 731 278 q 721 279 728 278 q 686 283 693 283 l 651 283 q 619 279 644 283 q 599 276 604 276 q 592 275 594 275 l 592 517 q 647 508 614 508 l 681 508 q 707 512 692 508 q 742 522 722 515 q 750 525 747 525 q 763 411 763 472 l 763 364 m 686 101 q 592 24 643 46 l 592 219 q 594 221 593 219 q 613 225 606 222 q 651 229 626 229 l 678 229 q 692 226 681 228 q 724 224 703 225 q 731 219 728 221 q 740 217 735 218 q 721 158 733 186 q 686 101 708 129 m 676 554 l 658 554 q 592 571 608 554 l 592 771 l 601 774 q 735 575 685 700 q 676 554 703 554 z "},"P":{"ha":764,"x_min":21,"x_max":754,"o":"m 754 772 l 754 792 l 743 792 l 742 790 l 735 790 l 732 788 l 731 788 q 721 786 726 786 q 699 788 700 786 q 604 871 661 800 q 408 733 496 781 l 408 860 l 364 860 l 364 704 l 361 703 l 360 701 l 361 701 q 348 694 354 699 q 339 688 342 690 q 332 684 336 686 q 325 679 328 682 l 325 681 q 321 679 324 679 q 322 694 322 682 q 176 861 322 850 l 169 858 q 65 817 111 858 q 21 717 21 775 q 22 703 21 708 q 24 693 22 697 q 42 651 24 668 l 40 653 l 50 653 q 69 707 50 681 q 114 733 88 733 q 148 717 132 733 q 164 686 164 701 l 164 475 l 161 476 q 38 376 38 476 q 56 318 38 344 q 106 286 75 292 l 106 300 l 104 300 l 104 303 l 103 303 l 103 304 l 101 306 l 101 307 l 103 308 q 133 332 103 332 l 135 333 l 142 333 l 144 332 l 149 332 l 146 333 q 156 328 151 331 q 164 322 161 325 l 164 168 q 58 1 58 124 q 71 -64 58 -17 q 80 -53 74 -61 q 89 -43 86 -46 q 102 -28 97 -33 q 117 -8 107 -24 q 142 10 132 3 q 164 22 153 17 l 164 -157 q 149 -235 164 -171 l 147 -237 l 147 -249 l 214 -249 l 217 -246 q 219 -242 218 -243 q 222 -235 222 -236 l 219 -239 q 282 -182 249 -197 q 389 -249 318 -249 l 410 -249 l 410 -24 q 419 -32 413 -29 l 458 -71 q 671 36 549 36 l 674 36 l 678 35 q 700 33 697 35 l 701 32 l 710 32 l 713 31 l 728 31 q 717 50 721 42 q 713 64 714 58 l 711 65 l 711 67 q 708 74 708 69 l 707 78 l 707 704 q 753 771 750 722 l 754 772 m 321 -114 l 321 618 l 340 628 l 343 628 q 350 632 347 631 q 356 635 353 633 q 364 640 358 638 l 364 -185 q 321 -114 321 -160 m 504 301 l 486 301 q 466 299 488 300 q 421 296 444 299 q 415 295 418 296 q 410 294 413 294 l 410 504 q 457 494 438 494 l 497 494 q 550 501 532 494 l 550 293 q 525 299 542 296 q 504 301 508 301 m 496 549 l 476 549 q 410 563 432 549 l 410 663 l 413 665 l 411 665 q 438 682 425 675 q 458 694 451 689 q 497 719 472 700 q 550 697 529 697 l 550 558 l 549 558 q 496 549 531 549 m 410 174 l 410 236 q 419 238 414 236 q 432 242 425 239 q 450 246 442 244 q 464 247 458 247 l 492 247 q 494 247 493 247 q 497 246 494 246 q 507 244 501 244 l 514 244 q 521 243 517 243 l 521 242 q 522 243 522 242 l 521 244 q 538 240 531 242 l 543 238 l 550 235 l 550 81 l 543 76 q 483 128 515 104 q 410 174 450 153 z "},"Q":{"ha":931,"x_min":19,"x_max":921,"o":"m 594 -21 q 596 -22 594 -22 l 596 -24 q 725 -112 693 -112 q 776 -86 743 -112 l 776 -100 l 778 -100 l 778 -110 q 718 -182 778 -157 q 704 -186 710 -185 q 695 -189 700 -187 q 685 -192 690 -190 q 676 -193 681 -192 q 660 -194 661 -193 l 649 -194 q 583 -183 608 -194 q 422 -46 550 -168 q 302 -20 360 -42 q 197 37 244 1 q 110 121 149 72 q 50 229 72 169 q 19 408 19 307 l 21 411 l 21 419 l 19 421 q 21 454 19 450 q 60 619 24 540 q 168 774 96 699 q 371 882 269 882 l 383 882 l 383 881 l 392 881 l 394 872 q 344 841 367 857 q 301 806 321 825 q 193 529 214 715 q 192 524 193 526 q 192 519 192 522 q 190 507 192 510 l 190 440 q 189 419 189 439 q 233 181 189 290 l 233 182 q 389 14 288 49 q 464 39 419 39 q 539 18 493 39 l 539 756 l 538 756 q 535 755 536 756 q 533 754 535 754 q 531 753 532 754 q 529 753 531 753 l 525 749 q 517 747 521 747 q 511 746 514 747 l 497 739 l 497 213 q 482 183 497 203 q 419 124 461 156 q 346 93 381 93 l 339 93 l 339 94 l 325 94 q 335 105 333 103 q 338 110 336 107 q 342 128 340 119 q 346 146 343 138 l 346 686 q 317 675 335 679 q 293 671 300 671 l 293 725 q 328 736 300 726 q 408 763 357 746 q 478 789 444 775 q 539 818 511 803 l 539 883 l 590 883 l 590 842 l 594 844 q 625 858 601 844 l 624 858 l 626 861 q 631 864 628 861 q 660 878 646 871 q 688 893 675 886 q 860 721 799 828 q 921 488 921 614 q 833 175 921 317 q 594 -21 739 22 m 761 407 q 759 438 761 419 q 754 479 757 456 q 749 513 751 499 q 747 538 747 526 q 679 522 710 522 l 646 522 q 613 524 626 522 q 590 531 600 525 l 590 288 q 603 292 596 289 l 608 293 q 650 297 639 297 l 685 297 q 751 288 724 297 q 753 299 751 293 q 756 311 754 306 q 757 317 757 315 q 761 376 761 371 l 761 407 m 739 229 q 727 234 733 232 q 715 239 721 236 l 714 239 q 675 243 683 239 l 650 243 q 633 241 644 243 q 611 236 622 239 q 590 232 599 232 l 590 36 q 685 114 642 58 q 720 171 707 142 q 739 229 733 200 m 733 590 q 600 788 683 715 l 590 785 l 590 585 q 657 569 606 569 l 675 569 q 733 590 701 569 z "},"R":{"ha":853,"x_min":21,"x_max":849,"o":"m 749 -53 l 744 -53 l 743 -54 l 739 -54 l 738 -56 l 732 -56 q 689 -47 711 -56 q 644 -19 667 -39 q 594 47 604 13 l 483 -58 q 333 0 389 -4 l 317 0 q 296 1 307 0 q 276 2 285 1 q 260 3 267 3 q 75 -64 156 3 q 167 68 90 14 q 304 132 231 115 q 340 136 319 133 q 385 143 361 139 q 392 142 388 142 q 401 140 397 142 q 428 135 413 138 q 463 129 443 133 q 496 119 469 128 q 567 94 522 110 l 575 107 l 574 110 q 563 165 567 126 q 482 360 539 347 l 482 285 q 386 169 482 213 q 332 151 350 151 l 329 150 l 326 150 l 324 149 l 303 149 q 326 181 318 167 q 333 211 333 196 l 333 615 q 335 635 333 632 q 385 721 335 686 l 385 724 l 617 858 q 728 714 700 819 q 730 702 729 707 q 732 692 731 697 q 733 686 732 689 q 733 681 733 683 l 733 661 q 692 522 733 593 q 599 424 657 460 q 706 268 682 383 l 706 269 l 707 264 q 710 251 708 257 q 712 238 711 244 q 715 224 713 232 q 731 164 715 214 q 754 111 744 124 q 801 90 771 90 q 807 92 804 92 q 813 94 810 93 l 811 94 q 827 100 817 97 q 849 106 838 103 l 749 -53 m 306 679 l 315 678 q 311 669 313 675 l 308 664 l 308 665 l 307 660 q 301 646 304 653 q 299 626 301 638 l 296 613 l 294 229 q 280 181 294 206 q 238 128 265 157 q 121 72 178 72 q 146 124 146 103 l 146 317 l 140 322 l 135 325 l 132 325 l 131 326 q 113 313 124 324 q 111 308 113 310 q 110 303 110 306 l 108 301 l 108 296 l 104 300 l 104 290 q 101 289 101 290 q 93 288 99 288 q 43 363 49 288 l 42 365 l 42 374 q 69 447 42 418 q 144 478 97 475 l 144 489 l 143 492 l 143 499 q 181 603 143 564 q 271 667 210 632 q 290 676 282 672 q 308 683 297 681 l 306 679 m 431 838 q 410 778 425 806 q 373 731 394 751 q 324 699 351 711 q 265 686 296 688 l 265 685 l 258 685 q 176 703 211 685 l 178 703 q 176 704 178 704 q 167 706 169 704 l 168 706 q 111 721 118 721 q 21 667 72 721 l 21 683 q 33 747 21 722 q 58 786 43 768 q 92 818 74 804 q 131 841 111 832 q 171 850 151 850 l 172 851 l 178 851 q 260 831 197 851 l 261 829 l 263 829 q 335 808 301 808 l 339 813 q 344 812 340 813 q 349 811 347 811 l 350 810 q 383 822 358 810 q 418 842 411 835 q 421 843 419 842 l 431 838 m 608 563 q 610 574 608 567 l 610 589 q 608 597 608 593 q 607 608 607 601 q 600 631 601 621 q 594 654 597 640 q 524 746 571 721 q 482 700 482 717 l 482 410 l 485 410 q 495 413 490 411 q 528 429 500 415 l 528 428 q 574 476 556 447 q 604 542 593 504 q 605 547 604 544 q 607 554 606 550 q 608 563 608 558 z "},"S":{"ha":881,"x_min":15,"x_max":872,"o":"m 860 349 q 828 283 849 317 q 776 210 808 250 q 756 185 767 199 q 729 156 744 171 q 701 122 715 140 q 671 83 686 104 q 635 40 657 67 q 588 -21 614 13 q 585 -29 585 -28 q 583 -35 585 -32 q 576 -49 581 -40 l 571 -58 q 399 -1 476 -21 q 258 18 321 18 q 207 10 253 18 q 15 -64 103 -8 q 129 68 46 17 q 202 107 164 92 q 281 133 240 122 q 368 146 324 143 q 422 150 393 147 q 433 149 429 150 q 444 147 438 149 q 469 144 456 146 q 500 140 482 143 q 615 108 525 139 q 672 177 650 151 q 701 217 693 203 q 750 342 750 289 q 726 399 750 364 q 574 454 688 454 l 483 454 q 472 453 476 453 l 465 453 l 454 429 l 468 429 q 476 431 475 429 q 519 432 518 431 l 528 432 q 678 403 636 432 q 718 328 713 382 q 714 310 715 325 q 713 306 714 307 q 713 301 713 304 q 700 265 711 294 q 608 178 676 200 l 622 197 l 621 196 q 623 202 622 199 q 625 208 624 206 q 629 226 629 218 l 631 229 q 472 290 631 290 l 400 290 q 390 289 394 289 l 385 289 q 365 257 381 283 q 188 129 282 129 q 171 132 182 129 q 100 213 100 154 l 101 214 q 146 279 101 254 q 157 284 153 282 q 168 286 161 286 l 169 288 l 174 288 q 261 217 250 288 q 278 233 268 224 q 296 253 288 242 q 301 261 299 256 q 310 274 304 267 q 318 288 310 279 l 318 290 l 314 290 l 311 289 l 294 289 q 172 306 231 289 q 71 375 96 329 q 57 442 57 401 q 104 553 57 506 q 218 444 125 471 q 382 429 276 429 l 383 431 l 386 431 l 396 453 l 390 453 q 139 539 179 453 q 124 614 124 572 q 292 836 124 764 q 342 853 318 847 q 388 860 365 858 q 396 861 392 860 q 415 863 414 861 l 443 863 q 465 861 444 861 l 468 861 q 488 858 475 861 q 521 851 500 856 q 653 793 590 832 l 692 825 l 726 793 q 708 775 718 781 l 710 775 l 685 750 q 651 721 669 739 q 551 601 603 672 q 643 597 582 599 q 721 583 678 597 q 872 424 872 543 q 860 349 872 383 m 535 674 q 458 755 510 724 q 351 786 406 786 l 346 786 l 335 783 q 325 782 331 782 q 314 781 321 782 q 218 692 224 760 q 315 607 219 626 q 381 599 354 599 l 450 599 q 461 600 456 599 l 479 600 q 489 615 483 607 q 503 633 494 624 q 510 643 506 636 q 518 654 515 650 q 523 660 521 657 q 528 667 525 663 l 535 674 z "},"T":{"ha":786,"x_min":21,"x_max":776,"o":"m 776 832 q 760 794 772 814 q 733 758 749 775 q 700 728 718 742 q 664 708 682 715 l 664 186 q 743 278 690 206 q 515 -31 743 56 q 386 -57 444 -57 q 236 -35 294 -57 q 78 88 135 6 q 21 279 21 169 l 21 285 l 22 286 q 117 563 22 435 q 289 675 186 663 q 161 406 161 532 q 179 284 161 339 q 233 185 197 229 l 233 186 q 436 90 313 90 l 438 90 l 440 92 q 613 143 539 92 l 613 688 l 610 688 q 592 683 599 683 q 525 678 579 678 l 524 676 l 519 676 q 467 678 492 676 q 422 682 443 679 q 405 685 417 683 q 374 690 393 688 q 339 697 358 693 q 294 704 319 700 q 168 718 221 718 l 161 718 q 129 717 156 717 q 25 653 67 710 l 25 671 q 50 744 25 703 q 268 857 121 856 l 275 860 q 425 843 321 857 l 501 829 q 522 824 508 826 q 556 818 535 821 l 585 815 l 614 811 l 649 811 l 650 813 l 669 813 l 671 811 q 768 838 728 811 l 776 832 m 457 183 q 349 136 406 136 l 340 136 l 340 138 l 328 138 l 338 149 l 338 153 l 340 154 q 342 158 340 157 l 346 163 q 353 175 346 168 l 353 179 l 354 181 l 354 183 l 356 185 l 356 529 l 315 510 l 315 567 l 482 664 l 511 664 l 511 288 q 457 183 511 233 z "},"U":{"ha":894,"x_min":21,"x_max":890,"o":"m 763 -57 q 631 69 681 -53 q 626 81 628 76 q 624 89 625 85 q 572 53 596 69 q 529 24 549 38 q 435 -58 467 -19 q 222 14 313 14 q 111 -15 182 14 l 110 -15 l 108 -17 l 103 -19 q 99 -22 100 -22 l 89 -22 q 235 128 118 83 l 235 349 q 217 358 224 357 q 210 360 215 360 l 208 358 q 181 349 193 358 q 165 326 168 340 l 167 326 l 167 313 q 119 335 139 313 q 100 389 100 358 q 178 500 100 472 q 232 508 203 501 l 235 508 l 235 661 q 224 686 235 667 q 147 732 196 732 q 40 671 85 732 l 39 669 q 36 665 38 668 l 38 665 q 34 660 36 663 q 21 646 32 657 q 49 770 21 713 q 125 850 78 828 q 204 865 160 865 l 210 868 q 335 804 285 861 q 383 667 383 747 l 383 139 q 394 135 388 136 q 408 132 400 135 q 420 128 414 129 q 433 125 426 128 l 433 861 l 486 861 l 486 749 l 693 879 q 779 796 725 817 q 806 790 792 790 q 850 807 817 790 q 828 742 850 771 q 778 703 807 713 l 778 146 q 839 97 778 97 l 844 97 l 847 99 q 857 100 856 99 l 860 100 l 863 101 l 868 101 l 869 103 l 874 103 l 875 104 l 890 104 l 763 -57 m 619 146 l 619 304 q 604 307 615 304 q 586 311 593 310 l 588 311 l 582 313 q 568 314 575 313 q 549 315 563 315 q 539 314 546 314 q 486 306 517 311 l 486 104 q 497 94 492 97 q 506 88 501 90 l 518 78 q 571 114 546 97 q 619 146 596 131 m 619 546 l 619 703 q 569 736 592 711 l 486 686 l 486 544 q 532 533 493 533 l 571 533 q 619 546 594 533 m 619 354 l 619 497 q 558 488 599 488 l 528 488 q 512 489 522 488 q 486 494 501 490 l 486 354 q 521 361 504 354 q 542 363 540 361 l 558 363 q 583 361 563 361 q 599 357 590 358 q 619 354 608 356 z "},"V":{"ha":854,"x_min":19,"x_max":844,"o":"m 844 781 l 842 778 l 842 774 l 840 772 q 828 746 839 765 q 769 693 800 701 l 769 78 q 790 38 769 63 q 738 49 746 49 l 732 49 l 728 50 l 722 50 q 415 -74 551 50 q 364 -29 388 -46 q 321 -6 340 -12 q 199 17 250 17 q 86 -11 129 17 l 79 -4 q 83 2 81 -3 q 85 11 85 7 l 90 11 q 149 90 118 60 q 219 129 181 119 l 219 674 q 207 699 219 679 q 135 738 182 738 q 46 644 61 738 q 19 715 19 679 q 54 797 19 758 q 132 853 92 839 q 189 861 153 861 l 192 864 q 356 771 311 854 q 371 704 371 738 l 371 142 q 399 136 376 136 q 410 131 406 133 q 419 126 415 128 l 419 860 l 468 860 l 468 749 l 656 885 q 800 776 744 776 q 844 794 810 776 l 844 781 m 611 86 l 611 272 q 608 274 610 274 q 600 275 607 274 l 599 276 q 594 277 596 276 q 590 278 592 278 q 569 282 579 281 q 547 286 558 283 l 532 286 l 532 289 l 525 289 q 493 283 510 289 q 486 282 490 283 l 478 282 q 476 281 476 282 l 478 281 q 469 279 475 279 l 469 107 l 472 104 l 478 101 l 481 99 l 479 99 q 532 60 507 79 l 533 60 l 585 81 q 594 82 588 81 q 611 86 600 83 m 611 553 l 611 694 l 607 697 q 543 743 576 707 l 469 688 l 469 556 q 524 543 494 543 l 558 543 q 611 553 588 543 m 606 326 l 611 324 l 611 500 q 561 492 590 492 l 518 492 q 511 493 513 492 q 469 497 483 493 l 469 331 q 501 336 492 331 l 511 336 l 514 338 l 535 338 q 601 328 576 338 q 606 326 603 326 z "},"W":{"ha":1060,"x_min":21,"x_max":1050,"o":"m 1050 792 l 1050 801 q 1016 792 1028 794 q 1001 790 1004 790 q 890 872 964 790 q 875 857 881 863 q 865 844 869 851 l 865 846 q 761 781 807 789 l 761 861 l 704 861 l 704 772 q 590 851 636 774 q 576 874 579 869 q 518 826 546 846 q 463 792 490 807 l 464 792 q 435 779 443 783 l 436 779 q 433 778 435 778 l 433 861 l 381 861 l 381 756 l 339 736 q 293 832 335 790 q 186 876 249 876 q 38 782 76 876 q 21 719 22 738 l 21 692 l 22 689 l 22 682 l 24 679 q 25 669 24 672 q 26 660 25 667 q 26 653 26 654 q 126 738 89 738 q 174 706 156 738 q 188 674 181 699 l 188 500 l 186 500 l 183 501 q 51 383 51 501 l 51 372 l 53 369 q 72 323 54 344 q 111 301 89 301 q 115 303 114 301 l 126 297 l 126 314 l 125 314 l 125 318 l 124 318 l 122 319 q 153 351 122 351 l 154 351 l 157 350 l 163 350 l 165 349 l 168 349 q 178 340 174 344 q 188 332 182 336 l 188 117 q 50 -21 81 92 l 60 -25 l 63 -22 l 64 -22 l 65 -19 l 64 -19 q 167 10 114 10 q 304 -60 242 10 q 464 46 371 18 l 467 44 q 647 -60 551 39 q 931 56 751 56 l 942 56 l 944 54 l 963 54 q 990 51 971 51 l 999 51 q 1008 54 1004 51 q 996 99 999 89 l 996 724 q 1050 792 1050 740 m 339 119 l 339 685 l 381 703 l 381 104 l 379 104 q 339 119 349 111 m 703 99 q 689 111 696 108 l 690 110 q 668 124 675 118 l 668 685 q 684 690 679 689 q 696 694 689 692 l 699 694 l 700 696 l 701 696 l 703 100 l 701 101 l 703 99 m 785 82 q 763 71 768 72 l 763 274 l 771 282 l 775 282 l 776 285 l 781 285 l 782 286 l 789 286 l 792 288 l 797 288 l 801 286 q 838 275 826 286 l 838 93 q 799 85 811 86 q 785 82 788 83 m 811 544 l 790 544 l 788 546 q 763 551 768 546 l 763 728 l 783 738 l 789 732 l 792 731 l 794 728 l 811 719 q 836 713 828 713 l 838 713 l 838 551 q 811 544 828 544 m 440 93 l 440 283 q 454 289 449 283 l 474 289 l 476 290 l 482 290 q 510 286 492 289 l 510 126 q 440 93 472 111 m 799 339 l 792 336 q 781 333 788 335 q 763 329 774 332 l 763 497 q 790 493 775 493 l 818 493 q 825 494 822 493 q 832 497 829 494 l 829 496 q 834 498 832 497 q 838 500 836 499 l 838 329 q 814 335 821 335 q 799 339 807 336 m 482 544 l 461 544 l 460 546 q 440 556 440 546 l 440 729 l 453 733 l 464 722 q 510 693 485 700 l 510 556 q 482 544 492 544 m 507 340 l 508 339 q 500 342 506 342 l 501 342 q 494 343 499 343 l 469 343 q 440 339 446 339 l 440 500 q 447 497 443 499 q 456 496 451 496 l 457 494 l 468 494 l 468 493 l 478 493 q 489 497 479 494 l 494 497 q 507 500 501 499 l 510 500 l 510 339 l 507 340 z "},"X":{"ha":853,"x_min":19,"x_max":843,"o":"m 843 115 l 836 122 q 774 97 804 101 q 722 115 746 97 q 672 169 697 132 q 622 263 647 206 q 565 399 596 319 l 567 399 q 583 397 571 397 q 597 396 588 397 q 624 392 607 394 q 651 388 640 389 q 667 386 663 386 q 678 390 674 386 l 742 521 q 715 516 731 518 q 693 513 700 514 q 675 510 685 511 l 668 508 q 549 496 564 496 l 528 496 q 524 508 525 503 q 521 517 522 514 l 519 519 l 521 518 q 515 531 515 529 q 514 535 514 533 q 585 693 572 651 q 642 679 611 679 q 769 735 717 679 q 825 875 824 789 q 710 828 761 828 q 597 896 649 828 l 583 856 q 582 853 582 854 q 581 849 582 851 q 529 716 553 775 q 482 611 506 657 q 390 775 417 740 q 221 881 321 874 l 219 876 q 101 824 147 872 q 54 703 54 775 l 54 690 l 56 686 l 56 688 q 56 685 56 686 q 57 683 57 685 q 58 676 57 678 q 72 635 58 658 q 113 697 86 671 q 168 724 140 724 q 269 664 221 724 l 269 665 q 297 624 281 651 q 335 557 313 597 q 349 528 342 540 q 360 506 356 517 q 363 496 360 501 q 224 517 294 496 l 167 378 q 194 382 182 378 l 256 392 q 315 399 283 396 q 382 401 346 401 q 312 244 340 310 q 268 136 283 178 q 246 140 256 136 q 229 142 231 140 l 224 142 q 85 86 139 142 q 19 -58 32 31 q 39 -46 35 -53 l 43 -44 l 49 -39 l 47 -39 q 129 -7 88 -7 q 211 -32 150 -7 q 219 -35 214 -33 q 226 -37 224 -37 l 229 -39 l 224 -36 q 254 -51 246 -46 l 258 -54 q 292 30 278 -6 q 314 82 307 65 q 321 101 319 100 l 321 100 q 322 104 322 103 q 324 108 322 106 q 329 121 326 115 l 331 125 q 372 236 331 136 q 400 303 389 276 q 418 342 411 329 q 455 239 435 289 q 500 140 475 189 q 638 -35 568 7 q 718 -58 672 -58 l 733 -58 l 843 115 z "},"Y":{"ha":738,"x_min":21,"x_max":728,"o":"m 728 779 l 728 792 l 718 792 l 715 789 q 712 788 713 789 q 710 788 711 788 l 711 788 q 694 781 704 785 q 681 778 683 778 q 551 888 625 778 l 551 871 q 462 798 500 826 q 399 756 424 769 l 399 871 l 349 871 l 349 717 q 318 693 331 700 q 315 691 315 692 q 311 689 314 690 q 172 871 308 871 q 67 825 117 871 q 21 722 21 779 q 49 656 21 685 q 68 708 49 683 q 111 732 88 732 l 117 732 l 118 731 l 119 731 q 142 716 132 722 q 156 703 151 710 l 156 521 q 124 515 138 518 q 101 510 110 513 q 39 403 39 486 q 88 315 39 329 l 88 328 l 89 331 q 128 367 89 358 q 156 349 149 357 l 156 114 q 203 8 156 51 q 240 -17 218 -7 q 286 -35 261 -28 q 194 -154 194 -71 q 235 -240 194 -204 q 278 -267 254 -258 q 325 -276 301 -275 l 328 -278 l 333 -278 q 463 -222 394 -278 l 465 -222 l 469 -218 l 468 -218 q 576 -169 538 -169 q 594 -178 586 -169 q 601 -196 601 -186 q 587 -222 601 -212 q 554 -232 572 -232 q 500 -221 536 -232 l 500 -264 q 556 -276 529 -276 l 560 -276 l 563 -275 q 603 -267 583 -275 q 638 -245 622 -258 q 663 -214 654 -232 q 672 -175 672 -196 q 594 -69 672 -96 q 570 -65 579 -67 q 554 -60 561 -62 q 552 -59 553 -60 q 550 -58 551 -58 l 544 -58 q 403 -103 475 -58 q 383 -116 390 -111 q 372 -124 375 -121 q 369 -125 371 -125 l 368 -126 l 369 -126 q 358 -132 363 -129 q 351 -136 354 -135 q 313 -147 315 -147 q 285 -125 285 -147 q 497 -46 285 -46 q 515 -43 508 -43 q 544 -33 532 -37 q 567 -26 557 -29 q 574 -24 569 -25 q 578 -24 579 -24 q 686 110 686 26 l 686 703 q 725 758 724 724 q 726 763 725 761 l 726 775 l 728 779 m 536 68 q 528 43 536 56 q 467 8 514 19 q 446 4 454 6 q 442 3 443 4 q 438 3 440 3 l 418 3 q 407 6 411 6 q 399 7 403 6 l 399 254 q 424 259 413 257 q 444 264 435 261 q 450 265 447 265 q 456 267 453 265 q 503 260 483 263 q 535 256 524 257 l 536 256 l 536 68 m 492 522 l 478 522 l 478 524 q 399 532 408 524 l 399 688 q 456 731 439 707 q 499 700 479 710 q 532 690 519 690 l 536 690 l 536 533 q 492 522 518 522 m 497 311 q 460 315 476 315 l 456 315 q 424 311 444 313 l 417 310 q 406 307 410 308 q 400 306 401 306 l 399 306 l 399 478 q 450 471 424 471 l 481 471 q 510 472 496 471 q 536 481 525 474 l 536 306 q 517 307 528 306 q 497 311 507 308 m 314 57 l 314 56 l 313 629 q 338 646 331 639 q 349 651 340 646 l 349 13 q 314 57 322 25 m 157 346 l 156 349 q 157 346 156 346 z "},"Z":{"ha":726,"x_min":19,"x_max":718,"o":"m 586 -58 q 549 -39 571 -49 q 493 -19 526 -29 q 399 0 428 0 l 386 0 q 361 1 376 0 q 335 3 346 3 l 319 3 q 119 -22 215 3 q 82 -34 104 -26 q 31 -53 60 -42 l 19 -17 q 258 388 156 103 q 219 383 242 386 q 169 376 197 381 q 130 365 149 369 q 92 357 111 360 l 151 506 q 299 488 210 488 q 479 738 349 600 q 225 676 333 676 q 92 715 129 676 l 65 689 l 36 718 l 169 882 q 225 851 182 872 q 403 814 308 814 q 654 876 547 814 l 675 849 q 643 809 663 836 q 593 740 624 782 q 526 615 556 676 q 478 492 497 554 q 501 493 486 492 q 536 497 515 494 l 596 504 l 594 504 q 625 508 611 508 l 622 508 l 625 510 q 638 510 632 510 q 651 513 644 511 l 664 513 l 596 375 l 442 389 q 408 321 426 354 q 371 254 390 288 q 219 81 304 151 q 483 135 365 135 q 619 117 549 135 l 658 106 l 682 133 l 718 110 l 586 -58 z "},"[":{"ha":499,"x_min":61,"x_max":504,"o":"m 447 -8 q 372 -25 407 -8 q 300 -74 336 -42 q 100 1 208 1 q 89 1 94 1 q 76 -1 83 0 l 61 -1 q 96 132 96 50 l 96 692 q 87 767 96 735 q 61 826 78 800 l 76 826 q 89 824 83 825 q 100 824 94 824 q 300 900 210 824 q 447 835 369 835 q 504 844 469 835 q 329 740 436 740 q 285 742 306 740 q 244 751 264 744 l 244 72 q 329 85 283 85 q 504 -18 439 85 q 447 -8 469 -8 z "},"\\":{"ha":446,"x_min":17,"x_max":467,"o":"m 235 544 l 233 708 l 235 710 l 233 710 q 247 715 243 711 l 250 717 l 251 719 q 339 689 281 689 q 354 690 351 689 q 422 719 389 692 q 467 782 456 746 l 449 782 l 446 781 l 449 781 q 357 828 401 781 q 340 847 346 840 q 331 856 333 853 q 107 726 224 726 l 93 726 q 79 729 86 726 l 79 715 l 81 713 q 85 700 83 706 q 88 692 86 694 l 88 693 l 89 554 l 88 554 q 74 556 75 554 q 54 557 56 556 q 25 561 35 557 l 25 536 l 26 533 l 26 525 l 28 521 l 28 485 q 26 456 26 478 l 36 456 l 39 457 q 89 461 76 457 l 89 106 q 17 15 33 81 q 33 19 25 18 q 47 21 40 21 l 50 22 l 53 22 q 225 -60 131 22 l 374 83 l 344 111 l 314 79 q 290 94 300 89 q 278 103 281 100 q 256 110 267 103 q 233 114 242 110 l 235 544 z "},"]":{"ha":499,"x_min":6,"x_max":449,"o":"m 408 1 q 208 -74 301 1 q 63 -8 139 -8 q 6 -18 39 -8 q 181 85 69 85 q 264 72 224 85 l 264 751 q 224 742 244 744 q 181 740 203 740 q 6 844 71 740 q 63 835 39 835 q 208 900 142 835 q 408 824 301 824 q 420 824 414 824 q 433 826 426 825 l 449 826 q 413 692 413 774 l 413 132 q 449 -1 413 50 l 433 -1 q 420 1 426 0 q 408 1 414 1 z "},"^":{"ha":807,"x_min":133,"x_max":683,"o":"m 408 844 l 221 360 l 133 360 l 372 957 l 444 957 l 683 360 l 597 360 l 408 844 z "},"_":{"ha":1189,"x_min":-11,"x_max":1213,"o":"m 1213 -6 q 1183 -21 1213 -21 l 17 -21 q -11 -6 -11 -21 q 17 8 -11 8 l 1183 8 q 1213 -6 1213 8 z "},"`":{"ha":494,"x_min":54,"x_max":379,"o":"m 379 726 q 342 674 358 703 q 313 610 326 646 q 190 701 269 654 q 122 740 156 724 q 54 769 88 757 q 94 825 76 793 q 125 893 111 857 q 176 848 144 871 q 247 800 207 825 q 316 761 283 776 q 376 735 349 746 l 379 726 z "},"a":{"ha":550,"x_min":7,"x_max":576,"o":"m 10 54 q 7 49 7 50 q 11 53 8 49 l 10 54 m 472 113 l 472 526 q 242 604 356 564 q 18 504 133 540 l 18 501 q 39 458 18 486 l 39 92 l 24 69 q 15 60 19 64 l 11 53 q 254 -86 126 39 l 347 13 l 453 -86 l 576 54 l 525 61 q 472 113 488 67 m 310 72 q 193 143 261 110 l 193 496 l 188 500 l 188 501 q 310 451 196 501 l 310 72 z "},"b":{"ha":564,"x_min":19,"x_max":556,"o":"m 556 503 q 514 435 550 463 l 514 38 q 520 21 514 31 q 538 -1 526 11 q 492 10 514 6 q 444 14 469 14 q 219 -58 313 14 q 54 14 142 14 l 53 14 l 51 13 l 43 13 l 40 11 l 19 11 q 85 93 32 71 l 83 697 l 83 696 q 64 735 74 721 l 63 735 l 58 739 l 58 740 l 57 742 l 57 760 l 67 750 l 69 750 l 71 749 q 163 774 117 749 q 194 796 169 779 q 257 840 218 813 q 236 778 242 800 q 231 750 231 756 l 231 464 l 403 579 q 519 501 447 501 l 524 501 q 532 506 525 501 l 531 504 q 540 507 533 507 q 546 508 542 508 q 548 509 547 508 q 550 510 549 510 l 556 503 m 364 58 l 364 408 l 363 408 q 354 410 357 408 q 347 413 350 410 q 300 447 310 431 l 231 403 l 233 108 q 331 54 278 96 l 331 51 l 340 54 q 364 58 347 56 z "},"c":{"ha":444,"x_min":15,"x_max":438,"o":"m 438 526 q 398 445 435 478 q 313 413 361 413 q 222 451 249 413 l 222 129 q 254 122 235 122 q 267 117 256 121 q 303 106 279 114 q 327 94 317 100 q 344 79 338 88 l 381 122 l 414 96 l 288 -60 q 76 21 192 21 q 15 -4 38 21 q 78 96 29 63 l 78 413 q 77 422 78 417 q 76 436 76 428 q 72 460 72 444 q 65 483 65 476 q 61 497 64 485 l 61 515 l 74 503 q 100 500 76 500 q 200 524 151 500 q 279 589 249 547 q 389 511 339 511 q 429 531 399 511 l 438 526 z "},"d":{"ha":560,"x_min":18,"x_max":551,"o":"m 551 519 l 540 506 q 496 526 518 506 l 497 526 q 491 532 494 529 q 485 538 488 535 q 468 553 475 546 q 456 565 461 560 l 424 599 l 421 603 l 276 746 l 242 781 l 242 779 q 206 844 215 815 q 135 817 171 826 q 63 807 99 807 q 47 808 49 807 q 22 821 35 808 l 22 801 q 85 735 67 750 q 108 716 97 724 q 124 704 118 708 q 174 661 149 685 q 222 613 199 638 l 281 549 q 108 500 211 500 l 104 500 l 101 501 l 85 501 l 82 503 l 65 503 q 93 442 93 464 l 93 110 q 18 3 31 78 q 100 29 54 29 q 235 -37 178 29 q 240 -43 238 -40 q 244 -49 242 -46 l 257 -60 q 449 31 331 31 q 550 4 506 31 l 540 24 q 539 29 539 26 l 538 31 l 538 32 l 536 35 q 535 42 535 36 l 533 43 l 532 50 q 531 53 532 51 l 531 51 l 529 56 l 529 58 q 528 63 528 60 l 528 460 q 538 479 529 468 l 538 482 q 542 488 540 485 q 547 493 544 490 l 549 496 l 551 499 l 551 519 m 374 74 l 367 74 l 365 72 l 361 72 l 358 69 l 357 69 l 354 67 q 288 114 326 94 q 260 122 269 119 q 246 125 250 124 l 236 128 l 236 467 q 319 513 282 476 l 375 456 l 375 75 l 374 74 m 538 478 l 540 483 q 538 479 538 481 l 538 478 m 536 481 l 536 482 l 536 481 z "},"e":{"ha":469,"x_min":14,"x_max":460,"o":"m 458 360 q 392 323 442 351 q 258 244 343 294 q 231 226 246 238 l 231 122 q 310 104 274 115 q 379 78 347 93 l 413 113 l 447 81 l 321 -58 l 307 -51 q 250 -23 278 -36 q 186 -3 222 -10 q 81 10 125 10 q 47 8 64 10 q 14 3 31 6 q 19 15 17 10 q 25 22 22 19 l 25 21 q 41 46 35 36 q 49 57 47 56 q 86 90 58 69 l 86 426 q 64 496 86 447 l 64 515 l 76 503 l 85 503 l 86 501 l 90 501 l 94 500 l 100 500 q 347 592 210 500 q 365 538 354 567 q 396 472 376 508 q 430 413 414 440 q 460 367 446 386 l 458 360 m 242 469 l 231 467 l 231 289 l 306 338 q 292 359 300 346 q 275 393 285 372 q 257 431 265 411 q 242 469 249 450 z "},"f":{"ha":446,"x_min":17,"x_max":465,"o":"m 460 782 l 449 782 l 446 781 l 449 781 q 357 828 401 781 q 340 848 346 842 q 331 857 333 854 q 107 726 222 726 l 93 726 q 79 729 86 726 l 79 715 l 81 713 q 85 700 83 706 q 88 692 86 694 l 88 693 l 89 554 l 88 554 q 74 556 75 554 q 54 557 56 556 q 25 561 35 557 l 25 536 l 26 533 l 26 525 l 28 521 l 28 485 q 26 456 26 478 l 36 456 l 39 457 q 89 461 76 457 l 89 106 q 17 15 33 81 q 33 19 25 18 q 47 21 40 21 l 50 22 l 53 22 q 225 -60 131 22 l 374 83 l 344 111 l 314 79 q 290 94 300 89 q 278 103 281 100 q 256 110 267 103 q 233 114 242 110 l 233 458 q 256 456 244 456 l 283 456 q 285 454 285 456 q 290 453 288 453 l 296 453 q 349 444 338 444 l 350 443 l 368 443 l 360 453 l 360 467 l 358 469 l 358 476 q 363 532 358 504 l 363 539 l 364 542 l 364 546 l 365 547 l 365 560 q 345 556 354 557 q 332 556 336 556 q 235 550 322 550 l 233 551 l 233 708 l 235 710 l 233 710 q 247 715 243 711 l 250 717 l 251 719 q 339 689 281 689 q 354 690 351 689 q 422 716 389 692 q 465 775 456 740 l 460 782 z "},"g":{"ha":579,"x_min":19,"x_max":569,"o":"m 546 -60 q 463 -131 528 -83 q 457 -135 460 -132 q 403 -173 424 -158 q 374 -197 382 -187 q 340 -229 358 -211 q 301 -267 321 -247 q 290 -260 292 -262 q 281 -251 288 -257 l 282 -251 q 269 -242 276 -247 q 256 -231 263 -237 l 257 -231 q 252 -227 254 -228 q 243 -222 250 -226 q 156 -199 213 -199 q 43 -236 106 -199 q 133 -126 68 -162 q 258 -93 192 -93 q 382 -124 339 -93 q 432 -51 432 -78 q 401 -4 432 -35 q 365 58 372 19 q 219 -60 279 14 q 89 25 154 25 q 81 24 82 25 q 35 14 68 24 q 19 13 32 13 q 42 65 19 35 q 61 89 53 81 q 76 100 69 97 l 76 460 q 74 468 75 463 q 72 474 72 471 q 69 481 71 476 q 60 503 63 499 l 60 518 q 111 504 79 504 l 115 503 l 122 503 q 325 554 217 503 q 353 568 333 558 q 397 593 372 578 q 511 511 446 511 l 515 511 q 542 524 526 517 q 569 539 558 532 q 550 474 567 501 q 506 429 533 447 l 506 144 q 539 63 506 106 l 540 60 l 539 60 l 546 54 l 547 51 l 546 51 q 569 -3 569 19 q 546 -60 569 -31 m 361 114 l 361 415 q 294 456 324 415 q 288 465 292 458 q 279 478 285 471 l 279 476 l 278 476 l 278 478 q 249 469 261 469 q 238 464 243 467 q 222 461 232 461 l 222 121 q 240 118 231 118 q 308 82 279 111 l 310 83 l 315 86 l 314 85 q 333 97 319 88 q 357 113 346 106 q 361 114 360 113 z "},"h":{"ha":592,"x_min":18,"x_max":583,"o":"m 579 517 q 578 506 579 513 q 529 433 563 453 l 531 72 l 531 74 q 561 17 542 42 l 561 18 l 564 15 l 564 14 l 567 11 l 560 1 q 488 15 533 15 q 411 -8 415 15 l 421 -18 l 413 -18 q 423 -29 415 -22 q 442 -46 431 -36 q 510 -158 510 -101 q 460 -242 510 -211 q 432 -254 440 -254 l 429 -256 l 421 -256 l 419 -257 l 414 -257 q 356 -217 372 -257 q 400 -169 400 -200 q 385 -126 400 -144 q 379 -112 381 -125 l 381 -114 q 354 -29 354 -75 q 371 13 354 3 l 371 14 q 386 47 386 29 l 386 407 q 347 424 372 407 q 314 447 319 442 l 313 449 l 251 403 l 251 115 q 264 111 257 114 q 281 106 271 108 q 319 82 303 94 q 346 56 335 69 l 218 -61 q 76 14 140 14 l 69 14 q 61 13 67 14 q 44 6 56 11 q 29 1 38 3 q 18 0 21 0 q 106 106 38 76 l 106 688 q 79 771 106 714 q 160 788 119 771 q 244 836 200 804 q 275 861 247 838 l 274 860 l 285 858 q 278 840 282 850 q 274 826 275 831 l 269 818 q 258 776 264 807 q 257 774 257 775 l 257 772 q 253 747 254 757 q 251 733 251 738 l 251 472 l 426 606 q 506 529 464 529 q 514 528 507 528 q 583 560 532 528 l 583 540 q 583 533 583 536 q 581 526 582 531 q 579 517 579 522 z "},"i":{"ha":344,"x_min":19,"x_max":338,"o":"m 218 -57 q 174 -48 196 -56 q 132 -24 151 -40 q 90 53 90 10 l 90 403 q 58 428 69 404 l 39 417 l 19 444 l 24 451 l 25 450 l 28 453 l 31 454 q 61 483 44 467 q 106 522 78 499 q 143 553 121 532 l 149 557 q 157 565 153 561 l 157 582 q 257 501 214 501 q 301 521 267 501 l 301 504 q 299 485 299 496 q 269 433 288 453 q 232 404 251 413 l 232 108 q 239 86 232 100 q 296 60 251 60 q 332 68 311 60 l 338 58 l 218 -57 m 181 594 l 169 594 l 169 596 l 156 596 l 153 597 q 88 640 100 597 l 65 629 l 47 660 q 71 677 58 671 q 94 689 83 683 l 92 686 q 103 695 96 689 q 118 707 111 701 q 141 724 128 714 q 169 744 154 733 q 244 692 206 692 q 256 695 251 694 q 268 699 261 696 l 267 699 l 269 701 l 271 701 l 272 703 l 274 703 l 275 704 l 285 704 l 285 692 q 276 655 285 672 q 252 624 267 638 q 219 603 238 611 q 181 594 200 594 z "},"j":{"ha":324,"x_min":18,"x_max":317,"o":"m 317 -14 q 236 113 317 36 q 231 117 231 114 l 231 406 q 296 486 274 424 q 300 506 297 499 l 300 522 q 246 503 265 503 q 156 583 213 503 l 156 568 q 147 560 151 564 l 142 556 q 120 535 129 543 q 104 524 111 528 q 60 484 76 500 q 29 456 43 468 l 26 454 l 24 451 l 22 453 l 18 444 l 38 418 l 56 429 q 89 404 69 406 l 89 51 q 101 39 93 43 q 120 22 113 29 q 135 8 128 15 q 144 -1 140 3 q 151 -7 149 -4 q 181 -62 181 -43 q 140 -136 181 -90 q 109 -181 121 -164 q 94 -208 97 -197 l 94 -207 q 92 -232 92 -218 l 92 -242 l 103 -254 l 103 -265 l 143 -265 l 143 -251 l 142 -251 q 166 -204 144 -231 q 228 -143 188 -178 q 256 -117 244 -128 q 274 -99 267 -106 q 317 -14 317 -54 m 282 694 l 282 706 l 274 706 l 272 704 l 271 704 l 269 703 l 268 703 l 265 700 l 267 700 q 254 697 260 697 q 243 694 249 696 q 168 746 204 694 q 140 725 153 735 q 117 708 126 715 q 101 697 110 703 q 90 689 93 692 l 93 692 q 69 680 82 686 q 46 663 57 674 l 64 631 l 86 642 q 151 599 97 599 l 154 597 l 168 597 l 168 596 l 179 596 q 217 604 199 596 q 249 626 235 613 q 273 657 264 639 q 282 694 282 675 m 103 -265 l 99 -265 l 99 -261 l 96 -258 q 100 -271 99 -271 l 100 -272 q 103 -265 101 -272 m 100 -262 l 99 -258 l 99 -261 l 100 -262 z "},"k":{"ha":571,"x_min":21,"x_max":564,"o":"m 431 -67 q 333 19 365 -46 q 318 60 328 31 q 293 143 308 90 q 281 177 288 157 q 260 226 274 197 l 229 206 l 229 104 q 233 101 232 101 q 239 100 236 101 l 240 99 q 246 96 243 97 q 251 93 249 94 q 266 84 258 89 q 281 74 274 79 q 293 60 288 68 q 306 43 299 53 l 192 -64 q 35 14 132 13 l 33 13 l 21 13 q 78 94 21 63 l 78 686 q 46 739 78 710 l 46 758 l 58 746 l 67 746 l 68 744 l 71 744 q 247 835 133 744 l 254 828 q 247 810 247 817 q 242 794 242 804 q 229 738 229 779 l 229 461 l 396 583 q 510 390 431 493 l 376 304 q 403 254 390 281 q 426 203 415 228 q 439 169 433 185 q 451 138 444 154 q 485 75 471 92 q 522 58 500 58 q 553 63 544 58 l 557 67 l 564 57 l 431 -67 m 303 447 l 229 397 l 229 265 l 361 353 q 340 385 354 363 q 303 447 325 408 z "},"l":{"ha":332,"x_min":17,"x_max":325,"o":"m 188 -58 q 17 28 115 4 q 83 97 49 79 l 83 664 l 75 707 q 74 709 75 708 q 74 711 74 710 l 74 710 q 72 719 72 713 l 69 724 l 68 725 q 67 732 68 729 l 65 735 l 65 753 q 78 748 74 749 q 86 747 82 747 q 239 831 135 747 l 246 825 q 236 799 240 814 q 226 764 232 783 q 217 704 217 725 l 217 111 q 261 82 233 103 l 260 83 l 261 83 l 264 82 q 272 72 271 75 l 276 68 l 297 88 l 325 51 l 188 -58 z "},"m":{"ha":893,"x_min":21,"x_max":892,"o":"m 747 -71 l 739 -71 q 706 -63 722 -71 q 676 -43 689 -56 q 656 -15 664 -31 q 647 17 647 1 l 647 390 l 643 390 q 638 393 640 392 q 631 396 635 394 q 625 399 628 397 q 578 435 596 411 l 524 394 l 524 97 q 553 79 533 93 q 610 42 574 65 l 490 -74 q 353 0 408 0 q 304 -17 329 0 q 378 86 318 43 l 378 379 q 339 449 378 422 l 249 379 l 249 97 q 260 92 254 94 q 274 88 267 90 q 306 69 294 79 q 325 46 318 58 l 201 -74 q 81 0 149 0 q 28 -12 49 0 q 56 44 35 15 q 103 83 78 72 l 103 385 q 21 440 103 421 l 21 450 l 154 588 q 261 454 240 550 l 428 588 q 528 464 510 540 l 678 581 q 771 506 736 506 q 840 531 803 506 l 840 507 q 840 503 840 506 q 839 499 839 501 q 838 492 839 496 q 838 485 838 489 q 825 451 835 465 q 800 421 815 436 l 800 101 q 813 76 800 88 q 840 64 826 64 q 867 69 849 64 l 865 69 l 868 71 l 871 71 l 874 74 l 892 74 l 747 -71 z "},"n":{"ha":586,"x_min":-6,"x_max":574,"o":"m 532 499 q 536 490 536 497 q 519 449 536 479 l 519 46 l 574 46 q 447 -83 560 46 q 322 54 442 -60 l 354 54 l 354 440 l 300 486 l 229 432 l 229 51 l 289 51 q 165 -51 197 -3 q 138 -87 140 -87 q 136 -86 136 -87 l 138 -83 q 8 40 125 -28 l 6 49 l 60 49 l 60 410 q -6 489 40 486 l 117 581 q 219 507 206 529 q 363 583 251 510 l 381 597 q 532 499 475 522 z "},"o":{"ha":550,"x_min":8,"x_max":535,"o":"m 503 100 q 535 49 511 60 q 294 -72 385 26 q 14 32 214 11 q 8 36 8 32 q 25 65 8 44 q 60 108 49 97 l 60 460 q 38 504 38 488 l 38 506 q 271 589 182 514 q 529 500 431 510 q 503 457 503 469 l 503 100 m 340 438 q 214 485 228 485 q 211 483 211 485 l 211 118 q 340 72 233 94 l 340 438 z "},"p":{"ha":622,"x_min":21,"x_max":614,"o":"m 550 426 l 550 69 q 554 56 550 61 q 568 29 554 49 l 572 21 q 550 22 560 21 q 533 26 540 22 l 526 26 q 308 -58 419 26 l 303 -54 l 301 -51 l 303 -53 q 284 -33 294 -43 q 260 -11 274 -22 l 260 -122 q 288 -203 260 -161 q 269 -199 279 -200 q 253 -197 260 -197 q 136 -233 211 -197 l 136 -232 q 113 -246 128 -237 q 85 -261 99 -254 l 79 -254 q 104 -200 101 -224 q 106 -196 106 -197 q 107 -187 106 -194 l 107 -182 l 108 -179 l 108 25 l 103 25 q 88 20 96 22 q 71 15 81 18 l 72 15 l 53 6 q 42 1 51 6 q 32 -4 39 0 q 21 -11 25 -8 q 46 68 21 28 q 108 125 71 108 l 108 401 q 90 431 108 419 q 49 442 71 442 l 47 440 l 36 440 l 35 439 l 21 439 l 21 450 l 169 607 q 246 535 228 579 q 256 494 253 518 q 260 436 260 469 l 467 601 q 484 576 474 590 q 510 546 494 563 q 563 513 540 513 q 574 511 564 511 q 581 513 579 511 q 599 518 593 513 l 601 518 l 604 521 l 614 521 l 614 510 q 594 460 614 486 q 550 426 574 433 m 389 54 l 399 58 l 399 425 q 350 450 375 425 l 260 378 l 264 139 q 306 124 274 138 q 389 54 360 96 z "},"q":{"ha":575,"x_min":17,"x_max":565,"o":"m 565 496 q 504 401 560 432 l 504 -137 q 508 -164 504 -143 q 518 -215 511 -185 q 542 -261 525 -239 l 535 -269 q 519 -264 525 -264 q 474 -247 486 -247 q 470 -247 472 -247 q 467 -246 468 -246 q 464 -244 465 -244 q 356 -219 403 -219 q 346 -222 349 -219 l 339 -215 l 343 -207 l 342 -208 l 350 -183 q 360 -129 360 -158 l 360 39 l 217 -58 q 78 15 135 15 q 57 10 72 15 q 17 -3 42 6 q 37 52 19 22 q 75 96 54 82 l 75 422 q 67 465 71 443 q 63 483 65 469 q 60 503 61 497 q 92 486 76 486 q 110 485 93 485 q 122 483 111 483 q 261 506 189 483 q 411 578 333 529 q 518 490 471 490 q 551 499 540 490 l 553 499 l 556 501 l 560 501 l 565 496 m 310 72 l 360 108 l 360 396 q 292 446 325 403 q 288 450 288 446 l 283 454 q 281 453 282 454 q 279 453 281 453 l 281 454 q 272 451 278 451 q 263 449 261 449 q 222 439 244 439 l 221 439 l 221 121 q 235 114 226 118 q 263 103 244 110 q 310 72 289 92 z "},"r":{"ha":535,"x_min":10,"x_max":519,"o":"m 146 600 q 246 526 232 549 l 250 526 q 267 531 256 526 q 369 589 301 543 l 389 603 q 519 521 460 538 q 486 469 515 492 q 418 444 460 449 q 400 443 408 443 q 294 460 354 443 q 272 463 282 463 q 249 446 249 463 l 249 65 l 308 65 q 183 -37 217 11 q 154 -75 158 -75 l 154 -72 l 153 -71 q 150 -62 151 -67 q 133 -35 144 -50 q 26 54 100 11 l 25 63 l 79 63 l 79 424 q 10 494 56 492 l 146 600 z "},"s":{"ha":554,"x_min":18,"x_max":544,"o":"m 544 564 q 392 333 508 453 l 522 336 q 522 331 522 335 q 521 325 521 326 q 519 318 519 322 l 518 317 l 518 314 l 515 311 l 515 308 l 514 306 q 513 301 514 303 q 513 299 513 300 l 513 300 q 510 290 511 296 l 508 285 l 508 49 q 510 44 508 46 l 510 40 l 511 38 l 511 39 q 513 36 513 38 l 514 29 l 513 32 l 511 33 q 514 28 511 32 q 522 14 518 21 l 528 3 q 510 4 513 3 l 511 4 q 507 6 510 6 q 479 6 490 6 q 461 11 468 7 q 436 13 440 11 l 428 13 q 254 -60 322 13 l 214 -19 q 193 -5 203 -10 q 171 0 183 0 q 147 4 163 4 q 58 -57 83 4 l 18 -57 q 57 42 29 -8 q 132 151 85 93 l 138 157 q 148 168 142 161 q 163 183 154 175 l 71 188 l 81 197 l 79 193 q 92 228 92 210 l 93 231 l 92 472 q 91 474 92 474 q 90 476 90 475 l 90 475 q 89 482 89 476 l 85 492 l 85 493 q 82 501 82 496 l 82 514 q 111 501 96 501 q 160 496 121 496 q 174 494 161 494 q 297 526 238 494 q 353 579 303 529 q 436 528 397 528 q 501 568 476 528 l 539 571 l 544 564 m 365 60 l 365 235 l 363 238 l 292 238 l 219 165 q 197 141 210 156 q 167 108 185 126 q 196 113 183 111 q 215 115 208 115 q 339 51 288 115 l 344 54 l 349 56 q 358 58 351 56 l 364 58 l 365 60 m 411 428 q 361 418 388 418 q 269 458 321 418 q 264 456 265 457 l 258 456 q 243 451 250 451 l 243 276 l 258 276 q 290 303 269 283 q 342 354 310 322 q 411 428 389 404 z "},"t":{"ha":357,"x_min":19,"x_max":350,"o":"m 221 -31 q 81 38 149 38 q 33 14 49 38 l 33 33 q 44 65 33 38 q 97 125 64 107 l 97 461 l 74 461 q 51 453 64 456 q 39 449 50 451 l 38 446 l 35 446 l 19 438 l 19 447 q 21 456 19 453 l 21 460 l 22 463 q 24 471 22 468 l 24 481 q 24 489 24 485 q 26 499 25 493 l 26 507 l 25 511 l 25 524 q 19 574 19 539 q 49 560 38 564 q 68 554 61 556 q 86 556 71 556 l 97 556 l 97 618 l 96 621 l 96 636 q 93 640 94 638 q 91 647 92 643 q 89 653 90 650 l 89 654 q 86 665 86 657 l 96 668 l 97 665 l 104 665 l 104 664 q 251 750 182 664 l 251 732 l 250 731 q 248 722 249 728 q 244 708 247 717 l 244 707 q 243 700 244 703 q 238 667 238 678 l 238 556 l 281 556 l 283 554 q 332 574 306 554 l 332 558 q 331 550 331 556 q 326 515 326 543 l 328 515 q 335 438 328 486 l 319 446 l 318 447 l 317 447 q 282 456 301 453 q 238 461 263 460 l 238 142 q 260 132 247 132 l 264 131 q 269 128 268 129 q 278 124 274 124 q 281 122 279 122 q 285 119 283 121 l 283 119 q 294 112 288 117 q 308 103 300 107 l 322 117 l 350 85 l 221 -31 z "},"u":{"ha":643,"x_min":21,"x_max":633,"o":"m 633 64 l 628 74 q 596 65 607 65 l 593 64 l 590 64 q 524 135 524 64 l 524 407 q 593 511 593 428 l 583 511 l 582 510 l 579 510 l 578 508 l 575 508 l 574 507 l 571 504 q 550 501 563 501 q 449 576 519 501 q 299 457 343 471 l 325 418 l 353 432 q 362 422 358 425 q 368 415 365 418 l 372 414 l 375 413 l 376 413 l 379 119 l 371 115 q 363 111 367 111 q 346 97 351 103 q 335 89 340 92 l 335 90 q 331 88 332 89 q 328 85 331 86 l 325 83 l 322 81 q 308 91 317 85 q 286 106 299 97 l 285 107 l 288 106 q 293 104 292 104 q 250 121 258 114 l 250 461 q 156 588 250 539 l 21 449 l 21 439 l 33 439 q 39 438 36 439 q 56 433 46 435 q 72 429 65 432 l 71 431 q 100 400 93 418 l 100 103 q 39 7 51 78 q 85 21 57 21 q 231 -60 143 21 q 265 -27 250 -40 q 292 -4 279 -14 q 339 29 319 15 q 374 53 358 43 q 377 56 376 54 q 381 58 378 57 q 504 -58 396 -32 l 633 64 z "},"v":{"ha":585,"x_min":21,"x_max":575,"o":"m 574 488 l 574 479 l 572 476 q 559 444 572 460 q 522 410 546 428 l 522 69 q 526 51 522 57 l 544 7 l 542 8 l 542 0 q 503 1 508 0 l 494 1 q 424 -8 465 1 q 325 -35 382 -17 q 210 -60 246 -60 q 150 -51 171 -60 q 94 54 94 -31 l 94 407 q 78 433 94 418 q 49 447 61 447 l 46 447 l 42 449 l 32 449 l 29 450 l 21 450 l 21 460 l 167 576 q 236 517 211 567 q 243 486 243 504 l 243 101 q 267 53 243 71 q 325 36 290 36 q 374 67 374 36 l 374 401 q 331 433 346 410 l 311 421 l 289 456 l 439 569 q 542 496 494 496 q 575 508 556 496 l 575 490 l 574 488 z "},"w":{"ha":851,"x_min":18,"x_max":842,"o":"m 842 504 q 782 410 836 442 l 782 72 q 796 32 782 51 q 811 8 796 31 q 782 10 786 8 l 779 10 q 579 -36 679 10 q 559 -45 571 -39 q 529 -60 547 -51 q 448 -30 488 -57 q 385 35 408 -3 q 325 -1 350 13 q 313 -7 314 -6 l 310 -10 l 307 -11 q 296 -18 304 -12 l 296 -17 q 275 -32 290 -21 q 239 -58 260 -43 q 160 -3 199 -22 q 78 17 121 17 l 75 17 l 72 15 q 59 14 67 15 q 44 10 51 13 q 101 90 58 58 l 103 93 l 104 93 l 104 393 q 54 435 83 435 l 51 435 l 47 436 l 36 436 l 33 438 l 29 438 l 18 444 l 158 585 q 228 535 200 569 q 256 457 256 500 l 256 113 q 278 107 263 107 q 286 103 285 104 q 294 100 288 103 q 322 86 310 93 q 343 72 335 79 l 349 78 q 352 81 350 79 q 356 83 354 82 q 374 92 365 86 l 374 401 q 350 437 374 421 q 301 453 326 453 l 301 464 l 443 586 q 515 518 500 557 q 517 511 517 515 q 521 503 518 507 q 525 488 522 499 l 525 125 q 571 54 525 76 q 582 49 575 51 q 594 44 589 47 l 596 44 q 597 43 596 43 l 613 43 q 638 69 638 43 l 638 406 q 596 438 618 411 l 579 431 l 558 464 l 711 576 q 790 500 746 504 q 804 499 792 499 q 810 500 807 499 l 811 500 l 811 501 q 817 503 814 503 q 825 504 819 503 q 835 510 828 507 l 842 504 z "},"x":{"ha":754,"x_min":10,"x_max":739,"o":"m 164 586 q 183 588 174 588 q 294 528 242 588 l 318 499 l 340 469 q 386 422 368 436 q 425 465 404 438 l 460 514 q 557 579 504 571 q 576 581 567 581 q 636 550 617 581 q 647 518 647 533 q 639 494 647 506 q 621 483 631 483 q 592 499 608 483 q 567 510 579 510 q 557 508 561 510 q 489 438 543 504 q 435 357 435 371 l 438 354 q 538 225 446 338 q 639 107 628 115 l 643 101 l 650 101 q 690 121 668 101 l 711 136 q 733 142 721 142 l 739 142 l 739 133 q 694 42 739 97 q 614 -28 649 -14 q 560 -39 586 -39 q 428 36 490 -39 l 394 79 l 363 124 q 300 190 326 174 q 244 131 288 183 q 185 56 206 85 l 172 35 l 158 15 q 124 -15 142 -6 q 101 -21 113 -21 q 74 -14 89 -21 q 36 18 51 -1 q 19 49 28 29 q 10 89 11 72 l 10 94 q 26 118 10 118 q 60 107 39 118 l 72 100 l 86 94 q 107 90 97 90 q 117 92 113 90 q 190 168 128 96 q 256 249 254 240 q 257 256 257 251 q 254 267 257 261 q 193 351 244 286 q 117 438 140 419 l 114 440 q 107 442 110 442 q 68 425 92 442 l 46 413 q 31 411 39 411 q 14 413 22 411 q 39 479 15 442 q 65 522 47 493 q 88 553 85 550 q 164 586 114 581 z "},"y":{"ha":597,"x_min":21,"x_max":588,"o":"m 586 507 l 586 500 l 585 499 q 578 477 585 489 q 564 454 572 465 q 544 434 556 443 q 524 421 533 425 l 524 50 q 403 -50 524 -22 q 372 -55 386 -53 q 346 -57 357 -57 l 338 -57 q 325 -58 336 -57 q 178 -125 178 -69 q 204 -146 178 -146 q 289 -106 217 -146 q 414 -67 358 -67 q 497 -97 463 -67 q 532 -174 532 -128 q 502 -240 532 -214 q 429 -267 472 -267 q 379 -256 390 -267 l 379 -208 q 422 -221 401 -221 l 424 -221 l 426 -219 l 431 -219 q 450 -212 439 -219 q 461 -197 461 -206 q 443 -183 461 -183 l 440 -182 l 439 -182 q 353 -215 407 -182 q 298 -247 321 -236 q 263 -261 275 -258 q 246 -263 256 -262 q 221 -264 236 -264 q 175 -255 197 -264 q 136 -231 153 -246 q 109 -195 119 -215 q 99 -151 99 -175 l 99 -144 l 100 -144 q 171 -40 103 -74 q 121 -6 143 -28 q 88 57 88 25 l 88 419 q 21 458 88 451 l 21 468 l 169 585 q 190 569 179 579 q 211 547 201 560 q 235 500 235 515 l 236 497 l 236 489 l 238 488 l 238 433 l 446 574 q 540 515 489 515 l 543 515 l 544 517 q 588 532 568 517 l 588 510 l 586 507 m 371 28 l 371 407 q 360 411 365 408 q 347 417 354 414 l 324 428 l 239 369 l 239 36 q 288 -1 239 8 l 293 -1 q 296 -2 294 -1 q 300 -3 297 -3 q 302 -3 301 -3 q 304 -4 303 -4 l 313 -4 l 315 -3 q 353 5 335 -3 q 371 28 371 13 z "},"z":{"ha":511,"x_min":18,"x_max":506,"o":"m 343 329 q 356 328 349 328 l 375 328 q 388 328 379 328 q 407 331 396 329 q 422 333 414 332 q 433 333 429 333 l 435 335 l 442 335 l 443 336 l 461 336 q 431 285 442 310 q 419 236 419 261 l 421 235 l 421 218 q 408 219 418 218 q 385 222 397 221 q 341 226 367 225 q 279 232 315 228 l 222 147 q 283 170 258 163 q 328 178 308 178 q 419 142 382 178 q 456 53 456 107 q 426 -37 456 6 q 375 -106 414 -57 q 372 -110 372 -108 q 368 -114 371 -111 l 368 -112 q 350 -135 358 -122 l 343 -142 q 333 -156 336 -150 l 232 -275 q 166 -227 196 -243 q 111 -211 136 -211 q 47 -236 81 -211 l 49 -236 q 38 -245 42 -243 q 32 -249 35 -247 l 31 -249 l 18 -262 q 71 -147 28 -196 q 174 -89 114 -99 q 194 -87 176 -87 q 282 -125 242 -87 q 322 -21 322 -81 l 322 -18 l 321 -17 l 321 -10 q 293 42 321 14 q 265 63 278 56 q 239 71 253 71 q 174 46 214 71 q 119 -6 138 18 l 92 -49 l 49 -19 l 217 229 l 185 229 q 122 226 149 229 q 78 215 94 222 q 115 346 115 265 q 218 325 149 325 l 268 325 q 282 326 271 326 l 357 439 q 281 406 319 415 q 206 396 243 396 q 33 467 118 396 l 163 600 q 315 511 233 511 q 435 565 381 511 l 435 564 q 445 577 439 571 q 460 593 451 583 l 506 572 l 343 329 z "},"{":{"ha":676,"x_min":160,"x_max":567,"o":"m 567 -333 q 365 -262 453 -329 q 271 -93 271 -192 q 275 -35 271 -68 q 286 39 279 -1 q 303 126 297 93 q 308 167 308 158 q 264 272 308 225 q 160 338 221 318 l 160 379 q 308 550 308 428 q 303 591 308 558 q 286 678 297 624 q 275 753 279 719 q 271 811 271 786 q 365 981 271 910 q 567 1051 453 1047 l 567 1007 q 456 936 494 990 q 422 824 422 888 q 424 776 422 804 q 432 708 426 747 q 440 599 440 631 q 360 428 440 496 q 308 392 338 410 q 240 358 279 375 q 360 286 317 321 q 440 118 440 218 q 432 8 440 85 q 424 -59 426 -31 q 422 -106 422 -87 q 456 -218 422 -171 q 567 -289 493 -272 l 567 -333 z "},"|":{"ha":243,"x_min":106,"x_max":147,"o":"m 106 1094 l 147 1094 l 147 -293 l 106 -293 l 106 1094 z "},"}":{"ha":676,"x_min":121,"x_max":528,"o":"m 417 -93 q 322 -262 417 -189 q 121 -333 235 -329 l 121 -289 q 231 -218 196 -272 q 265 -106 265 -168 q 263 -59 265 -87 q 256 8 261 -31 q 248 74 250 47 q 246 118 246 101 q 328 286 246 217 q 377 322 347 304 q 444 358 407 339 q 328 428 369 392 q 246 599 246 497 q 248 642 246 614 q 256 708 250 669 q 263 776 261 747 q 265 824 265 804 q 231 936 265 886 q 121 1007 193 990 l 121 1051 q 322 981 235 1047 q 392 902 368 944 q 417 811 417 860 q 400 678 417 761 q 384 591 389 624 q 379 550 379 558 q 528 379 379 428 l 528 338 q 469 310 494 326 q 424 272 443 294 q 379 167 379 228 q 384 126 379 158 q 400 39 389 93 q 417 -93 417 -43 z "},"~":{"ha":811,"x_min":33,"x_max":783,"o":"m 603 235 q 407 283 556 235 q 279 322 328 310 q 215 335 231 335 q 158 315 185 335 q 107 226 124 289 l 33 226 q 55 294 44 265 q 81 340 65 322 q 215 408 138 408 q 496 333 254 408 q 600 308 571 308 q 710 418 681 308 l 783 418 q 682 258 754 303 q 603 235 642 235 z "},"":{"ha":315,"x_min":63,"x_max":267,"o":"m 267 44 q 108 -118 267 -54 l 93 -97 q 138 -31 138 -65 q 63 46 138 13 q 128 103 99 75 q 182 161 158 132 q 267 44 267 101 z "},"":{"ha":532,"x_min":-107,"x_max":582,"o":"m 449 731 q 367 810 414 786 l 338 543 l 510 543 l 432 436 l 325 436 l 278 -26 l 61 -233 q -22 -212 19 -229 q -107 -161 -64 -194 l 6 -24 q 50 -64 25 -49 q 106 -87 75 -79 l 163 436 l 26 436 l 108 543 l 175 543 l 200 783 l 419 957 q 509 915 468 943 q 582 846 550 886 l 457 729 l 449 731 z "},"":{"ha":564,"x_min":64,"x_max":522,"o":"m 522 44 q 358 -118 522 -56 l 340 -99 q 388 -31 388 -64 q 310 46 388 13 q 432 161 388 106 q 522 44 522 103 m 275 44 q 111 -118 275 -56 l 96 -97 q 142 -31 142 -65 q 64 46 142 13 q 131 103 100 75 q 188 161 163 132 q 275 44 275 103 z "},"":{"ha":722,"x_min":17,"x_max":717,"o":"m 608 -58 l 497 44 l 608 153 l 717 44 l 608 -58 m 368 -58 l 257 44 l 368 153 l 476 44 l 368 -58 m 128 -58 l 17 44 l 128 153 l 235 44 l 128 -58 z "},"":{"ha":529,"x_min":-7,"x_max":550,"o":"m 353 564 l 353 275 q 357 63 353 143 q 358 53 357 60 q 364 36 360 46 l 175 -69 q 185 69 182 -11 q 189 254 189 150 l 189 564 l -7 564 l 72 676 l 189 676 q 185 794 188 747 q 178 865 182 842 l 361 971 q 355 840 357 915 q 353 676 353 764 l 550 676 l 468 564 l 353 564 z "},"":{"ha":497,"x_min":60,"x_max":444,"o":"m 444 697 q 369 614 415 668 q 254 726 310 683 q 138 614 196 685 q 95 663 115 642 q 60 701 75 685 q 141 772 93 726 q 254 885 189 818 q 365 774 318 818 q 443 706 413 729 l 444 697 z "},"":{"ha":1192,"x_min":21,"x_max":1182,"o":"m 361 735 q 349 706 361 719 q 324 689 338 692 l 324 386 l 326 383 q 333 365 331 371 l 335 364 l 335 357 l 336 354 l 336 339 q 264 351 313 351 l 253 351 l 215 346 q 132 306 174 340 q 88 336 115 322 q 75 340 83 338 q 63 344 71 342 l 58 344 l 56 346 l 53 346 l 51 344 l 40 344 l 38 343 q 32 342 36 342 l 31 340 l 21 340 l 21 351 q 35 380 21 363 q 63 404 49 397 l 63 703 q 50 732 50 711 l 50 736 l 51 738 l 51 754 l 64 742 l 67 742 l 68 740 q 88 738 76 738 l 92 736 l 97 736 q 256 793 199 736 q 325 743 299 743 l 326 743 l 329 744 q 335 746 332 744 q 338 747 336 746 q 343 747 340 747 l 346 747 l 347 749 l 350 749 l 351 750 l 361 750 l 361 735 m 1182 381 q 1170 353 1182 367 q 1144 336 1158 339 l 1144 36 l 1150 24 l 1153 21 q 1154 13 1154 18 l 1156 10 l 1156 7 l 1157 6 l 1157 -10 q 1131 -3 1143 -6 q 1107 0 1118 0 l 1049 0 q 1027 -4 1040 0 q 1001 -15 1014 -8 q 975 -28 988 -21 q 956 -43 963 -36 l 953 -42 l 954 -40 l 951 -39 q 933 -26 944 -33 q 910 -10 921 -18 q 874 -1 885 -1 l 868 -1 l 868 -3 q 861 -4 864 -4 q 851 -7 858 -4 l 853 -7 l 846 -10 q 840 6 840 -4 q 846 15 842 8 q 856 32 850 22 l 863 36 q 881 50 869 40 l 879 50 l 881 51 l 882 51 l 882 353 q 871 378 871 361 l 871 382 l 872 383 l 872 400 l 885 388 l 888 388 l 889 386 l 896 386 l 899 385 l 901 385 q 915 383 903 383 l 918 382 l 922 382 q 1078 442 1018 382 q 1089 429 1085 435 q 1100 415 1093 424 l 1100 417 q 1104 412 1103 414 q 1107 408 1106 410 q 1139 390 1122 393 l 1140 389 l 1144 389 q 1161 392 1150 389 l 1163 392 l 1165 394 l 1169 394 l 1172 397 l 1182 397 l 1182 381 m 836 381 q 824 353 836 367 q 799 336 813 339 l 799 36 l 804 24 l 807 21 q 808 13 808 18 l 810 10 l 810 7 l 811 6 l 811 -10 q 786 -3 799 -6 q 763 0 774 0 l 703 0 q 682 -4 694 0 q 656 -15 669 -8 q 630 -28 642 -21 q 611 -43 618 -36 l 608 -42 l 610 -40 l 607 -39 q 588 -26 600 -33 q 564 -10 575 -18 q 528 -1 539 -1 l 522 -1 l 522 -3 q 515 -4 518 -4 q 507 -7 514 -4 l 508 -7 l 501 -10 q 496 6 496 -4 q 501 15 497 8 q 510 32 506 22 l 517 36 q 535 50 524 40 l 533 50 l 535 51 l 536 51 l 536 353 q 525 378 525 361 l 525 382 l 526 383 l 526 400 l 539 388 l 542 388 l 543 386 l 550 386 l 553 385 l 556 385 q 569 383 557 383 l 572 382 l 576 382 q 732 442 672 382 q 744 429 739 435 q 756 415 749 424 l 756 417 q 760 412 758 414 q 763 408 761 410 q 794 390 778 393 l 796 389 l 799 389 q 815 392 804 389 l 817 392 l 819 394 l 824 394 l 826 397 l 836 397 l 836 381 m 838 781 q 830 775 835 778 q 817 764 825 772 l 814 763 l 814 764 q 749 709 778 736 q 697 654 721 682 l 233 81 l 233 82 q 192 11 194 32 q 206 0 193 10 l 39 -28 q 116 41 83 10 q 168 96 149 72 l 667 722 q 690 751 689 744 l 689 753 l 688 753 l 688 757 l 686 758 l 686 771 l 849 790 l 838 781 m 232 383 l 232 683 q 203 697 222 683 q 182 713 188 707 l 174 713 l 171 711 q 165 710 168 711 q 157 710 161 710 q 149 708 154 708 l 149 415 q 175 401 160 410 q 211 379 190 392 l 213 381 l 218 381 l 219 382 l 231 382 l 232 383 m 1054 32 l 1054 332 q 1001 361 1031 332 l 999 361 l 997 360 l 994 360 l 993 358 l 985 358 q 976 357 981 358 q 972 356 974 357 q 969 356 971 356 l 969 63 q 989 51 976 58 q 1021 33 1001 44 l 1019 35 q 1022 33 1021 35 q 1033 28 1026 31 l 1038 28 l 1039 29 l 1044 29 l 1046 31 l 1053 31 l 1054 32 m 708 32 l 708 332 q 656 361 685 332 l 653 361 l 653 360 l 650 360 l 649 358 l 640 358 q 632 357 636 358 q 628 356 629 357 q 625 356 626 356 l 625 63 q 644 51 632 58 q 675 33 657 44 l 674 35 q 676 33 675 35 q 688 28 681 31 l 692 28 l 693 29 l 699 29 l 700 31 l 707 31 l 708 32 z "},"":{"ha":881,"x_min":15,"x_max":872,"o":"m 872 425 q 721 585 872 544 q 643 599 678 599 q 551 603 582 600 q 651 722 603 676 q 669 739 661 732 q 685 753 678 746 l 710 778 l 708 778 q 726 796 718 783 l 692 828 l 653 796 q 521 854 590 835 q 488 861 500 858 q 468 864 475 864 l 465 864 q 443 865 444 864 l 415 865 q 396 864 414 864 q 388 863 392 863 q 342 856 365 861 q 292 839 318 850 q 124 615 124 767 q 139 542 124 572 q 390 454 178 454 l 396 454 l 386 432 l 383 432 l 382 431 q 218 446 276 431 q 104 554 125 472 q 57 443 57 508 q 71 376 57 403 q 172 307 96 331 q 294 290 231 290 l 311 290 l 314 292 l 318 292 l 318 289 q 310 274 310 278 q 301 261 304 267 q 296 253 299 256 q 278 233 288 242 q 261 218 268 225 q 174 288 250 288 l 169 288 l 168 286 q 157 284 161 286 q 146 279 153 282 q 101 215 101 254 l 100 214 q 171 132 100 154 q 188 129 182 129 q 365 257 282 129 q 377 277 372 269 q 385 290 382 285 l 390 290 q 400 292 394 290 l 472 292 q 631 231 631 292 l 629 228 q 625 210 629 219 q 623 203 624 207 q 621 197 622 200 l 622 199 l 608 179 q 700 265 676 201 q 713 303 710 292 q 713 307 713 306 q 714 311 714 308 q 718 329 715 326 q 678 404 713 383 q 528 433 636 433 l 519 433 q 476 432 518 432 q 468 431 475 431 l 454 431 l 465 454 l 472 454 q 483 456 476 454 l 574 456 q 726 399 688 456 q 750 343 750 367 q 701 218 750 288 q 672 178 693 204 q 615 108 650 151 q 500 140 525 139 q 468 144 482 143 q 443 147 454 146 q 432 149 436 149 q 422 150 428 150 q 368 146 393 147 q 281 133 324 143 q 129 69 196 111 q 15 -65 46 17 q 207 10 100 -10 q 258 18 253 18 q 571 -60 382 18 l 576 -50 q 583 -35 581 -40 q 585 -29 585 -32 q 588 -21 585 -28 q 635 40 614 13 q 671 83 657 68 q 701 122 686 104 q 729 156 715 140 q 776 211 757 186 q 860 350 839 289 q 872 425 872 385 m 644 1122 q 610 1158 629 1138 q 569 1207 592 1179 q 508 1142 538 1171 q 451 1090 479 1114 q 392 1142 422 1114 q 333 1207 363 1171 q 290 1157 310 1179 q 254 1118 269 1135 q 451 928 324 1064 q 643 1114 583 1068 l 644 1122 m 511 646 q 479 601 489 617 l 461 601 q 450 600 456 600 l 381 600 q 315 608 354 600 q 218 697 218 628 q 314 783 226 763 q 325 785 321 785 q 335 786 331 785 l 346 789 l 351 789 q 406 781 378 789 q 458 757 433 772 q 502 721 482 742 q 535 676 522 700 l 535 675 q 519 654 528 665 q 511 646 513 646 m 513 650 l 514 650 q 511 646 511 647 q 513 650 511 647 z "},"":{"ha":321,"x_min":15,"x_max":313,"o":"m 235 56 q 206 54 222 56 q 169 50 189 53 q 150 96 168 72 l 47 239 q 33 256 40 247 q 15 271 25 264 q 27 284 18 275 q 47 306 36 293 l 47 304 l 150 446 q 163 469 157 458 q 169 490 168 479 q 202 488 185 489 q 235 488 219 488 q 259 488 246 488 q 288 490 272 489 l 310 490 q 281 463 296 479 q 251 425 267 447 l 138 271 l 251 117 q 278 83 263 100 q 313 50 294 67 q 271 54 290 53 q 235 56 251 56 z "},"":{"ha":315,"x_min":65,"x_max":263,"o":"m 263 690 q 203 636 231 664 q 153 581 176 608 q 65 699 65 639 q 225 861 65 799 l 242 843 q 196 775 196 804 q 263 700 196 726 l 263 690 z "},"":{"ha":315,"x_min":63,"x_max":267,"o":"m 267 744 q 108 581 267 644 l 93 601 q 138 668 138 633 q 63 746 138 713 q 182 861 133 803 q 267 744 267 801 z "},"":{"ha":564,"x_min":69,"x_max":519,"o":"m 519 690 q 404 581 454 639 q 314 699 314 639 q 479 861 314 799 l 496 843 q 449 775 449 804 q 519 700 449 729 l 519 690 m 272 690 q 210 636 239 664 q 157 581 182 608 q 69 699 69 638 q 233 861 69 799 l 251 843 q 203 775 203 806 q 272 700 203 728 l 272 690 z "},"":{"ha":564,"x_min":64,"x_max":522,"o":"m 522 744 q 358 581 522 643 l 340 600 q 388 668 388 635 q 310 746 388 713 q 378 803 349 774 q 432 861 408 832 q 522 744 522 803 m 275 744 q 111 581 275 643 l 96 601 q 142 668 142 633 q 64 746 142 713 q 188 861 138 803 q 275 744 275 803 z "},"":{"ha":679,"x_min":97,"x_max":592,"o":"m 344 736 q 519 664 446 736 q 592 489 592 592 q 521 314 592 385 q 344 242 447 242 q 169 314 242 242 q 97 489 97 386 q 169 664 97 592 q 344 736 242 736 z "},"":{"ha":1189,"x_min":33,"x_max":1167,"o":"m 256 215 q 146 213 201 215 q 33 204 90 210 q 62 271 51 239 q 79 332 72 303 q 183 327 124 329 q 318 325 243 325 l 943 325 q 1167 338 1054 325 q 1138 269 1149 301 q 1119 210 1126 238 q 1015 214 1075 213 q 882 215 956 215 l 256 215 z "},"":{"ha":497,"x_min":57,"x_max":451,"o":"m 407 628 q 318 613 369 613 q 229 628 282 613 q 186 641 206 638 q 151 644 167 644 q 57 610 108 644 q 75 673 68 639 q 85 744 82 707 q 168 761 132 761 q 264 744 207 761 q 315 733 294 736 q 350 729 336 729 q 451 763 376 729 q 425 696 435 728 q 410 632 415 664 l 407 628 z "},"":{"ha":1314,"x_min":124,"x_max":1113,"o":"m 1040 793 l 897 432 l 833 432 l 690 793 l 690 432 l 618 432 l 618 954 l 706 954 l 865 551 l 1026 954 l 1113 954 l 1113 432 l 1040 432 l 1040 793 m 376 882 l 376 432 l 303 432 l 303 882 l 124 882 l 124 954 l 556 954 l 556 882 l 376 882 z "},"":{"ha":554,"x_min":18,"x_max":544,"o":"m 544 567 q 392 335 508 456 l 522 338 q 522 332 522 336 q 521 326 521 328 q 519 319 519 324 l 518 318 l 518 315 l 515 313 l 515 310 l 514 307 l 514 303 l 513 301 q 510 293 511 299 l 508 288 l 508 50 q 510 46 508 47 l 510 42 l 511 38 l 511 39 q 513 36 513 38 l 514 29 l 513 32 l 511 33 q 514 28 511 32 q 522 14 518 21 l 528 3 q 510 4 513 3 l 511 4 q 507 6 510 6 q 479 6 490 6 q 461 11 468 7 q 436 13 440 11 l 428 13 q 254 -61 321 13 l 214 -19 q 193 -5 203 -10 q 171 0 183 0 q 147 4 163 4 q 58 -58 83 4 l 18 -58 q 132 153 40 39 l 138 158 q 148 169 142 163 q 163 183 154 176 l 71 188 l 81 197 l 79 193 q 92 229 92 211 l 93 232 l 92 475 q 91 477 92 476 q 90 479 90 478 l 90 478 q 89 485 89 479 l 85 494 l 85 496 q 82 504 82 499 l 82 518 q 111 504 96 504 q 160 499 121 499 q 174 497 161 497 q 297 531 239 497 q 353 582 306 535 q 436 532 396 532 q 501 571 476 532 l 539 574 l 544 567 m 503 819 q 313 635 440 774 q 115 824 186 772 q 152 863 133 840 q 194 913 171 886 q 313 796 258 840 q 369 847 340 818 q 429 913 397 876 q 472 864 453 885 q 504 828 490 843 l 503 819 m 365 60 l 365 236 l 363 239 l 292 239 l 219 167 q 197 142 210 157 q 167 108 185 128 q 196 113 183 111 q 215 115 208 115 q 339 53 286 115 l 344 56 l 349 57 q 358 60 351 57 l 365 60 m 342 356 q 411 429 388 406 q 386 422 399 424 q 361 421 374 421 q 269 461 318 421 q 264 458 265 460 l 258 458 q 243 454 250 454 l 243 279 l 258 279 q 290 305 269 286 q 342 356 310 324 z "},"":{"ha":321,"x_min":18,"x_max":315,"o":"m 96 56 q 61 54 81 56 q 18 50 42 53 q 81 117 56 83 l 193 271 l 81 425 q 21 490 53 465 l 44 490 q 72 488 60 489 q 96 488 85 488 q 129 488 113 488 q 161 490 146 489 q 183 446 164 472 l 285 304 q 299 286 292 294 q 315 271 306 278 q 285 238 308 267 l 285 239 l 183 96 q 161 50 165 72 q 126 54 142 53 q 96 56 110 56 z "},"":{"ha":738,"x_min":21,"x_max":728,"o":"m 728 781 l 728 793 l 718 793 l 715 790 q 712 790 713 790 q 710 789 711 789 l 711 789 q 694 783 704 786 q 681 779 683 779 q 551 889 625 779 l 551 872 q 462 799 500 828 q 399 757 424 771 l 399 872 l 349 872 l 349 718 q 318 694 331 701 q 315 692 315 693 q 311 690 314 692 q 172 872 308 872 q 67 826 117 872 q 21 724 21 783 q 49 657 21 686 q 68 709 49 685 q 111 733 88 733 l 117 733 l 118 732 l 119 732 q 142 717 132 724 q 156 704 151 711 l 156 522 q 124 517 138 519 q 101 511 110 514 q 39 404 39 485 q 88 315 39 329 l 88 328 l 89 331 q 128 368 89 358 q 156 349 147 360 l 156 114 q 203 8 156 51 q 240 -17 218 -7 q 286 -35 261 -28 q 194 -154 194 -71 q 235 -242 194 -204 q 278 -267 254 -260 q 325 -276 301 -275 l 328 -278 l 333 -278 q 463 -224 396 -278 l 465 -224 l 469 -219 l 468 -219 q 576 -169 536 -169 q 594 -178 586 -169 q 601 -196 601 -186 q 587 -224 601 -214 q 554 -233 572 -233 q 500 -222 536 -233 l 500 -265 q 556 -276 531 -276 l 560 -276 l 563 -275 q 638 -245 604 -274 q 672 -175 672 -217 q 594 -69 672 -99 q 570 -65 579 -67 q 554 -60 561 -62 q 552 -59 553 -60 q 550 -58 551 -58 l 544 -58 q 403 -103 479 -58 q 383 -116 390 -111 q 372 -124 375 -121 q 369 -125 371 -125 l 368 -126 l 369 -126 q 358 -132 363 -129 q 351 -136 354 -135 q 313 -147 315 -147 q 285 -125 285 -147 q 497 -46 285 -46 q 515 -43 508 -43 q 544 -33 532 -37 q 567 -26 557 -29 q 574 -24 569 -25 q 578 -24 579 -24 q 686 110 686 26 l 686 704 q 725 760 724 725 q 726 764 725 763 l 726 776 l 728 781 m 536 68 q 528 43 536 56 q 467 8 514 19 q 446 4 454 6 l 447 4 q 442 3 444 4 q 438 3 440 3 l 418 3 q 407 6 411 6 q 399 7 403 6 l 399 256 q 424 260 413 258 q 444 265 435 263 q 450 267 447 267 q 456 268 453 267 q 503 261 483 264 q 535 257 524 258 l 536 257 l 536 68 m 649 1046 q 594 1097 621 1069 q 539 1158 567 1125 q 484 1097 513 1126 q 424 1042 456 1068 q 487 984 458 1013 q 539 928 515 956 q 649 1038 590 986 l 649 1046 m 492 524 l 478 524 l 478 525 q 399 533 408 525 l 399 689 q 456 732 439 708 q 499 701 479 711 q 532 692 519 692 l 536 692 l 536 535 q 492 524 518 524 m 374 1046 q 319 1098 346 1069 q 265 1158 292 1126 q 151 1042 206 1088 q 265 928 211 988 q 317 984 290 957 q 374 1038 344 1011 l 374 1046 m 497 311 q 460 315 476 315 l 456 315 q 424 311 444 313 l 417 310 q 406 307 410 308 q 400 306 401 306 l 399 306 l 399 478 q 450 471 424 471 l 481 471 q 510 472 496 471 q 536 481 525 474 l 536 306 q 517 307 528 306 q 497 311 507 308 m 314 57 l 314 56 l 313 629 q 338 646 331 639 q 349 653 342 646 l 349 13 q 314 57 322 25 m 157 346 l 156 349 q 157 346 156 346 z "},"":{"ha":318,"x_min":18,"x_max":318,"o":"m 18 13 q 24 44 18 29 q 43 78 31 60 q 58 96 47 85 q 88 126 68 107 l 128 561 l 168 561 l 228 122 q 245 112 235 118 q 275 97 256 106 l 276 94 l 279 94 q 293 80 281 93 q 318 51 306 67 q 165 -53 263 51 l 165 -67 q 65 15 100 15 q 25 7 63 15 l 18 13 m 149 811 l 257 701 l 149 589 l 42 701 l 149 811 z "},"":{"ha":497,"x_min":72,"x_max":490,"o":"m 428 157 q 396 123 413 142 q 360 82 379 104 l 360 -47 l 317 -47 l 317 61 q 126 129 204 129 q 81 117 101 129 l 72 129 q 128 192 88 163 l 128 506 q 99 618 128 569 q 114 617 104 618 q 128 617 124 617 q 140 615 135 615 l 150 615 q 317 679 247 615 l 317 781 l 360 781 l 360 667 q 440 631 394 631 q 460 634 449 631 q 483 647 471 638 l 490 635 q 360 536 453 542 l 360 193 q 368 190 364 192 l 372 189 l 371 189 q 380 185 374 186 q 389 181 386 183 l 433 228 l 464 199 q 447 179 457 190 q 428 157 438 168 m 267 224 q 317 211 285 221 l 317 546 q 292 560 304 551 q 267 583 281 569 l 267 224 m 393 179 l 396 178 l 394 179 l 393 179 z "},"":{"ha":656,"x_min":25,"x_max":665,"o":"m 539 -58 q 243 22 417 22 q 149 13 197 22 q 49 -18 100 3 l 31 21 q 90 62 67 44 q 122 92 113 79 l 122 90 q 143 174 143 117 l 143 324 l 121 324 q 25 299 71 324 l 44 367 q 52 397 50 383 q 54 418 54 410 q 42 451 54 432 q 115 442 72 442 l 143 442 l 143 511 q 181 626 143 576 q 296 731 210 669 q 444 793 383 793 q 613 732 542 793 l 479 583 l 451 606 l 482 643 q 358 704 417 704 q 293 631 293 704 l 293 442 l 385 442 q 478 464 438 442 q 474 440 478 454 q 461 397 469 425 q 451 347 451 367 q 463 314 451 331 q 392 324 432 324 l 293 324 l 293 254 q 283 179 293 213 q 254 117 274 146 q 393 139 325 139 q 607 96 508 139 l 632 128 l 665 100 l 539 -58 z "},"":{"ha":811,"x_min":64,"x_max":756,"o":"m 590 213 q 504 168 550 182 q 410 154 458 154 q 229 213 310 154 l 139 124 l 65 197 l 156 286 q 97 468 97 365 q 154 647 97 568 l 64 739 l 138 814 l 229 724 q 410 781 314 781 q 590 724 508 781 l 682 814 l 754 738 l 664 647 q 725 468 725 565 q 710 372 725 417 q 665 288 694 328 l 756 196 l 682 122 l 590 213 m 410 675 q 264 614 325 675 q 203 468 203 554 q 264 321 203 382 q 410 260 325 260 q 490 275 454 260 q 557 321 525 290 q 603 388 588 353 q 618 468 618 424 q 557 614 618 553 q 490 660 525 644 q 410 675 454 675 z "},"":{"ha":765,"x_min":76,"x_max":754,"o":"m 593 82 q 529 22 567 58 q 446 -60 492 -14 q 283 6 365 6 q 197 -15 236 6 l 182 1 q 251 74 215 46 q 326 117 288 101 l 326 350 l 160 350 l 160 403 l 317 403 l 300 442 l 160 442 l 160 494 l 276 494 q 238 568 256 539 q 210 613 221 597 q 142 646 182 646 q 93 624 122 646 l 76 640 q 127 715 104 678 q 171 793 150 753 q 300 733 253 789 q 359 641 328 701 q 425 492 390 581 q 488 638 457 563 q 547 797 518 714 q 656 743 603 743 q 736 778 706 743 l 754 767 q 694 656 736 697 q 590 614 651 614 q 533 622 556 614 q 508 559 521 592 q 479 494 494 526 l 613 494 l 613 442 l 467 442 l 467 403 l 613 403 l 613 350 l 467 350 l 467 122 q 538 86 501 114 l 568 114 l 593 90 l 593 82 z "},"":{"ha":265,"x_min":103,"x_max":172,"o":"m 103 933 l 172 933 l 172 551 l 103 551 l 103 933 m 103 246 l 172 246 l 172 -135 l 103 -135 l 103 246 z "},"":{"ha":606,"x_min":14,"x_max":593,"o":"m 567 469 q 547 440 560 460 q 511 388 533 419 q 563 308 563 357 q 460 122 563 250 q 214 -29 338 -29 q 42 40 118 -29 l 168 215 q 288 119 178 119 q 402 151 363 119 q 442 217 442 182 q 408 253 442 238 q 337 276 386 263 q 208 307 288 289 q 65 350 97 335 q 14 425 14 378 q 34 484 14 449 q 99 565 54 519 q 58 633 58 590 q 102 734 58 672 q 235 879 146 796 q 368 953 317 953 q 540 867 479 953 l 422 710 q 311 808 404 808 q 213 772 249 808 q 185 722 185 742 q 210 692 185 704 q 257 676 225 685 q 338 657 289 668 q 381 647 358 653 q 431 635 404 642 q 464 626 447 631 q 500 618 481 622 q 593 533 593 590 q 567 469 593 508 m 325 499 q 249 517 292 506 q 154 543 207 528 q 139 515 139 528 q 218 467 139 485 q 322 441 264 456 q 453 407 381 426 q 468 440 468 433 q 407 479 468 460 q 389 483 403 479 q 363 490 378 486 q 325 499 347 493 z "},"":{"ha":549,"x_min":24,"x_max":517,"o":"m 517 715 q 407 610 457 665 q 294 719 357 665 q 407 831 349 764 q 517 724 458 771 l 517 715 m 243 715 q 188 664 215 690 q 135 610 160 638 q 82 666 110 639 q 24 719 54 693 q 79 771 51 743 q 135 831 107 799 q 190 772 163 799 q 243 724 217 746 l 243 715 z "},"":{"ha":1069,"x_min":18,"x_max":1063,"o":"m 540 -31 q 171 121 322 -31 q 18 490 18 272 q 171 860 18 708 q 540 1013 326 1013 q 908 860 757 1013 q 1063 490 1063 710 q 910 121 1063 274 q 540 -31 758 -31 m 540 942 q 221 810 356 942 q 89 490 89 675 q 221 172 89 304 q 540 40 353 40 q 857 172 726 40 q 990 490 990 303 q 857 810 990 676 q 540 942 725 942 m 557 183 q 351 269 433 183 q 268 496 268 357 q 344 717 268 626 q 546 806 424 806 q 718 742 646 806 q 770 669 751 711 q 794 578 789 628 l 722 578 q 654 699 708 660 q 549 732 606 732 q 401 664 457 732 l 401 665 q 360 590 374 631 q 346 499 346 549 q 407 325 346 390 q 557 257 471 257 q 665 294 618 257 q 728 397 711 331 l 803 397 q 773 312 794 351 q 719 244 751 272 q 647 199 688 215 q 557 183 606 183 z "},"":{"ha":544,"x_min":15,"x_max":547,"o":"m 471 56 q 440 54 457 56 q 404 50 424 53 q 383 96 401 72 l 279 239 q 265 256 272 247 q 246 271 257 264 q 259 284 250 275 q 279 306 268 293 l 279 304 l 383 446 q 397 469 392 458 q 404 490 403 479 q 437 488 419 489 q 471 488 454 488 q 495 488 482 488 q 524 490 508 489 l 547 490 q 488 425 515 464 l 371 271 l 488 117 q 517 82 501 99 q 547 50 532 65 q 505 54 524 53 q 471 56 486 56 m 239 56 q 210 54 226 56 q 172 50 193 53 q 153 96 171 72 l 47 239 q 33 256 40 247 q 15 271 26 264 q 28 284 19 275 q 47 306 36 293 l 47 304 l 153 446 q 165 469 160 458 q 172 490 171 479 q 206 488 188 489 q 239 488 224 488 q 263 488 250 488 q 292 490 276 489 l 315 490 q 256 425 286 467 l 140 271 l 256 117 q 318 50 281 83 q 276 54 296 53 q 239 56 256 56 z "},"":{"ha":811,"x_min":58,"x_max":763,"o":"m 685 414 l 58 414 l 58 489 l 763 489 l 763 168 l 685 168 l 685 414 z "},"":{"ha":529,"x_min":1,"x_max":539,"o":"m 269 425 q 81 504 158 425 q 1 694 1 583 q 81 883 1 807 q 269 963 160 963 q 460 883 383 963 q 539 694 539 807 q 460 504 539 583 q 269 425 382 425 m 343 546 q 335 572 339 554 q 328 621 331 589 q 261 657 325 657 l 226 657 l 226 543 l 160 543 l 160 849 l 271 849 q 369 824 340 849 q 400 753 400 794 q 392 715 400 731 q 369 688 385 700 q 388 656 381 675 q 396 614 394 638 q 399 581 397 590 q 415 551 401 571 q 474 694 474 613 q 414 839 474 776 q 269 899 351 899 q 125 838 186 899 q 67 694 67 775 q 126 550 67 610 q 269 490 186 490 q 344 503 310 490 q 407 543 379 515 l 347 543 l 343 546 m 226 785 l 226 721 l 271 721 q 333 754 333 721 q 314 782 333 775 q 268 785 300 785 l 226 785 z "},"":{"ha":811,"x_min":58,"x_max":763,"o":"m 450 349 l 450 86 l 371 86 l 371 349 l 58 349 l 58 425 l 371 425 l 371 686 l 450 686 l 450 425 l 763 425 l 763 349 l 450 349 m 58 58 l 763 58 l 763 -17 l 58 -17 l 58 58 z "},"":{"ha":494,"x_min":111,"x_max":436,"o":"m 435 767 q 372 740 404 756 q 304 701 339 724 q 182 610 226 654 q 152 676 169 646 q 111 732 135 706 q 178 762 144 746 q 249 800 213 778 q 319 848 289 825 q 371 893 350 871 q 399 828 382 857 q 436 776 417 799 l 435 767 z "},"":{"ha":835,"x_min":72,"x_max":750,"o":"m 672 890 l 672 -276 l 593 -276 l 593 890 l 440 890 l 440 -276 l 361 -276 l 361 321 q 147 419 225 332 q 72 638 72 507 q 203 908 72 814 q 425 967 282 967 l 750 967 l 750 890 l 672 890 z "},"":{"ha":544,"x_min":8,"x_max":539,"o":"m 85 56 q 51 54 69 56 q 8 50 32 53 q 67 117 39 81 l 182 271 l 67 425 q 8 490 36 467 l 32 490 q 60 488 47 489 q 85 488 74 488 q 118 488 100 488 q 151 490 136 489 q 158 469 153 479 q 171 446 164 458 l 276 304 q 290 286 283 294 q 307 271 297 278 q 276 238 300 267 l 276 239 l 171 96 q 151 50 153 72 q 114 54 131 53 q 85 56 97 56 m 315 56 q 279 54 299 56 q 236 50 260 53 q 272 83 256 67 q 299 117 288 100 l 414 271 l 299 425 q 269 462 285 446 q 239 490 254 478 l 263 490 q 291 488 278 489 q 315 488 304 488 q 349 488 332 488 q 382 490 367 489 q 389 469 383 479 q 403 446 394 458 l 507 304 q 522 286 514 294 q 539 271 529 278 q 507 238 529 263 l 507 239 l 403 96 q 382 50 383 72 q 346 54 363 53 q 315 56 329 56 z "},"":{"ha":1026,"x_min":83,"x_max":938,"o":"m 938 32 q 899 -6 922 17 q 846 -58 875 -29 q 793 -28 818 -39 q 742 -17 768 -17 q 685 -29 706 -17 l 672 -17 q 757 51 708 33 l 757 113 l 526 113 q 549 150 549 131 l 549 175 q 533 217 549 201 q 671 341 604 271 q 801 499 738 411 q 875 442 846 442 q 900 450 885 442 l 907 431 q 869 388 886 399 l 869 157 l 929 157 l 929 113 l 869 113 l 869 57 q 878 52 872 54 q 890 46 883 50 l 913 65 l 938 40 l 938 32 m 357 335 q 306 284 329 310 q 264 235 283 258 q 154 283 204 283 q 103 269 132 283 l 83 285 q 169 360 118 339 l 169 656 q 158 694 169 686 q 107 706 146 703 l 107 738 q 246 794 192 753 q 281 671 281 763 l 281 365 q 299 359 290 363 q 315 349 307 356 l 336 367 l 357 343 l 357 335 m 96 -47 l 92 -39 q 163 25 131 -7 q 222 90 196 57 l 685 665 l 685 664 q 731 733 731 722 q 729 740 731 736 q 726 749 728 743 l 865 782 l 869 774 q 740 642 799 714 l 278 68 l 278 69 q 232 1 232 11 l 232 -4 q 235 -14 232 -7 l 96 -47 m 757 376 q 701 314 729 344 q 643 256 674 283 l 643 157 l 757 157 l 757 376 z "},"":{"ha":1028,"x_min":49,"x_max":968,"o":"m 968 43 q 926 -6 947 19 q 885 -58 906 -31 q 763 -15 829 -15 q 617 -57 688 -15 l 597 -46 q 610 18 610 -28 l 610 97 q 632 186 610 160 q 724 235 651 208 l 722 235 q 765 253 749 246 q 786 265 781 261 q 813 322 813 285 l 813 408 l 810 408 q 767 377 790 386 q 717 368 744 368 q 601 453 644 368 l 618 468 q 657 456 635 456 q 744 497 704 456 q 944 442 822 444 q 924 367 924 408 l 924 306 q 944 243 924 269 q 735 190 835 238 q 674 153 686 171 q 661 83 661 133 l 661 25 q 813 89 738 89 q 926 53 869 89 l 946 72 l 968 51 l 968 43 m 321 335 q 269 282 293 307 q 226 235 246 257 q 118 283 167 283 q 67 269 96 283 l 49 285 q 135 360 82 339 l 135 651 q 123 691 135 683 q 71 700 111 699 l 71 738 q 210 794 156 753 q 246 671 246 763 l 246 365 q 264 359 256 363 q 281 349 272 356 l 300 367 l 321 343 l 321 335 m 65 -47 l 61 -39 q 133 26 100 -7 q 190 90 165 58 l 653 665 q 701 733 701 722 q 700 740 701 736 q 697 749 699 743 l 836 782 l 840 774 q 772 710 804 743 q 711 642 739 678 l 249 68 q 200 1 200 11 q 204 -14 200 -6 l 65 -47 z "},"":{"ha":1028,"x_min":31,"x_max":979,"o":"m 979 32 q 940 -6 964 17 q 888 -58 915 -29 q 782 -17 831 -17 q 725 -29 750 -17 l 713 -17 q 797 51 751 33 l 797 113 l 569 113 q 589 150 589 132 l 589 175 q 575 217 589 200 q 843 499 718 326 q 917 442 888 442 q 940 450 925 442 l 950 432 q 930 405 939 417 q 910 386 921 393 l 910 157 l 972 157 l 972 113 l 910 113 l 910 57 q 919 52 914 54 q 932 46 925 50 l 954 65 l 979 40 l 979 32 m 344 293 q 197 235 272 293 q 110 272 157 272 q 50 251 76 272 l 31 261 q 185 358 99 358 q 269 325 232 358 l 279 328 l 279 485 q 207 501 218 501 q 156 478 199 501 l 156 574 q 207 556 193 556 q 232 560 214 556 q 279 575 250 564 l 279 704 l 268 707 q 192 675 235 675 q 67 750 121 675 l 86 763 q 113 754 100 754 q 193 794 158 754 q 333 739 265 739 q 411 750 363 739 q 390 672 390 718 l 390 618 q 410 554 390 582 q 261 531 322 550 q 325 518 288 522 q 411 513 363 514 q 390 450 390 488 l 390 364 q 396 321 390 340 q 411 288 401 301 q 344 293 379 293 m 174 -47 l 169 -39 q 240 26 207 -7 q 297 90 272 58 l 761 665 l 761 664 q 807 733 807 722 l 807 739 q 804 749 807 742 l 943 782 l 947 774 q 817 642 871 713 l 354 68 l 354 69 q 307 1 307 11 q 311 -14 307 -6 l 174 -47 m 797 376 q 742 314 769 344 q 683 256 714 283 l 683 157 l 797 157 l 797 376 z "},"":{"ha":508,"x_min":18,"x_max":501,"o":"m 18 160 q 96 311 18 242 q 257 382 175 382 l 256 381 q 283 451 268 390 q 296 540 296 501 l 339 538 q 346 516 343 529 q 350 496 349 503 q 368 443 354 492 q 411 347 393 365 l 411 346 l 415 346 l 415 331 q 333 340 381 340 q 165 147 165 340 q 181 64 165 110 q 229 15 197 15 q 311 64 274 15 q 350 171 350 115 l 501 99 q 430 -16 486 25 q 297 -57 374 -57 q 115 1 200 -57 q 18 160 18 69 m 319 800 l 429 690 l 319 578 l 211 690 l 319 800 z "},"":{"ha":953,"x_min":19,"x_max":950,"o":"m 950 139 q 872 119 879 119 q 817 151 839 119 q 797 199 813 156 l 569 804 q 506 865 553 844 l 507 865 q 491 872 497 869 q 482 875 485 874 q 463 876 472 876 q 447 878 454 876 l 440 878 q 251 779 311 878 q 224 710 224 738 l 224 692 q 306 733 279 733 q 349 739 315 739 l 350 739 q 357 738 354 738 q 364 736 361 738 q 372 735 369 735 l 375 735 q 423 712 407 725 q 439 678 439 699 l 438 675 l 438 672 q 436 668 436 669 l 435 665 l 432 660 l 432 658 l 431 657 l 425 660 l 426 658 l 417 664 q 357 681 400 681 q 207 576 261 681 l 208 576 q 197 543 197 558 q 221 483 197 507 q 299 540 250 540 q 365 500 329 540 l 217 143 q 184 132 197 136 q 167 126 171 128 q 19 -26 19 61 l 19 -31 l 21 -32 l 21 -43 q 39 -29 38 -36 q 53 -22 47 -24 q 172 6 104 6 q 207 1 178 6 q 333 -60 283 -10 l 479 104 l 444 133 l 422 106 q 386 126 404 118 q 350 139 368 133 q 313 144 331 142 q 276 150 294 147 l 322 263 l 604 263 q 643 147 628 192 q 664 88 658 103 l 665 86 q 692 32 665 76 q 821 -65 733 -39 l 950 139 m 481 1054 q 419 1082 451 1065 q 349 1122 386 1099 q 276 1171 307 1147 q 224 1217 246 1194 q 151 1090 196 1140 q 220 1059 185 1076 q 290 1021 256 1042 q 415 925 374 971 q 483 1044 440 999 l 481 1054 m 471 625 l 549 408 l 382 408 l 471 625 m 417 664 q 415 665 417 665 l 417 664 z "},"":{"ha":953,"x_min":19,"x_max":950,"o":"m 950 139 q 872 119 879 119 q 817 151 839 119 q 797 199 813 156 l 569 804 q 506 865 553 844 l 507 865 q 491 871 497 869 q 482 874 485 872 q 463 876 472 875 q 447 878 454 876 l 440 878 q 251 779 311 878 q 224 710 224 738 l 224 692 q 306 733 279 733 q 349 739 315 739 l 350 739 q 357 738 354 738 q 364 736 361 738 q 372 735 369 735 l 375 735 q 423 712 407 725 q 439 678 439 699 l 438 675 l 438 672 q 436 668 436 669 l 435 665 l 432 660 l 432 658 l 431 657 l 425 660 l 426 658 l 417 664 q 357 681 400 681 q 207 576 261 681 l 208 576 q 197 543 197 558 q 221 483 197 507 q 299 540 250 540 q 365 500 329 540 l 217 143 q 184 132 197 136 q 167 126 171 128 q 19 -26 19 61 l 19 -31 l 21 -32 l 21 -43 q 39 -29 38 -36 q 53 -22 47 -24 q 172 6 104 6 q 207 1 178 6 q 333 -60 283 -10 l 479 104 l 444 133 l 422 106 q 386 126 404 118 q 350 139 368 133 q 313 144 331 142 q 276 150 294 147 l 322 263 l 604 263 q 643 147 628 192 q 664 88 658 103 l 665 86 q 692 32 665 76 q 821 -65 733 -39 l 950 139 m 731 1092 q 663 1211 688 1139 q 538 1117 619 1165 q 467 1077 503 1094 q 399 1046 432 1060 q 471 919 443 997 q 524 967 493 943 q 596 1015 554 990 q 665 1054 632 1038 q 728 1082 699 1071 l 731 1092 m 471 625 l 549 408 l 382 408 l 471 625 m 417 664 q 415 665 417 665 l 417 664 z "},"":{"ha":953,"x_min":19,"x_max":950,"o":"m 950 139 q 872 119 879 119 q 817 151 839 119 q 797 199 813 156 l 569 804 q 506 865 553 844 l 507 865 q 491 871 497 869 q 482 874 485 872 q 463 876 472 875 q 447 878 454 876 l 440 878 q 251 779 311 878 q 224 710 224 738 l 224 692 q 306 733 279 733 q 349 739 315 739 l 350 739 q 357 738 354 738 q 364 736 361 738 q 372 735 369 735 l 375 735 q 423 712 407 725 q 439 678 439 699 l 438 675 l 438 672 q 436 668 436 669 l 435 665 l 432 660 l 432 658 l 431 657 l 425 660 l 426 658 l 417 664 q 357 681 400 681 q 207 576 258 681 l 208 576 q 197 543 197 558 q 221 483 197 507 q 299 540 250 540 q 365 500 329 540 l 217 143 q 184 132 197 136 q 167 126 171 128 q 19 -26 19 61 l 19 -31 l 21 -32 l 21 -43 q 39 -29 38 -36 q 53 -22 47 -24 q 172 6 104 6 q 207 1 178 6 q 333 -60 283 -10 l 479 104 l 444 133 l 422 106 q 386 126 404 118 q 350 139 368 133 q 313 144 331 142 q 276 150 294 147 l 322 263 l 604 263 q 643 147 628 192 q 664 88 658 103 l 665 86 q 692 32 665 76 q 821 -65 733 -39 l 950 139 m 638 1017 q 553 1088 603 1042 q 440 1206 504 1135 q 326 1089 375 1136 q 243 1017 278 1042 q 280 976 258 1000 q 321 928 301 951 q 379 988 350 960 q 440 1040 408 1015 q 501 989 471 1017 q 558 926 531 961 q 597 972 578 950 q 631 1008 615 993 l 638 1017 m 471 625 l 549 408 l 382 408 l 471 625 m 417 664 q 415 665 417 665 l 417 664 z "},"":{"ha":953,"x_min":19,"x_max":950,"o":"m 950 139 q 872 119 879 119 q 817 151 839 119 q 797 199 813 156 l 569 803 q 506 864 553 843 l 507 864 q 491 870 497 868 q 482 874 485 872 q 463 876 472 875 q 447 878 454 876 l 440 878 q 251 779 313 878 q 224 708 224 738 l 224 690 q 306 733 279 733 q 349 739 315 739 l 350 739 q 357 738 354 738 q 364 736 361 738 q 372 735 369 735 l 375 735 q 439 676 439 715 l 438 674 l 438 671 q 436 667 436 668 l 435 664 l 432 658 l 432 657 l 431 656 l 425 658 l 426 657 l 417 663 q 357 679 400 679 q 207 576 260 679 l 208 576 q 197 542 197 558 q 221 483 197 507 q 299 539 251 539 q 365 500 329 539 l 217 143 q 184 132 197 136 q 167 126 171 128 q 19 -26 19 61 l 19 -31 l 21 -32 l 21 -43 q 39 -29 38 -36 q 53 -22 47 -24 q 172 6 104 6 q 207 1 178 6 q 333 -60 283 -10 l 479 104 l 444 133 l 422 106 q 386 126 404 118 q 350 139 368 133 q 313 144 331 142 q 276 150 294 147 l 322 263 l 604 263 q 643 147 628 192 q 664 88 658 103 l 665 86 q 672 66 665 79 q 692 32 679 53 q 821 -65 733 -39 l 950 139 m 618 946 q 633 1014 624 979 q 658 1085 642 1049 q 556 1050 581 1050 q 469 1067 529 1050 q 372 1083 411 1083 q 288 1065 332 1083 q 277 988 285 1024 q 258 924 269 951 q 354 960 311 960 q 433 942 389 960 q 522 926 486 926 q 615 942 576 926 l 618 946 m 471 625 l 549 408 l 382 408 l 471 625 m 417 663 q 415 664 417 664 l 417 663 z "},"":{"ha":953,"x_min":19,"x_max":950,"o":"m 950 139 q 872 119 879 119 q 817 151 839 119 q 797 199 813 156 l 569 804 q 506 864 553 843 l 507 864 q 491 870 497 868 q 482 874 485 872 q 463 876 472 875 q 447 878 454 876 l 440 878 q 251 779 313 878 q 224 708 224 738 l 224 690 q 306 733 279 733 q 349 739 315 739 l 350 739 q 357 738 354 738 q 364 736 361 738 q 372 735 369 735 l 375 735 q 439 678 439 715 l 438 675 l 438 672 q 436 668 436 669 l 435 665 l 432 660 l 432 658 l 431 657 l 425 660 l 426 658 l 417 664 q 357 681 400 681 q 207 576 261 681 l 208 576 q 197 542 197 558 q 221 483 197 507 q 299 539 250 539 q 365 500 331 539 l 217 143 q 184 132 197 136 q 167 126 171 128 q 19 -26 19 61 l 19 -31 l 21 -32 l 21 -43 q 39 -29 38 -36 q 53 -22 47 -24 q 172 6 104 6 q 207 1 178 6 q 333 -60 283 -10 l 479 104 l 444 133 l 422 106 q 386 126 404 118 q 350 139 368 133 q 313 144 331 142 q 276 150 294 147 l 322 263 l 604 263 q 643 147 628 192 q 664 88 658 103 l 665 86 q 672 66 665 79 q 692 32 679 53 q 821 -65 733 -39 l 950 139 m 706 1044 q 651 1096 678 1068 q 596 1156 624 1124 q 481 1040 543 1093 q 543 983 514 1011 q 596 926 572 954 q 706 1036 647 985 l 706 1044 m 429 1044 q 374 1096 401 1068 q 321 1156 347 1124 q 264 1093 293 1122 q 207 1040 235 1064 q 266 985 238 1013 q 321 926 294 957 q 374 983 346 956 q 429 1036 401 1010 l 429 1044 m 471 625 l 549 408 l 382 408 l 471 625 m 417 664 q 415 665 417 665 l 417 664 z "},"":{"ha":953,"x_min":19,"x_max":950,"o":"m 950 139 q 872 119 879 119 q 817 151 839 119 q 797 199 813 156 l 569 803 q 506 864 553 843 l 507 864 q 491 870 497 868 q 482 874 485 872 q 463 876 472 875 q 447 878 454 876 l 440 878 q 251 779 313 878 q 224 708 224 738 l 224 690 q 306 733 279 733 q 349 739 315 739 l 350 739 q 357 738 354 738 q 364 736 361 738 q 372 735 369 735 l 375 735 q 439 676 439 715 l 438 674 l 438 671 q 436 667 436 668 l 435 664 l 432 658 l 432 657 l 431 656 l 425 658 l 426 657 l 417 663 q 357 679 400 679 q 207 576 260 679 l 208 576 q 197 542 197 558 q 221 483 197 507 q 299 539 251 539 q 365 500 329 539 l 217 143 q 184 132 197 136 q 167 126 171 128 q 19 -26 19 61 l 19 -31 l 21 -32 l 21 -43 q 39 -29 38 -36 q 53 -22 47 -24 q 172 6 104 6 q 207 1 178 6 q 333 -60 283 -10 l 479 104 l 444 133 l 422 106 q 386 126 404 118 q 350 139 368 133 q 313 144 331 142 q 276 150 294 147 l 322 263 l 604 263 q 643 147 628 192 q 664 88 658 103 l 665 86 q 672 66 665 79 q 692 32 679 53 q 821 -65 733 -39 l 950 139 m 586 1022 q 544 1083 586 1075 l 546 1083 q 469 1089 533 1089 q 372 1076 399 1089 q 329 989 329 1053 q 369 926 329 942 q 446 922 386 922 q 543 935 515 922 q 586 1022 586 956 m 471 625 l 549 408 l 382 408 l 471 625 m 451 961 q 428 992 428 961 q 464 1049 428 1049 q 488 1018 488 1049 q 451 961 488 961 m 417 663 q 415 664 417 664 l 417 663 z "},"":{"ha":840,"x_min":21,"x_max":831,"o":"m 544 -164 q 472 -58 544 -97 l 475 -58 q 500 -54 489 -57 q 515 -53 506 -53 q 685 18 606 -36 q 808 147 764 72 q 831 208 825 171 l 821 214 q 665 104 728 119 l 665 689 q 749 725 710 692 q 810 807 789 758 q 772 790 786 796 q 750 785 757 785 l 749 783 l 747 783 q 633 863 681 783 l 283 672 l 303 631 l 363 661 l 363 200 q 339 138 363 169 l 356 138 q 469 183 421 138 q 519 294 519 229 l 519 732 q 528 727 524 729 q 538 722 533 725 l 536 724 q 613 692 581 692 l 614 692 l 614 82 q 561 70 581 74 q 535 67 542 67 q 435 78 479 67 q 286 172 353 101 q 182 436 182 281 l 183 439 q 408 853 183 678 l 404 861 q 394 858 400 858 l 389 857 q 377 855 382 856 q 369 854 372 854 q 296 818 329 836 q 239 785 263 800 q 149 701 189 747 q 81 603 110 656 q 21 369 21 488 q 92 131 21 239 q 282 -28 167 22 q 460 -58 353 -58 l 472 -58 q 424 -104 450 -81 q 369 -151 399 -128 q 421 -229 421 -199 q 382 -283 421 -271 l 382 -306 q 500 -260 454 -304 q 544 -164 544 -219 m 389 857 l 390 858 l 389 857 z "},"":{"ha":790,"x_min":13,"x_max":746,"o":"m 454 1044 q 417 992 435 1022 q 388 925 400 963 q 335 972 365 949 q 263 1021 304 996 q 192 1059 228 1042 q 124 1090 157 1076 q 196 1217 168 1140 q 249 1171 218 1194 q 321 1122 279 1147 q 390 1082 357 1099 q 451 1054 424 1065 l 454 1044 m 165 893 l 171 893 q 201 889 182 893 l 219 883 l 235 879 q 315 868 268 872 l 397 861 q 457 860 426 860 q 650 874 543 860 l 671 876 l 693 881 q 721 883 708 883 q 735 882 729 883 q 714 849 726 865 l 690 819 l 682 810 l 672 797 l 649 767 q 603 724 617 729 l 586 722 l 569 724 l 533 724 l 494 722 l 417 722 l 388 724 l 357 725 l 339 725 q 297 722 314 725 q 290 614 290 661 q 299 529 290 564 q 332 542 313 532 l 364 556 q 397 560 378 560 q 421 558 408 560 l 451 553 l 483 546 q 544 538 519 538 q 588 549 574 538 l 597 560 q 607 568 603 568 q 615 569 611 569 q 632 551 632 569 q 618 504 632 535 q 558 422 585 433 q 478 408 529 408 q 390 418 438 410 l 374 421 l 354 424 q 336 425 344 425 q 317 422 325 425 q 289 339 290 413 q 290 276 289 315 l 292 249 l 292 218 q 279 154 288 168 q 264 118 274 144 q 314 124 285 118 l 338 128 l 361 131 q 388 132 374 132 q 447 126 415 132 l 486 118 l 524 111 l 554 107 l 589 106 l 596 106 q 647 118 632 106 q 661 135 654 124 l 672 158 q 699 196 688 190 l 713 197 l 725 196 q 746 169 746 189 l 746 167 q 688 57 744 156 q 625 -44 632 -40 l 625 -46 q 619 -49 624 -47 l 604 -51 l 588 -51 q 436 -28 536 -47 l 361 -14 l 288 -4 q 236 -1 263 -1 q 183 -4 210 -1 q 154 -10 176 -4 l 111 -19 q 57 -29 74 -29 q 46 -26 49 -29 q 38 -12 38 -21 q 44 6 38 -4 l 60 21 l 65 25 l 71 29 q 88 46 81 36 q 101 67 99 58 q 107 110 107 82 q 106 133 107 121 l 104 171 l 103 186 l 101 199 q 97 317 97 247 q 99 392 97 351 l 101 490 l 104 589 l 103 611 l 103 644 q 108 679 103 667 q 139 717 114 694 l 158 733 l 175 751 q 151 756 164 756 q 126 751 139 756 q 86 729 111 746 q 35 708 53 708 q 22 713 26 708 q 13 729 13 721 q 19 746 13 738 l 79 808 l 139 871 l 144 876 l 151 883 q 165 893 160 892 z "},"":{"ha":790,"x_min":13,"x_max":746,"o":"m 699 1082 q 637 1054 669 1071 q 567 1015 604 1038 q 442 919 485 965 q 369 1046 415 997 q 510 1117 440 1074 q 633 1211 592 1167 q 701 1092 658 1139 l 699 1082 m 165 893 l 171 893 q 201 889 182 893 l 219 883 l 235 879 q 315 868 268 872 l 397 861 q 457 860 426 860 q 650 874 543 860 l 671 876 l 693 881 q 721 883 708 883 q 735 882 729 883 q 714 849 726 865 l 690 819 l 682 810 l 672 797 l 649 767 q 603 724 617 729 l 586 722 l 569 724 l 533 724 l 494 722 l 417 722 l 388 724 l 357 725 l 339 725 q 297 722 314 725 q 290 614 290 661 q 299 529 290 564 q 332 542 313 532 l 364 556 q 397 560 378 560 q 421 558 408 560 l 451 553 l 483 546 q 544 538 519 538 q 588 549 574 538 l 597 560 q 607 568 603 568 q 615 569 611 569 q 632 551 632 569 q 618 504 632 535 q 558 422 585 433 q 478 408 529 408 q 390 418 438 410 l 374 421 l 354 424 q 336 425 344 425 q 317 422 325 425 q 289 339 290 413 q 290 276 289 315 l 292 249 l 292 218 q 279 154 288 168 q 264 118 274 144 q 314 124 285 118 l 338 128 l 361 131 q 388 132 374 132 q 447 126 415 132 l 486 118 l 524 111 l 554 107 l 589 106 l 596 106 q 647 118 632 106 q 661 135 654 124 l 672 158 q 699 196 688 190 l 713 197 l 725 196 q 746 169 746 189 l 746 167 q 688 57 744 156 q 625 -44 632 -40 l 625 -46 q 619 -49 624 -47 l 604 -51 l 588 -51 q 436 -28 536 -47 l 361 -14 l 288 -4 q 236 -1 263 -1 q 183 -4 210 -1 q 154 -10 176 -4 l 111 -19 q 57 -29 74 -29 q 46 -26 49 -29 q 38 -12 38 -21 q 44 6 38 -4 l 60 21 l 65 25 l 71 29 q 88 46 81 36 q 101 67 99 58 q 107 110 107 82 q 106 133 107 121 l 104 171 l 103 186 l 101 199 q 97 317 97 247 q 99 392 97 351 l 101 490 l 104 589 l 103 611 l 103 644 q 108 679 103 667 q 139 717 114 694 l 158 733 l 175 751 q 151 756 164 756 q 126 751 139 756 q 86 729 111 746 q 35 708 53 708 q 22 713 26 708 q 13 729 13 721 q 19 746 13 738 l 79 808 l 139 871 l 144 876 l 151 883 q 165 893 160 892 z "},"":{"ha":790,"x_min":13,"x_max":746,"o":"m 601 1008 q 567 972 586 993 q 529 926 549 950 q 472 989 501 961 q 413 1040 442 1017 q 351 988 381 1015 q 293 928 322 960 q 252 976 274 951 q 215 1017 231 1000 q 413 1206 282 1067 q 610 1017 539 1067 l 601 1008 m 165 893 l 171 893 q 201 889 182 893 l 219 883 l 235 879 q 315 868 268 872 l 397 861 q 457 860 426 860 q 650 874 543 860 l 671 876 l 693 881 q 721 883 708 883 q 735 882 729 883 q 714 849 726 865 l 690 819 l 682 810 l 672 797 l 649 767 q 603 724 617 729 l 586 722 l 569 724 l 533 724 l 494 722 l 417 722 l 388 724 l 357 725 l 339 725 q 297 722 314 725 q 290 614 290 661 q 299 529 290 564 q 332 542 313 532 l 364 556 q 397 560 378 560 q 421 558 408 560 l 451 553 l 483 546 q 544 538 519 538 q 588 549 574 538 l 597 560 q 607 568 603 568 q 615 569 611 569 q 632 551 632 569 q 618 504 632 535 q 558 422 585 433 q 478 408 529 408 q 390 418 438 410 l 374 421 l 354 424 q 336 425 344 425 q 317 422 325 425 q 289 339 290 413 q 290 276 289 315 l 292 249 l 292 218 q 279 154 288 168 q 264 118 274 144 q 314 124 285 118 l 338 128 l 361 131 q 388 132 374 132 q 447 126 415 132 l 486 118 l 524 111 l 554 107 l 589 106 l 596 106 q 647 118 632 106 q 661 135 654 124 l 672 158 q 699 196 688 190 l 713 197 l 725 196 q 746 169 746 189 l 746 167 q 688 57 744 156 q 625 -44 632 -40 l 625 -46 q 619 -49 624 -47 l 604 -51 l 588 -51 q 436 -28 536 -47 l 361 -14 l 288 -4 q 236 -1 263 -1 q 183 -4 210 -1 q 154 -10 176 -4 l 111 -19 q 57 -29 74 -29 q 46 -26 49 -29 q 38 -12 38 -21 q 44 6 38 -4 l 60 21 l 65 25 l 71 29 q 88 46 81 36 q 101 67 99 58 q 107 110 107 82 q 106 133 107 121 l 104 171 l 103 186 l 101 199 q 97 317 97 247 q 99 392 97 351 l 101 490 l 104 589 l 103 611 l 103 644 q 108 679 103 667 q 139 717 114 694 l 158 733 l 175 751 q 151 756 164 756 q 126 751 139 756 q 86 729 111 746 q 35 708 53 708 q 22 713 26 708 q 13 729 13 721 q 19 746 13 738 l 79 808 l 139 871 l 144 876 l 151 883 q 165 893 160 892 z "},"":{"ha":790,"x_min":13,"x_max":746,"o":"m 676 1036 q 567 926 618 985 q 515 983 543 954 q 451 1040 486 1011 q 512 1096 483 1067 q 567 1156 540 1125 q 622 1096 594 1124 q 676 1044 649 1068 l 676 1036 m 401 1036 q 345 983 372 1010 q 293 926 318 956 q 179 1040 239 986 q 235 1093 207 1064 q 293 1156 264 1122 q 347 1096 319 1124 q 401 1044 374 1068 l 401 1036 m 165 893 l 171 893 q 201 889 182 893 l 219 883 l 235 879 q 315 868 268 872 l 397 861 q 457 860 426 860 q 650 874 543 860 l 671 876 l 693 881 q 721 883 708 883 q 735 882 729 883 q 714 849 726 865 l 690 819 l 682 810 l 672 797 l 649 767 q 603 724 617 729 l 586 722 l 569 724 l 533 724 l 494 722 l 417 722 l 388 724 l 357 725 l 339 725 q 297 722 314 725 q 290 614 290 661 q 299 529 290 564 q 332 542 313 532 l 364 556 q 397 560 378 560 q 421 558 408 560 l 451 553 l 483 546 q 544 538 519 538 q 588 549 574 538 l 597 560 q 607 568 603 568 q 615 569 611 569 q 632 551 632 569 q 618 504 632 535 q 558 422 585 433 q 478 408 529 408 q 390 418 438 410 l 374 421 l 354 424 q 336 425 344 425 q 317 422 325 425 q 289 339 290 413 q 290 276 289 315 l 292 249 l 292 218 q 279 154 288 168 q 264 118 274 144 q 314 124 285 118 l 338 128 l 361 131 q 388 132 374 132 q 447 126 415 132 l 486 118 l 524 111 l 554 107 l 589 106 l 596 106 q 647 118 632 106 q 661 135 654 124 l 672 158 q 699 196 688 190 l 713 197 l 725 196 q 746 169 746 189 l 746 167 q 688 57 744 156 q 625 -44 632 -40 l 625 -46 q 619 -49 624 -47 l 604 -51 l 588 -51 q 436 -28 536 -47 l 361 -14 l 288 -4 q 236 -1 263 -1 q 183 -4 210 -1 q 154 -10 176 -4 l 111 -19 q 57 -29 74 -29 q 46 -26 49 -29 q 38 -12 38 -21 q 44 6 38 -4 l 60 21 l 65 25 l 71 29 q 88 46 81 36 q 101 67 99 58 q 107 110 107 82 q 106 133 107 121 l 104 171 l 103 186 l 101 199 q 97 317 97 247 q 99 392 97 351 l 101 490 l 104 589 l 103 611 l 103 644 q 108 679 103 667 q 139 717 114 694 l 158 733 l 175 751 q 151 756 164 756 q 126 751 139 756 q 86 729 111 746 q 35 708 53 708 q 22 713 26 708 q 13 729 13 721 q 19 746 13 738 l 79 808 l 139 871 l 144 876 l 151 883 q 165 893 160 892 z "},"":{"ha":681,"x_min":21,"x_max":669,"o":"m 664 847 q 493 731 532 819 q 486 708 486 714 l 486 75 q 467 27 486 47 q 422 7 449 7 q 375 13 407 7 q 344 32 372 14 q 319 56 322 50 q 303 68 310 63 q 289 79 296 74 q 178 125 222 125 q 167 124 169 125 q 88 86 128 119 q 37 25 53 58 q 21 -46 21 -8 q 119 0 75 0 l 126 0 q 233 -37 147 0 q 365 -58 304 -58 l 371 -58 q 389 -57 372 -57 q 397 -56 393 -56 q 542 -3 471 -51 q 607 57 576 18 l 607 56 q 642 136 642 99 l 642 794 q 669 838 642 810 l 664 847 m 454 719 l 450 719 l 449 718 l 447 718 q 417 708 436 715 q 375 685 399 700 q 317 636 329 657 q 293 590 293 604 l 293 507 q 281 508 285 507 q 274 510 276 510 q 267 511 271 511 l 263 511 q 181 484 214 511 q 149 413 149 457 q 228 315 149 328 l 228 326 l 226 328 l 226 332 l 225 333 q 265 365 228 365 l 267 364 q 293 346 283 364 l 293 194 q 272 115 293 165 q 388 167 329 115 q 447 265 447 218 l 447 657 q 450 685 447 672 q 460 713 453 699 l 454 719 m 535 854 q 456 829 490 829 l 453 828 q 399 836 440 828 q 367 843 379 840 q 349 850 356 846 l 346 850 l 344 851 q 292 863 313 858 q 260 867 271 867 q 82 769 133 867 q 64 704 64 735 l 64 685 q 83 703 71 694 q 108 719 94 713 q 134 731 121 726 q 157 735 147 735 q 219 726 190 735 q 235 722 231 724 q 265 715 254 717 q 281 711 276 713 q 343 707 293 707 q 365 710 364 707 l 363 708 q 476 751 426 713 q 543 849 526 789 l 535 854 m 450 1054 q 389 1082 422 1065 q 319 1122 356 1099 q 196 1217 238 1172 q 164 1148 182 1181 q 122 1090 146 1115 q 263 1021 189 1064 q 386 925 346 969 q 416 992 399 963 q 453 1044 433 1022 l 450 1054 z "},"":{"ha":681,"x_min":21,"x_max":700,"o":"m 664 847 q 493 731 532 819 q 486 708 486 714 l 486 75 q 468 27 486 47 q 422 7 450 7 q 404 8 415 7 q 376 13 393 10 q 344 32 371 14 q 319 56 322 50 q 290 79 303 67 q 178 125 221 125 q 167 124 169 125 q 88 86 128 119 q 21 -46 21 32 q 119 0 75 0 l 128 0 q 233 -37 147 0 q 365 -58 304 -58 l 372 -58 q 389 -57 374 -57 q 397 -56 393 -56 q 543 -3 469 -51 q 607 57 576 18 l 607 56 q 634 97 626 78 q 642 136 642 117 l 642 794 q 669 838 642 810 l 664 847 m 456 719 l 451 719 l 450 718 l 449 718 q 417 708 436 715 q 376 685 399 700 q 317 636 331 657 q 299 608 304 619 q 294 590 294 597 l 294 507 q 281 508 285 507 q 274 510 276 510 q 267 511 271 511 l 263 511 q 181 484 214 511 q 149 413 149 457 q 228 315 149 328 l 228 326 l 226 328 l 226 332 l 225 333 q 265 365 228 365 l 267 364 q 294 346 285 364 l 294 194 q 272 115 294 164 q 388 167 329 115 q 447 265 447 218 l 449 657 l 447 657 q 461 711 447 688 l 456 719 m 536 854 q 457 829 490 829 l 454 828 q 399 836 440 828 q 368 843 381 840 q 349 850 356 846 l 346 850 l 344 851 q 292 863 313 858 q 260 867 271 867 q 82 769 133 867 q 64 704 64 735 l 64 685 q 83 703 71 694 q 108 719 94 713 q 134 731 121 726 q 157 735 147 735 q 219 726 190 735 q 235 722 231 724 q 281 711 275 711 q 343 707 294 707 q 367 710 364 707 l 363 708 q 477 751 428 713 q 544 849 526 789 l 536 854 m 700 1092 q 633 1211 656 1140 q 508 1117 588 1165 q 438 1077 474 1094 q 369 1046 403 1060 q 442 919 414 997 q 565 1015 482 964 q 635 1054 603 1038 q 697 1082 668 1071 l 700 1092 z "},"":{"ha":681,"x_min":21,"x_max":669,"o":"m 664 847 q 493 731 532 819 q 486 708 486 714 l 486 75 q 467 27 486 47 q 422 7 449 7 q 375 13 407 7 q 344 32 372 14 q 319 56 322 50 q 303 68 310 63 q 289 79 296 74 q 178 125 222 125 q 167 124 169 125 q 88 86 128 119 q 37 25 53 58 q 21 -46 21 -8 q 119 0 75 0 l 126 0 q 233 -37 147 0 q 365 -58 304 -58 l 371 -58 q 389 -57 372 -57 q 397 -56 393 -56 q 542 -3 471 -51 q 607 57 576 18 l 607 56 q 642 136 642 99 l 642 794 q 669 838 642 810 l 664 847 m 454 719 l 450 719 l 449 718 l 447 718 q 417 708 436 715 q 375 685 399 700 q 317 636 329 657 q 293 590 293 604 l 293 507 q 281 508 285 507 q 274 510 276 510 q 267 511 271 511 l 263 511 q 181 484 214 511 q 149 413 149 457 q 228 315 149 328 l 228 326 l 226 328 l 226 332 l 225 333 q 265 365 228 365 l 267 364 q 293 346 283 364 l 293 194 q 272 115 293 165 q 388 167 329 115 q 447 265 447 218 l 447 657 q 450 685 447 672 q 460 711 453 699 l 454 719 m 535 854 q 456 829 490 829 l 453 828 q 399 836 440 828 q 367 843 379 840 q 349 850 356 846 l 346 850 l 344 851 q 292 863 313 858 q 260 867 271 867 q 82 769 133 867 q 64 704 64 735 l 64 685 q 83 703 71 694 q 108 719 94 713 q 134 731 121 726 q 157 735 147 735 q 219 726 190 735 q 235 722 231 724 q 281 710 272 711 q 303 708 288 708 q 343 707 318 707 q 365 710 364 707 l 363 708 q 476 751 426 713 q 543 849 526 789 l 535 854 m 608 1017 q 411 1206 538 1067 q 297 1089 346 1136 q 214 1017 249 1042 q 251 976 229 1000 q 292 928 272 951 q 350 988 321 960 q 411 1040 379 1015 q 470 989 440 1017 q 528 926 500 961 q 566 972 547 950 q 600 1008 585 993 l 608 1017 z "},"":{"ha":681,"x_min":21,"x_max":675,"o":"m 669 836 q 642 794 642 811 l 642 136 q 607 56 642 99 l 607 57 q 542 -3 576 18 q 397 -56 471 -51 q 389 -57 393 -56 q 371 -58 372 -57 l 365 -58 q 233 -37 304 -58 q 126 0 147 0 l 119 0 q 21 -46 75 0 q 37 25 21 -8 q 88 86 53 58 q 167 124 128 119 q 178 125 169 125 q 289 79 222 125 q 303 68 296 74 q 319 56 310 63 q 344 32 322 50 q 375 13 372 14 q 422 7 407 7 q 467 27 449 7 q 486 75 486 47 l 486 707 q 493 731 486 714 q 664 846 533 821 l 669 836 m 460 711 q 450 685 453 697 q 447 657 447 672 l 449 657 l 447 265 q 388 167 447 218 q 272 115 329 115 q 293 194 293 165 l 293 346 q 267 364 283 364 l 265 365 q 225 333 228 365 l 226 332 l 226 328 l 228 326 l 228 315 q 149 413 149 328 q 181 484 149 457 q 263 511 214 511 l 267 511 q 274 510 271 511 q 281 508 276 510 q 293 507 285 507 l 293 590 q 317 636 293 604 q 375 683 331 658 q 417 707 399 699 q 449 718 436 715 l 450 718 l 450 719 l 454 719 l 460 711 m 543 847 q 478 751 526 789 q 365 707 429 713 q 358 704 363 704 l 357 706 l 343 706 q 281 710 293 706 q 235 722 272 711 q 219 726 231 724 q 157 735 190 735 q 134 731 147 735 q 108 719 121 726 q 83 702 94 711 q 64 683 71 693 l 64 703 q 82 769 64 735 q 260 865 133 865 q 292 861 271 865 q 344 850 313 857 l 346 849 l 349 849 q 367 842 356 844 q 399 835 379 839 q 433 830 419 832 q 453 828 447 828 l 456 829 q 535 853 493 829 l 543 847 m 675 1036 q 565 926 617 985 q 513 983 542 954 q 450 1040 485 1011 q 565 1156 514 1093 q 620 1096 593 1124 q 675 1044 647 1068 l 675 1036 m 400 1036 q 344 983 372 1010 q 292 926 317 956 q 237 985 265 957 q 179 1040 208 1013 q 235 1093 207 1064 q 292 1156 264 1122 q 345 1096 318 1124 q 400 1044 372 1068 l 400 1036 z "},"":{"ha":881,"x_min":18,"x_max":871,"o":"m 871 854 q 829 776 868 814 q 760 722 799 742 l 760 724 q 745 716 751 718 q 735 713 739 714 l 735 -58 l 726 -58 q 581 82 658 -58 l 582 82 q 553 134 568 103 q 511 219 539 165 q 497 247 504 232 q 483 276 490 261 q 356 308 413 308 q 249 285 281 308 l 249 151 l 250 151 l 253 153 l 261 153 q 349 138 307 153 q 431 96 390 124 l 447 118 l 478 88 l 367 -60 q 185 3 271 3 q 64 -25 122 3 l 64 -24 q 50 -32 56 -29 l 39 -36 q 18 -44 26 -42 q 196 144 58 103 l 196 332 q 190 334 193 333 q 183 338 188 335 l 181 338 q 165 326 171 338 q 158 303 158 314 l 160 301 l 160 285 q 99 315 124 285 q 74 382 74 344 q 135 493 74 468 q 156 497 140 494 q 196 501 171 499 l 196 731 l 193 731 q 176 723 186 725 q 156 718 165 721 q 146 717 151 717 q 139 714 142 717 q 76 638 81 685 l 67 638 l 69 635 q 40 694 40 640 q 93 826 40 769 q 221 886 144 886 q 349 838 296 886 q 390 792 367 821 q 440 722 413 764 q 477 653 456 694 q 535 547 499 613 q 608 533 556 533 q 624 535 622 533 q 665 539 657 535 l 671 539 l 682 542 l 685 542 l 683 704 l 681 704 l 678 703 l 671 703 q 572 731 601 703 l 546 708 l 513 742 l 665 889 q 785 838 729 838 q 863 860 819 838 l 871 854 m 614 942 q 522 926 579 926 q 480 930 501 926 q 433 942 458 933 q 390 956 410 951 q 354 960 369 960 q 258 924 311 960 q 276 988 268 951 q 286 1065 283 1024 q 372 1083 332 1083 q 469 1067 411 1083 q 556 1050 528 1050 q 594 1059 569 1050 q 658 1085 619 1068 q 632 1014 642 1049 q 617 946 622 979 l 614 942 m 363 358 q 407 356 385 358 q 451 347 429 354 q 428 395 443 363 q 389 481 413 428 q 326 614 349 569 q 249 713 281 697 l 249 340 q 363 358 315 358 m 592 413 q 685 239 643 299 l 683 489 q 662 483 675 485 q 632 482 649 482 l 594 482 q 558 488 575 482 l 592 413 z "},"":{"ha":932,"x_min":21,"x_max":922,"o":"m 454 -58 q 640 -18 556 -58 q 759 64 707 14 q 849 188 811 114 q 922 475 922 322 q 908 588 922 536 q 683 888 860 779 l 683 876 q 658 863 671 869 q 631 851 644 856 l 629 850 l 628 850 q 592 832 601 836 l 592 872 l 540 872 l 540 806 q 294 713 347 728 l 294 658 q 319 663 301 658 q 347 674 336 668 l 347 135 l 346 132 q 344 119 346 121 q 343 113 343 117 l 343 107 l 344 110 q 338 96 340 103 q 333 82 336 89 l 339 82 l 340 81 l 343 81 l 344 79 q 378 85 360 79 q 418 107 397 92 q 440 124 428 114 q 464 149 451 133 q 499 201 499 185 l 499 725 q 522 737 511 732 q 540 746 533 742 l 540 6 q 532 4 536 6 q 529 3 531 3 q 526 2 528 3 q 522 1 524 1 q 461 -6 490 -6 q 226 194 293 -6 q 190 411 190 303 l 190 422 q 213 497 213 446 l 213 515 q 208 589 208 563 q 211 615 208 604 q 394 860 253 788 l 393 869 l 385 869 l 385 871 l 372 871 q 169 764 267 871 q 22 442 29 613 q 21 408 21 438 l 22 407 l 22 403 q 21 399 22 400 q 54 211 21 292 q 213 15 101 92 q 454 -58 319 -58 m 763 365 q 758 304 763 360 q 757 299 758 303 q 754 288 756 293 q 753 276 753 282 q 747 277 750 276 q 739 278 743 278 l 731 278 q 721 279 728 278 q 686 283 693 283 l 651 283 q 619 279 644 283 q 599 276 604 276 q 592 275 594 275 l 592 518 q 647 510 614 510 l 681 510 q 707 513 692 510 q 742 524 722 517 q 750 526 747 526 q 763 413 763 474 l 763 365 m 481 1054 q 418 1082 451 1065 q 349 1122 385 1099 q 276 1171 307 1147 q 224 1217 246 1194 q 151 1090 196 1140 q 220 1059 185 1076 q 290 1021 256 1042 q 415 925 374 971 q 483 1044 440 999 l 481 1054 m 686 101 q 592 24 640 46 l 592 221 q 594 222 593 221 q 613 226 606 224 q 651 231 626 231 l 678 231 q 692 228 681 229 q 724 225 703 226 q 731 221 728 222 q 740 218 735 219 q 721 158 733 188 q 686 101 708 129 m 676 556 l 658 556 q 592 572 608 556 l 592 774 l 601 776 q 676 691 642 740 q 735 576 710 642 q 676 556 703 556 z "},"":{"ha":932,"x_min":21,"x_max":922,"o":"m 454 -58 q 640 -18 556 -58 q 759 64 707 14 q 849 188 811 114 q 922 475 922 322 q 908 588 922 536 q 683 888 860 779 l 683 876 q 658 863 671 869 q 631 851 644 856 l 629 850 l 628 850 q 592 832 601 836 l 592 872 l 540 872 l 540 806 q 382 743 444 767 q 294 711 319 719 l 294 658 q 319 663 301 658 q 347 674 336 668 l 347 135 l 346 132 q 344 119 346 121 q 343 113 343 117 l 343 107 l 344 110 q 338 96 340 103 q 333 82 336 89 l 339 82 l 340 81 l 343 81 l 344 79 q 378 85 360 79 q 418 107 397 92 q 440 124 428 114 q 464 149 451 133 q 499 201 499 185 l 499 725 q 522 737 511 732 q 540 746 533 742 l 540 6 q 532 4 536 6 q 529 3 531 3 q 526 2 528 3 q 522 1 524 1 q 461 -6 490 -6 q 226 194 293 -6 q 190 411 190 303 l 190 422 q 213 497 213 446 l 213 515 q 208 589 208 563 q 211 615 208 604 q 394 860 253 788 l 393 869 l 372 869 q 169 764 265 869 q 22 442 29 613 q 21 408 21 438 l 22 407 l 22 403 q 21 399 22 400 q 54 211 21 292 q 213 15 101 92 q 454 -58 319 -58 m 763 365 q 758 304 763 360 q 757 299 758 303 q 754 288 756 293 q 753 276 753 282 q 747 277 750 276 q 739 278 743 278 l 731 278 q 721 279 728 278 q 686 283 693 283 l 651 283 q 619 279 644 283 q 599 276 604 276 q 592 275 594 275 l 592 518 q 647 510 614 510 l 681 510 q 707 513 692 510 q 742 524 722 517 q 750 526 747 526 q 763 413 763 474 l 763 365 m 771 1092 q 704 1211 729 1138 q 579 1117 658 1165 q 439 1046 510 1074 q 511 919 485 997 q 636 1015 554 965 q 707 1054 674 1038 q 768 1082 740 1071 l 771 1092 m 686 101 q 592 24 640 46 l 592 221 q 594 222 593 221 q 613 226 606 224 q 651 231 626 231 l 678 231 q 692 228 681 229 q 724 225 703 226 q 731 221 728 222 q 740 218 735 219 q 721 158 733 188 q 686 101 708 129 m 676 556 l 658 556 q 592 572 608 556 l 592 774 l 601 776 q 676 691 642 740 q 735 576 710 642 q 676 556 703 556 z "},"":{"ha":932,"x_min":21,"x_max":922,"o":"m 454 -58 q 640 -18 556 -58 q 759 64 707 14 q 849 188 811 114 q 922 475 922 322 q 908 588 922 536 q 683 888 860 779 l 683 876 q 658 863 671 869 q 631 851 644 856 l 629 850 l 628 850 q 592 832 601 836 l 592 872 l 540 872 l 540 806 q 382 743 444 767 q 294 711 319 719 l 294 658 q 319 663 301 658 q 347 674 336 668 l 347 135 l 346 132 q 344 119 346 121 q 343 113 343 117 l 343 107 l 344 110 q 338 96 340 103 q 333 82 336 89 l 339 82 l 340 81 l 343 81 l 344 79 q 378 85 360 79 q 418 107 397 92 q 440 124 428 114 q 464 149 451 133 q 499 201 499 185 l 499 725 q 522 737 511 732 q 540 746 533 742 l 540 6 q 532 4 536 6 q 529 3 531 3 q 526 2 528 3 q 522 1 524 1 q 461 -6 490 -6 q 226 194 293 -6 q 190 411 190 303 l 190 422 q 213 497 213 446 l 213 515 q 208 589 208 563 q 211 615 208 604 q 394 860 253 788 l 393 868 l 385 868 l 385 869 l 372 869 q 169 764 265 869 q 22 442 29 613 q 21 408 21 438 l 22 407 l 22 403 q 21 399 22 400 q 54 211 21 292 q 213 15 101 92 q 454 -58 319 -58 m 693 1017 q 496 1206 622 1067 q 381 1089 429 1136 q 297 1017 332 1042 q 335 976 313 1000 q 376 928 357 951 q 434 988 404 960 q 496 1040 464 1015 q 555 989 525 1017 q 614 926 585 961 q 651 972 632 950 q 685 1008 669 993 l 693 1017 m 763 365 q 758 304 763 360 q 757 299 758 303 q 754 288 756 293 q 753 276 753 282 q 747 277 750 276 q 739 278 743 278 l 731 278 q 721 279 728 278 q 686 283 693 283 l 651 283 q 619 279 644 283 q 599 276 604 276 q 592 275 594 275 l 592 518 q 647 510 614 510 l 681 510 q 707 513 692 510 q 742 524 722 517 q 750 526 747 526 q 763 413 763 474 l 763 365 m 686 101 q 592 24 640 46 l 592 221 q 594 222 593 221 q 613 226 606 224 q 651 231 626 231 l 678 231 q 692 228 681 229 q 724 225 703 226 q 731 221 728 222 q 740 218 735 219 q 721 158 733 188 q 686 101 708 129 m 676 556 l 658 556 q 592 572 608 556 l 592 774 l 601 776 q 676 691 642 740 q 735 576 710 642 q 676 556 703 556 z "},"":{"ha":932,"x_min":21,"x_max":922,"o":"m 454 -58 q 640 -18 556 -58 q 759 64 707 14 q 849 188 811 114 q 922 475 922 322 q 908 588 922 533 q 683 888 860 776 l 683 876 q 658 861 671 868 q 631 850 644 854 l 629 849 l 628 849 q 592 831 601 835 l 592 872 l 540 872 l 540 804 q 382 743 444 767 q 294 711 319 719 l 294 657 q 319 662 301 657 q 347 672 336 667 l 347 135 l 346 132 q 344 119 346 121 q 343 113 343 117 l 343 107 l 344 110 q 338 96 340 103 q 333 82 336 89 l 339 82 l 340 81 l 343 81 l 344 79 q 378 85 360 79 q 418 107 397 92 q 440 124 428 114 q 464 149 451 133 q 499 201 499 185 l 499 725 q 522 737 511 732 q 540 746 533 742 l 540 6 q 532 4 536 6 q 529 3 531 3 q 526 2 528 3 q 522 1 524 1 q 461 -6 490 -6 q 226 194 293 -6 q 190 411 190 303 l 190 422 q 213 497 213 446 l 213 514 q 208 589 208 561 q 211 615 208 604 q 394 858 253 786 l 393 868 l 385 868 l 385 869 l 372 869 q 169 764 267 869 q 22 442 28 610 q 21 408 21 438 l 22 407 l 22 403 q 21 399 22 400 q 54 211 21 292 q 213 15 101 92 q 454 -58 319 -58 m 644 946 q 660 1014 650 979 q 686 1085 669 1049 q 622 1059 647 1068 q 583 1050 597 1050 q 497 1067 556 1050 q 399 1083 439 1083 q 314 1065 360 1083 q 303 988 311 1024 q 285 924 296 951 q 382 960 340 960 q 417 956 397 960 q 461 942 438 951 q 508 930 486 933 q 550 926 529 926 q 601 930 578 926 q 642 942 624 933 l 644 946 m 763 364 q 758 304 763 360 q 757 299 758 303 q 754 288 756 293 q 753 276 753 282 q 747 277 750 276 q 739 278 743 278 l 731 278 q 721 279 728 278 q 686 283 693 283 l 651 283 q 619 279 644 283 q 599 276 604 276 q 592 275 594 275 l 592 517 q 647 508 614 508 l 681 508 q 707 512 692 508 q 742 522 722 515 q 750 525 747 525 q 763 413 763 475 l 763 364 m 686 101 q 592 24 640 46 l 592 219 q 594 221 593 219 q 613 225 606 222 q 651 229 626 229 l 678 229 q 692 226 681 228 q 724 224 703 225 q 731 219 728 221 q 740 217 735 218 q 721 158 733 188 q 686 101 708 129 m 676 556 l 658 556 q 592 572 608 556 l 592 774 l 601 776 q 676 690 642 740 q 735 576 710 640 q 676 556 703 556 z "},"":{"ha":932,"x_min":21,"x_max":922,"o":"m 454 -58 q 640 -18 556 -58 q 759 64 707 14 q 849 188 811 114 q 922 475 922 322 q 908 588 922 533 q 683 888 860 779 l 683 876 q 658 861 671 868 q 631 850 644 854 l 629 849 l 628 849 q 592 832 600 833 l 592 872 l 540 872 l 540 806 q 382 743 444 767 q 294 711 319 719 l 294 658 q 319 663 301 658 q 347 674 336 668 l 347 135 l 346 132 q 344 119 346 121 q 343 113 343 117 l 343 107 l 344 110 q 338 96 340 103 q 333 82 336 89 l 339 82 l 340 81 l 343 81 l 344 79 q 378 85 360 79 q 418 107 397 92 q 440 124 428 114 q 464 149 451 133 q 499 201 499 185 l 499 725 q 522 737 511 732 q 540 746 533 742 l 540 6 q 532 4 536 6 q 529 3 531 3 q 526 2 528 3 q 522 1 524 1 q 461 -6 490 -6 q 226 194 293 -6 q 190 411 190 303 l 190 422 q 213 497 213 446 l 213 515 q 208 589 208 561 q 211 615 208 604 q 394 858 253 789 l 393 868 l 385 868 l 385 869 l 372 869 q 169 764 267 869 q 22 442 29 613 q 21 408 21 438 l 22 407 l 22 403 q 21 399 22 400 q 54 211 21 292 q 213 15 101 92 q 454 -58 319 -58 m 763 365 q 758 304 763 360 q 757 299 758 303 q 754 288 756 293 q 753 276 753 282 q 747 277 750 276 q 739 278 743 278 l 731 278 q 721 279 728 278 q 686 283 693 283 l 651 283 q 619 279 644 283 q 599 276 604 276 q 592 275 594 275 l 592 518 q 647 510 614 510 l 681 510 q 707 513 692 510 q 742 524 722 517 q 750 526 747 526 q 763 413 763 474 l 763 365 m 732 1044 q 678 1096 706 1068 q 622 1156 650 1124 q 507 1040 571 1093 q 570 983 542 1011 q 622 926 599 954 q 676 983 649 956 q 732 1036 704 1010 l 732 1044 m 457 1044 q 402 1096 429 1068 q 349 1156 375 1124 q 291 1093 319 1122 q 235 1040 263 1064 q 349 926 294 986 q 401 983 374 956 q 457 1036 428 1010 l 457 1044 m 686 101 q 592 24 640 46 l 592 221 q 594 222 593 221 q 613 226 606 224 q 630 228 619 228 q 651 229 640 229 l 678 229 q 724 225 685 226 q 731 221 728 222 q 740 218 735 219 q 721 158 733 188 q 686 101 708 129 m 676 556 l 658 556 q 592 572 608 556 l 592 774 l 601 776 q 676 691 642 740 q 735 576 710 642 q 676 556 703 556 z "},"":{"ha":810,"x_min":72,"x_max":746,"o":"m 410 279 l 128 -1 l 72 53 l 354 335 l 72 615 l 128 671 l 410 390 l 690 671 l 746 615 l 465 335 l 746 54 l 690 -1 l 410 279 z "},"":{"ha":894,"x_min":21,"x_max":890,"o":"m 763 -57 q 631 71 681 -53 q 626 81 628 78 q 624 89 625 85 q 572 53 596 69 q 529 24 549 38 q 435 -60 467 -21 q 319 -4 372 -22 q 222 14 267 14 q 111 -15 182 14 l 110 -15 l 108 -17 l 103 -19 q 99 -22 100 -22 l 89 -22 q 235 128 118 83 l 235 350 q 217 360 224 358 q 210 361 215 361 l 208 360 q 181 351 193 360 q 165 328 168 342 l 167 328 l 167 314 q 119 337 139 314 q 100 390 100 360 q 178 501 100 474 q 232 510 203 503 l 235 510 l 235 664 q 224 689 235 669 q 147 733 196 733 q 40 674 83 733 l 39 672 q 36 668 38 671 l 38 668 q 34 663 36 665 q 21 649 32 660 q 49 772 21 714 q 125 853 78 831 q 204 868 160 868 l 210 871 q 335 807 285 864 q 383 669 383 750 l 383 139 q 394 135 388 136 q 408 132 400 135 q 420 128 414 129 q 433 125 426 128 l 433 864 l 486 864 l 486 750 l 693 882 q 779 799 725 819 q 806 793 792 793 q 850 810 817 793 q 828 744 850 774 q 778 706 807 714 l 778 146 q 839 97 778 97 l 844 97 l 847 99 q 857 100 856 99 l 860 100 l 863 101 l 868 101 l 869 103 l 874 103 l 875 104 l 890 104 l 763 -57 m 456 1044 q 388 925 413 999 q 264 1021 347 969 q 192 1059 228 1042 q 124 1090 157 1076 q 165 1148 147 1115 q 196 1217 182 1181 q 321 1122 242 1171 q 391 1082 358 1099 q 453 1054 424 1065 l 456 1044 m 518 79 q 571 114 546 97 q 619 146 596 131 l 619 306 q 604 308 615 306 q 586 313 593 311 q 578 313 585 313 q 568 315 572 314 q 549 317 563 317 q 539 315 546 315 q 486 307 517 313 l 486 104 q 497 94 492 97 q 506 88 501 90 l 518 79 m 571 536 q 619 549 594 536 l 619 706 q 569 738 590 714 l 486 689 l 486 547 q 532 536 493 536 l 571 536 m 583 363 q 599 358 590 360 q 619 356 608 357 l 619 499 q 558 489 599 489 l 528 489 q 512 490 522 489 q 486 496 501 492 l 486 356 q 521 363 504 356 q 542 364 540 363 l 558 364 q 583 363 563 363 z "},"":{"ha":894,"x_min":21,"x_max":890,"o":"m 763 -57 q 631 71 681 -53 q 626 81 628 78 q 624 89 625 85 q 572 53 596 69 q 529 24 549 38 q 435 -60 467 -21 q 319 -4 372 -22 q 222 14 267 14 q 111 -15 182 14 l 110 -15 l 108 -17 l 103 -19 q 99 -22 100 -22 l 89 -22 q 235 128 118 83 l 235 350 q 217 360 224 358 q 210 361 215 361 l 208 360 q 181 351 193 360 q 165 328 168 342 l 167 328 l 167 314 q 119 337 139 314 q 100 390 100 360 q 178 501 100 474 q 232 510 203 503 l 235 510 l 235 664 q 224 689 235 669 q 147 733 196 733 q 40 674 85 733 l 39 672 q 36 668 38 671 l 38 668 q 34 663 36 665 q 21 649 32 660 q 49 772 21 714 q 125 853 78 831 q 204 868 160 868 l 210 869 q 335 807 285 865 q 383 669 383 750 l 383 139 q 394 135 388 136 q 408 132 400 135 q 420 128 414 129 q 433 125 426 128 l 433 864 l 486 864 l 486 750 l 693 882 q 779 799 725 819 q 806 793 792 793 q 850 810 817 793 q 828 744 850 774 q 778 706 807 714 l 778 146 q 839 97 778 97 l 844 97 l 847 99 q 857 100 856 99 l 860 100 l 863 101 l 868 101 l 869 103 l 874 103 l 875 104 l 890 104 l 763 -57 m 754 1082 q 692 1054 725 1071 q 622 1015 660 1038 q 497 919 540 965 q 425 1046 471 997 q 565 1117 496 1074 q 690 1211 644 1165 q 757 1092 713 1140 l 754 1082 m 518 79 q 571 114 546 97 q 619 146 596 131 l 619 306 q 604 308 615 306 q 586 313 593 311 l 588 313 l 582 314 q 568 315 575 314 q 549 317 563 317 q 539 315 546 315 q 486 307 517 313 l 486 104 q 497 94 492 97 q 506 88 501 90 l 518 79 m 571 536 q 619 549 594 536 l 619 706 q 569 738 590 714 l 486 689 l 486 547 q 532 536 493 536 l 571 536 m 583 363 q 599 358 590 360 q 619 356 608 357 l 619 499 q 558 489 599 489 l 528 489 q 512 490 522 489 q 486 496 501 492 l 486 356 q 521 363 504 356 q 542 364 540 363 l 558 364 q 583 363 563 363 z "},"":{"ha":894,"x_min":21,"x_max":890,"o":"m 763 -57 q 631 71 681 -53 q 626 81 628 78 q 624 89 625 85 q 572 53 596 69 q 529 24 549 38 q 435 -60 467 -21 q 319 -4 372 -22 q 222 14 267 14 q 111 -15 182 14 l 110 -15 l 108 -17 l 103 -19 q 99 -22 100 -22 l 89 -22 q 235 128 118 83 l 235 350 q 217 360 224 358 q 210 361 215 361 l 208 360 q 181 351 193 360 q 165 328 168 342 l 167 328 l 167 314 q 119 337 139 314 q 100 390 100 360 q 178 501 100 474 q 232 510 203 503 l 235 510 l 235 664 q 224 689 235 669 q 147 733 196 733 q 40 674 85 733 l 39 672 q 36 668 38 671 l 38 668 q 34 663 36 665 q 21 649 32 660 q 49 772 21 714 q 125 853 78 831 q 204 867 157 867 l 210 869 q 335 807 285 865 q 383 669 383 750 l 383 139 q 394 135 388 136 q 408 132 400 135 q 420 128 414 129 q 433 125 426 128 l 433 864 l 486 864 l 486 750 l 693 882 q 779 799 725 819 q 806 793 792 793 q 850 810 817 793 q 828 744 850 774 q 778 706 807 714 l 778 146 q 839 97 778 97 l 844 97 l 847 99 q 857 100 856 99 l 860 100 l 863 101 l 868 101 l 869 103 l 874 103 l 875 104 l 890 104 l 763 -57 m 657 1008 q 623 972 642 993 q 586 926 604 950 q 527 989 557 961 q 468 1040 497 1017 q 406 988 436 1015 q 349 928 376 960 q 307 976 329 951 q 269 1017 285 1000 q 353 1089 304 1042 q 468 1206 401 1136 q 665 1017 594 1067 l 657 1008 m 518 79 q 571 114 546 97 q 619 146 596 131 l 619 306 q 604 308 615 306 q 586 313 593 311 q 578 313 585 313 q 568 315 572 314 q 549 317 563 317 q 539 315 546 315 q 486 307 517 313 l 486 104 q 497 94 492 97 q 506 88 501 90 l 518 79 m 571 536 q 619 549 594 536 l 619 706 q 569 738 593 711 l 486 689 l 486 547 q 532 536 493 536 l 571 536 m 583 363 q 599 358 590 360 q 619 356 608 357 l 619 499 q 558 489 599 489 l 528 489 q 512 490 522 489 q 486 496 501 492 l 486 356 q 521 363 504 356 q 542 364 540 363 l 558 364 q 583 363 563 363 z "},"":{"ha":894,"x_min":21,"x_max":890,"o":"m 763 -57 q 631 71 681 -53 q 626 81 628 76 q 624 89 625 85 q 572 53 596 69 q 529 24 549 38 q 435 -60 467 -21 q 319 -4 372 -22 q 222 14 267 14 q 111 -15 182 14 l 110 -15 l 108 -17 l 103 -19 q 99 -22 100 -22 l 89 -22 q 235 128 118 83 l 235 350 q 217 360 224 358 q 210 361 215 361 l 208 360 q 181 351 193 360 q 165 328 168 342 l 167 328 l 167 314 q 119 337 139 314 q 100 389 100 360 q 178 501 100 474 q 232 510 203 503 l 235 510 l 235 664 q 224 688 235 669 q 147 733 196 733 q 40 674 85 733 l 39 672 q 36 668 38 671 l 38 668 q 34 663 36 665 q 21 649 32 660 q 28 713 21 681 q 49 772 36 744 q 82 819 63 799 q 125 851 101 840 q 204 867 160 867 l 210 869 q 335 807 285 863 q 383 669 383 750 l 383 139 q 394 135 388 136 q 408 132 400 135 q 420 128 414 129 q 433 125 426 128 l 433 863 l 486 863 l 486 750 l 693 882 q 779 799 724 819 q 806 793 792 793 q 850 810 817 793 q 828 744 850 774 q 778 704 807 714 l 778 146 q 839 97 778 97 l 844 97 l 847 99 q 857 100 856 99 l 860 100 l 863 101 l 868 101 l 869 103 l 874 103 l 875 104 l 890 104 l 763 -57 m 518 78 q 571 114 546 97 q 619 146 596 131 l 619 306 q 604 308 615 306 q 586 313 593 311 q 578 313 585 313 q 568 315 572 314 q 549 317 563 317 q 539 315 546 315 q 486 307 517 313 l 486 104 q 497 94 492 97 q 506 88 501 90 l 518 78 m 704 1036 q 649 983 676 1010 q 594 926 621 956 q 542 983 571 954 q 481 1040 514 1011 q 540 1096 511 1067 q 594 1156 569 1125 q 650 1096 622 1124 q 704 1044 678 1068 l 704 1036 m 429 1036 q 373 983 400 1010 q 321 926 346 956 q 207 1040 267 986 q 263 1093 235 1064 q 321 1156 292 1122 q 374 1096 347 1124 q 429 1044 401 1068 l 429 1036 m 571 535 q 619 547 594 535 l 619 704 q 569 738 592 713 l 486 688 l 486 546 q 532 535 493 535 l 571 535 m 583 363 q 599 358 590 360 q 619 356 608 357 l 619 499 q 558 489 599 489 l 528 489 q 512 490 522 489 q 486 496 501 492 l 486 356 q 521 363 504 356 q 542 364 540 363 l 558 364 q 583 363 563 363 z "},"":{"ha":738,"x_min":21,"x_max":728,"o":"m 728 781 l 728 793 l 718 793 l 715 790 q 712 790 713 790 q 710 789 711 789 l 711 789 q 694 783 704 786 q 681 779 683 779 q 551 889 626 779 l 551 872 q 399 757 449 783 l 399 872 l 349 872 l 349 718 q 318 694 331 701 q 315 692 315 693 q 311 690 314 692 q 172 872 310 872 q 117 860 143 872 q 67 828 90 849 q 21 724 21 782 q 49 657 21 686 q 68 709 49 685 q 111 733 88 733 l 117 733 l 118 732 l 119 732 q 142 717 132 724 q 156 704 151 711 l 156 522 q 124 517 139 519 q 101 511 110 514 q 39 404 39 485 q 88 315 39 329 l 88 328 l 89 331 q 128 368 89 358 q 156 349 147 360 l 156 114 q 203 8 156 51 q 240 -17 218 -7 q 286 -35 261 -28 q 194 -154 194 -71 q 235 -242 194 -204 q 278 -268 254 -260 q 325 -278 301 -276 l 328 -279 l 333 -279 q 463 -224 394 -279 l 465 -224 l 469 -219 l 468 -219 q 576 -169 536 -169 q 594 -178 586 -169 q 601 -196 601 -186 q 587 -224 601 -214 q 554 -233 572 -233 q 500 -222 536 -233 l 500 -265 q 556 -278 529 -278 l 560 -278 l 563 -276 q 603 -268 583 -276 q 638 -246 622 -260 q 663 -214 654 -232 q 672 -175 672 -196 q 594 -69 672 -99 q 570 -65 579 -67 q 554 -60 561 -62 q 552 -59 553 -60 q 550 -58 551 -58 l 544 -58 q 403 -103 479 -58 q 383 -116 390 -111 q 372 -124 375 -121 q 369 -125 371 -125 l 368 -126 l 369 -126 q 358 -132 363 -129 q 351 -136 354 -135 q 313 -147 315 -147 q 285 -125 285 -147 q 497 -46 285 -46 q 515 -43 508 -43 q 544 -33 532 -37 q 567 -26 557 -29 q 574 -24 569 -25 q 578 -24 579 -24 q 686 110 686 26 l 686 704 q 725 760 724 725 q 726 764 725 763 l 726 776 l 728 781 m 728 1093 q 661 1213 683 1142 q 536 1118 615 1167 q 465 1078 500 1096 q 397 1047 431 1061 q 469 921 442 999 q 593 1017 510 965 q 663 1056 631 1039 q 725 1083 696 1072 l 728 1093 m 536 68 q 528 43 536 56 q 467 8 514 19 q 446 4 454 6 l 447 4 q 442 3 444 4 q 438 3 440 3 l 418 3 q 407 6 411 6 q 399 7 403 6 l 399 256 q 424 260 413 258 q 444 265 435 263 q 450 267 447 267 q 456 268 453 267 q 503 261 483 264 q 535 257 524 258 l 536 257 l 536 68 m 492 524 l 478 524 l 478 525 q 399 533 408 525 l 399 689 q 456 732 439 708 q 499 701 479 711 q 532 692 519 692 l 536 692 l 536 535 q 492 524 518 524 m 497 311 q 460 315 476 315 l 456 315 q 424 311 444 313 l 417 310 q 406 307 410 308 q 400 306 401 306 l 399 306 l 399 478 q 450 471 424 471 l 481 471 q 510 472 496 471 q 536 481 525 474 l 536 306 q 517 307 528 306 q 497 311 507 308 m 314 57 l 314 56 l 313 631 q 338 647 331 640 q 349 653 340 647 l 349 13 q 314 57 322 25 m 157 346 l 156 349 q 157 346 156 346 z "},"":{"ha":565,"x_min":17,"x_max":546,"o":"m 247 715 q 235 710 243 711 l 233 565 q 295 591 265 574 q 357 636 325 608 q 443 585 406 585 q 513 626 488 585 l 546 621 q 381 382 489 496 q 435 384 410 382 q 483 389 461 386 q 544 178 544 278 q 306 -92 544 -29 l 294 -64 q 417 124 417 -14 q 369 297 417 200 q 329 296 347 296 q 296 294 311 296 q 281 294 289 294 q 265 293 272 293 l 254 314 q 351 411 308 365 q 424 500 393 457 q 361 485 394 485 q 233 531 289 485 l 233 115 q 257 110 240 110 q 279 103 268 103 q 291 94 282 100 q 315 79 300 89 l 346 111 l 375 83 l 226 -60 q 53 22 132 22 l 50 22 l 47 21 q 33 19 40 21 q 17 15 25 18 q 90 106 35 81 l 90 461 q 39 457 75 457 l 36 456 l 26 456 q 28 485 26 478 l 28 522 l 26 526 l 26 533 l 25 536 l 25 561 q 54 557 38 557 q 74 556 56 556 q 89 554 75 554 l 90 554 l 89 693 l 89 690 q 81 714 83 700 l 79 715 l 79 729 q 93 726 88 726 l 107 726 q 332 857 226 726 q 341 847 335 854 q 358 828 347 840 q 450 781 403 781 l 447 781 l 450 782 l 468 782 q 424 719 457 746 q 356 690 390 692 q 340 689 353 689 q 253 719 282 689 l 250 717 l 247 715 z "},"":{"ha":550,"x_min":7,"x_max":576,"o":"m 340 757 q 278 783 311 768 q 210 822 246 799 q 138 872 169 849 q 86 918 106 896 q 14 792 58 842 q 153 722 81 767 q 276 628 233 672 q 343 747 301 700 l 340 757 m 10 54 q 7 49 7 50 q 11 53 8 49 l 10 54 m 525 61 q 472 113 488 67 l 472 526 q 242 604 356 564 q 18 504 133 540 l 18 501 q 39 458 18 486 l 39 92 l 24 69 q 15 60 19 64 l 11 53 q 254 -86 126 39 l 347 13 l 453 -86 l 576 54 l 525 61 m 310 72 q 193 143 261 110 l 193 496 l 188 500 l 188 501 q 310 451 196 501 l 310 72 z "},"":{"ha":550,"x_min":7,"x_max":576,"o":"m 551 799 q 485 918 507 847 q 361 822 444 875 q 290 784 325 800 q 222 754 256 768 q 294 628 267 701 q 347 674 315 651 q 418 722 378 697 q 485 761 453 744 q 550 790 518 778 l 551 799 m 10 54 q 7 49 7 50 q 11 53 8 49 l 10 54 m 472 113 l 472 526 q 242 604 356 564 q 18 504 133 540 l 18 501 q 39 458 18 486 l 39 92 l 24 69 q 15 60 19 64 l 11 53 q 254 -86 126 39 l 347 13 l 453 -86 l 576 54 l 525 61 q 472 113 488 67 m 310 72 q 193 143 261 110 l 193 496 l 188 500 l 188 501 q 310 451 196 501 l 310 72 z "},"":{"ha":550,"x_min":7,"x_max":576,"o":"m 474 726 q 394 796 442 750 q 283 911 347 842 q 88 722 157 776 q 123 683 103 706 q 165 633 143 661 q 225 698 196 669 q 283 749 254 726 q 340 698 311 726 q 400 633 368 669 q 441 682 422 661 q 475 718 460 703 l 474 726 m 10 54 q 7 49 7 50 q 11 53 8 49 l 10 54 m 525 61 q 472 113 488 67 l 472 526 q 242 604 356 564 q 18 504 133 540 l 18 501 q 39 458 18 486 l 39 92 l 24 69 q 15 60 19 64 l 11 53 q 254 -86 126 39 l 347 13 l 453 -86 l 576 54 l 525 61 m 310 72 q 193 143 261 110 l 193 496 l 188 500 l 188 501 q 310 451 196 501 l 310 72 z "},"":{"ha":550,"x_min":7,"x_max":576,"o":"m 454 671 q 469 738 460 703 q 494 810 479 774 q 393 774 418 774 q 307 790 367 774 q 211 808 253 808 q 126 790 172 808 q 97 647 121 710 q 193 685 151 685 q 272 667 226 685 q 361 650 319 650 q 451 667 414 650 l 454 671 m 10 54 q 7 49 7 50 q 11 53 8 49 l 10 54 m 525 61 q 472 113 488 67 l 472 526 q 242 604 356 564 q 18 504 133 540 l 18 501 q 39 458 18 486 l 39 92 l 24 69 q 15 60 19 64 l 11 53 q 254 -86 126 39 l 347 13 l 453 -86 l 576 54 l 525 61 m 310 72 q 193 143 261 110 l 193 496 l 188 500 l 188 501 q 310 451 196 501 l 310 72 z "},"":{"ha":547,"x_min":7,"x_max":576,"o":"m 517 751 q 462 803 489 775 q 408 863 435 831 q 351 800 379 829 q 294 747 322 771 q 353 692 325 721 q 408 633 381 664 q 460 690 432 663 q 517 744 488 718 l 517 751 m 243 751 q 190 803 217 775 q 135 863 163 831 q 79 801 107 831 q 24 747 51 772 q 135 633 82 696 q 188 690 160 663 q 243 744 215 718 l 243 751 m 10 54 q 7 49 7 50 q 11 53 8 49 l 10 54 m 525 61 q 472 113 488 67 l 472 526 q 242 604 356 564 q 18 504 133 540 l 18 501 q 39 458 18 486 l 39 92 l 24 69 q 15 60 19 64 l 11 53 q 254 -86 126 39 l 347 13 l 453 -86 l 576 54 l 525 61 m 310 72 q 193 143 261 110 l 193 496 l 188 500 l 188 501 q 310 451 196 501 l 310 72 z "},"":{"ha":550,"x_min":7,"x_max":576,"o":"m 418 750 q 376 814 418 799 q 301 818 361 818 q 206 806 232 818 q 163 717 163 782 q 204 656 163 665 l 203 656 q 279 650 215 650 q 375 664 349 650 q 418 750 418 688 m 285 692 q 261 721 261 692 q 296 778 261 778 q 319 747 319 778 q 285 692 319 692 m 10 54 q 7 49 7 50 q 11 53 8 49 l 10 54 m 525 61 q 472 113 488 67 l 472 526 q 242 604 356 564 q 18 504 133 540 l 18 501 q 39 458 18 486 l 39 92 l 24 69 q 15 60 19 64 l 11 53 q 254 -86 126 39 l 347 13 l 453 -86 l 576 54 l 525 61 m 310 72 q 193 143 261 110 l 193 496 l 188 500 l 188 501 q 310 451 196 501 l 310 72 z "},"":{"ha":444,"x_min":15,"x_max":438,"o":"m 438 529 q 425 484 436 506 q 397 447 414 463 q 358 423 381 432 q 313 414 336 414 q 222 454 249 414 l 222 131 q 254 124 235 124 l 303 106 q 327 94 317 100 q 344 79 338 88 l 381 124 l 414 96 l 288 -60 q 76 21 192 21 q 15 -4 38 21 q 78 96 29 63 l 78 414 q 77 424 78 418 q 76 438 76 429 q 72 463 72 447 q 65 486 65 479 q 61 500 64 488 l 61 517 l 74 504 q 100 503 75 503 q 200 526 151 503 q 279 592 249 550 q 389 513 339 513 q 429 533 400 513 l 438 529 m 296 -164 q 253 -260 296 -221 q 202 -291 232 -279 q 136 -304 172 -303 l 136 -282 q 175 -229 175 -272 q 125 -151 175 -197 q 178 -104 153 -128 q 226 -57 203 -81 q 296 -164 296 -97 z "},"":{"ha":469,"x_min":-39,"x_max":461,"o":"m 460 361 q 394 324 443 353 q 260 246 344 296 q 245 238 253 242 q 231 228 238 233 l 231 124 q 311 105 274 117 q 381 78 349 93 l 413 113 l 449 81 l 322 -60 l 308 -53 q 251 -24 279 -37 q 186 -3 222 -10 q 81 10 128 10 q 47 8 64 10 q 14 3 31 6 q 19 15 17 10 q 25 22 22 19 l 25 21 q 41 47 35 38 q 49 58 47 57 q 63 72 54 64 q 88 90 72 79 l 88 428 q 64 499 88 447 l 64 518 l 76 506 l 86 506 l 88 504 l 92 504 l 94 503 l 100 503 q 217 526 156 503 q 347 594 279 550 q 366 540 354 569 q 397 475 378 511 q 461 369 432 410 l 460 361 m 288 747 q 221 628 249 700 q 97 722 181 672 q 29 760 64 743 q -39 792 -6 778 q 31 918 6 844 q 156 822 72 874 q 224 783 192 799 q 285 757 257 768 l 288 747 m 276 396 q 258 433 267 414 q 242 472 250 451 l 231 469 l 231 292 l 307 339 q 292 361 300 347 q 276 396 285 375 z "},"":{"ha":469,"x_min":14,"x_max":496,"o":"m 458 361 q 394 324 443 353 q 260 246 344 296 q 245 238 253 242 q 231 228 238 233 l 231 124 q 310 105 274 117 q 381 78 347 93 l 413 113 l 447 81 l 322 -60 l 308 -53 q 250 -24 278 -37 q 186 -3 222 -10 q 81 10 128 10 q 47 8 64 10 q 14 3 31 6 q 19 15 17 10 q 25 22 22 19 l 25 21 q 41 47 35 38 q 49 58 47 57 q 63 72 54 64 q 88 90 72 79 l 88 428 q 64 499 88 447 l 64 518 l 76 506 l 86 506 l 88 504 l 90 504 l 94 503 l 100 503 q 217 526 156 503 q 347 594 279 550 q 396 475 360 546 q 431 415 415 442 q 460 369 447 389 l 458 361 m 494 789 q 363 722 431 765 q 239 628 282 672 q 208 695 225 664 q 167 754 190 726 q 235 784 200 768 q 306 822 269 800 q 429 918 389 875 q 496 799 454 844 l 494 789 m 275 396 q 258 433 267 414 q 242 472 250 451 l 231 469 l 231 292 l 307 339 q 292 361 300 347 q 275 396 285 375 z "},"":{"ha":469,"x_min":14,"x_max":460,"o":"m 458 361 q 392 324 442 353 q 258 246 343 296 q 231 228 246 239 l 231 124 q 310 105 274 117 q 379 78 347 93 l 413 113 l 447 81 l 321 -60 l 307 -53 q 250 -24 278 -37 q 186 -3 222 -10 q 81 10 125 10 q 47 8 64 10 q 14 3 31 6 q 19 15 17 10 q 25 22 22 19 l 25 21 q 41 47 35 38 q 49 58 47 57 q 63 72 54 64 q 86 90 72 79 l 86 428 q 64 499 86 450 l 64 518 l 76 506 l 85 506 l 86 504 l 90 504 l 94 503 l 100 503 q 347 594 207 503 q 365 540 354 569 q 396 475 376 511 q 460 369 431 410 l 458 361 m 432 718 q 399 682 418 703 q 358 633 381 661 q 242 749 293 707 q 125 633 185 706 q 82 683 101 661 q 46 722 63 706 q 242 911 115 776 q 353 796 306 842 q 431 726 400 750 l 432 718 m 275 396 q 242 472 256 432 l 231 469 l 231 292 l 306 339 q 292 361 300 347 q 275 396 285 375 z "},"":{"ha":469,"x_min":-3,"x_max":489,"o":"m 460 361 q 394 324 443 353 q 260 246 344 296 q 245 238 253 242 q 231 228 238 233 l 231 124 q 311 105 274 117 q 381 78 349 93 l 413 113 l 449 81 l 322 -58 l 308 -53 q 251 -24 279 -37 q 186 -3 222 -10 q 81 10 128 10 q 47 8 64 10 q 14 3 31 6 q 19 15 17 10 q 25 22 22 19 l 25 21 q 49 57 46 57 q 88 90 60 71 l 88 428 q 64 499 88 447 l 64 517 l 76 506 l 86 506 l 88 504 l 92 504 l 94 503 l 100 503 q 347 594 211 503 q 366 540 354 569 q 397 475 378 511 q 431 415 415 442 q 460 369 447 389 l 460 361 m 489 744 q 432 690 460 718 q 381 633 404 663 q 325 692 353 664 q 268 747 297 721 q 324 800 296 771 q 381 863 351 829 q 434 803 407 831 q 489 751 461 775 l 489 744 m 215 744 q 160 690 188 718 q 107 633 133 663 q -3 747 57 692 q 53 801 25 772 q 107 863 81 831 q 162 803 135 831 q 215 751 189 775 l 215 744 m 242 472 l 231 469 l 231 290 l 307 339 q 292 361 300 347 q 276 396 285 375 q 258 432 267 413 q 242 472 250 451 z "},"":{"ha":350,"x_min":-203,"x_max":342,"o":"m 222 -58 q 133 -24 174 -56 q 92 54 92 10 l 92 404 q 58 428 72 406 l 39 418 l 19 444 l 25 453 l 26 451 l 29 454 l 32 456 l 31 454 q 61 483 43 467 q 107 524 79 500 q 146 554 119 532 l 151 558 q 160 567 156 563 l 160 583 q 260 503 217 503 q 306 522 271 503 l 306 506 q 304 497 304 503 q 303 486 304 493 q 274 434 292 454 q 236 406 256 414 l 236 108 q 242 86 236 97 q 300 61 253 61 q 336 68 318 61 l 342 60 l 222 -58 m 125 747 q 58 628 86 700 q 7 674 38 651 q -64 722 -24 697 q -134 762 -99 744 q -203 792 -169 779 q -162 849 -179 817 q -131 918 -144 882 q -7 822 -90 875 q 62 783 29 799 q 122 757 94 768 l 125 747 z "},"":{"ha":349,"x_min":19,"x_max":496,"o":"m 221 -58 q 176 -49 199 -57 q 133 -24 153 -40 q 90 54 90 11 l 90 404 q 58 428 72 406 l 39 418 l 19 444 l 25 453 l 26 451 l 29 454 q 61 483 43 467 q 107 524 79 500 q 146 554 119 532 l 158 567 l 158 583 q 212 523 188 543 q 260 503 236 503 q 306 522 269 503 l 306 506 q 301 486 303 499 q 235 406 279 424 l 235 108 q 242 86 235 100 q 299 61 253 61 q 316 63 307 61 q 335 68 325 64 l 340 60 l 221 -58 m 494 789 q 363 722 431 765 q 239 628 282 672 q 208 695 225 664 q 167 754 190 726 q 235 784 200 768 q 306 822 269 800 q 429 918 389 875 q 496 799 454 844 l 494 789 z "},"":{"ha":347,"x_min":-33,"x_max":350,"o":"m 219 -58 q 132 -24 172 -56 q 90 54 90 11 l 90 404 q 58 428 72 406 l 39 418 l 19 444 l 24 453 l 25 451 l 28 454 l 31 456 l 29 454 q 61 483 43 467 q 107 524 79 500 q 122 535 114 528 q 144 554 131 543 l 150 558 q 158 567 154 563 l 158 583 q 258 503 215 503 q 304 522 268 503 l 304 506 q 300 486 301 499 q 233 406 278 424 l 233 108 q 240 86 233 100 q 297 60 253 60 q 333 68 313 60 l 339 60 l 219 -58 m 350 718 q 317 682 335 703 q 275 633 299 661 q 160 749 214 704 q 43 633 103 706 q 1 683 21 660 q -33 722 -18 706 q 160 911 31 774 q 271 796 224 842 q 349 726 318 750 l 350 718 z "},"":{"ha":349,"x_min":-85,"x_max":407,"o":"m 221 -57 q 176 -49 199 -57 q 133 -24 153 -40 q 92 54 92 10 l 92 403 q 58 428 72 404 l 39 417 l 19 444 l 25 453 l 26 451 l 29 454 l 31 456 q 62 483 44 468 q 107 522 79 499 q 123 534 114 526 q 146 554 132 542 l 158 567 l 158 583 q 260 503 217 503 q 277 508 267 503 q 306 521 288 513 l 306 506 q 301 486 303 499 q 235 404 279 422 l 235 108 q 242 86 235 100 q 299 60 254 60 q 336 68 315 60 l 340 58 l 221 -57 m 407 744 q 299 633 351 694 q 244 692 272 664 q 186 747 215 721 q 242 800 214 771 q 299 863 271 829 q 353 803 326 831 q 407 751 379 775 l 407 744 m 135 744 q 26 633 79 694 q -27 691 0 663 q -85 747 -54 719 q -28 801 -56 772 q 26 863 -1 831 q 135 751 82 796 l 135 744 z "},"":{"ha":617,"x_min":21,"x_max":614,"o":"m 494 -61 q 418 -29 454 -58 q 385 36 385 -3 l 385 401 q 376 403 379 401 l 374 403 l 372 404 l 367 407 l 368 407 q 332 422 346 413 q 307 447 318 432 l 250 401 l 250 108 q 281 94 267 101 q 303 81 294 88 q 351 35 332 64 l 222 -58 q 69 13 147 13 l 65 13 l 64 11 l 57 11 l 56 10 l 50 10 l 49 8 l 35 8 q 100 94 44 63 l 100 408 q 31 450 75 450 l 28 451 l 21 451 l 21 463 l 163 603 q 226 536 208 565 q 250 464 249 501 l 414 600 q 504 519 474 519 q 575 544 521 519 l 575 524 l 574 521 l 574 507 l 572 504 q 535 433 572 472 l 535 108 q 576 81 535 81 l 582 81 l 583 82 l 594 82 l 596 83 l 614 83 l 494 -61 m 479 667 q 390 650 443 650 q 300 667 347 650 q 221 685 254 685 q 125 647 179 685 q 154 790 149 710 q 239 808 199 808 q 335 790 281 808 q 421 774 394 774 q 524 810 447 774 q 497 738 507 774 q 482 671 488 703 l 479 667 z "},"":{"ha":581,"x_min":26,"x_max":557,"o":"m 356 764 q 289 644 314 717 q 164 739 246 690 q 26 808 97 781 q 67 867 50 835 q 97 935 83 899 q 221 839 138 892 q 291 800 258 815 q 353 774 324 785 l 356 764 m 525 100 q 557 49 533 60 q 317 -72 407 26 q 36 32 236 11 q 31 36 31 32 q 47 65 31 44 q 82 108 71 97 l 82 460 q 60 504 60 488 l 60 506 q 293 589 204 514 q 551 500 453 510 q 525 457 525 469 l 525 100 m 363 438 q 236 485 250 485 q 233 483 233 485 l 233 118 q 363 72 256 94 l 363 438 z "},"":{"ha":581,"x_min":31,"x_max":557,"o":"m 550 800 q 418 733 486 776 q 293 639 336 685 q 221 765 268 713 q 290 795 256 779 q 360 833 324 811 q 485 929 443 885 q 551 810 507 858 l 550 800 m 525 100 q 557 49 533 60 q 317 -72 407 26 q 36 32 236 11 q 31 36 31 32 q 47 65 31 44 q 82 108 71 97 l 82 460 q 60 504 60 488 l 60 506 q 293 589 204 514 q 551 500 453 510 q 525 457 525 469 l 525 100 m 363 438 q 236 485 250 485 q 233 483 233 485 l 233 118 q 363 72 256 94 l 363 438 z "},"":{"ha":581,"x_min":31,"x_max":557,"o":"m 489 718 q 456 682 474 703 q 414 633 438 661 q 354 698 383 669 q 297 749 325 726 q 239 698 268 726 q 179 633 210 669 q 137 683 157 661 q 101 722 117 706 q 297 911 171 776 q 409 796 361 842 q 488 726 457 750 l 489 718 m 525 100 q 557 49 533 60 q 317 -72 407 26 q 36 32 236 11 q 31 36 31 32 q 47 65 31 44 q 82 108 71 97 l 82 460 q 60 504 60 488 l 60 506 q 293 589 204 514 q 551 500 453 510 q 525 457 525 469 l 525 100 m 363 438 q 236 485 250 485 q 233 483 233 485 l 233 118 q 363 72 256 94 l 363 438 z "},"":{"ha":581,"x_min":31,"x_max":557,"o":"m 479 667 q 389 650 442 650 q 300 667 347 650 q 221 685 254 685 q 125 647 179 685 q 154 790 149 710 q 239 808 199 808 q 335 790 281 808 q 421 774 394 774 q 522 810 446 774 q 497 738 507 774 q 482 671 488 703 l 479 667 m 525 100 q 557 49 533 60 q 317 -72 407 26 q 36 32 236 11 q 31 36 31 32 q 47 65 31 44 q 82 108 71 97 l 82 460 q 60 504 60 488 l 60 506 q 293 589 204 514 q 551 500 453 510 q 525 457 525 469 l 525 100 m 363 438 q 236 485 250 485 q 233 483 233 485 l 233 118 q 363 72 256 94 l 363 438 z "},"":{"ha":581,"x_min":31,"x_max":557,"o":"m 544 744 q 488 690 515 718 q 436 633 460 663 q 381 692 408 664 q 322 747 353 721 q 378 800 350 771 q 436 863 407 829 q 490 803 463 831 q 544 751 517 775 l 544 744 m 271 744 q 215 690 243 718 q 163 633 188 663 q 110 692 138 664 q 50 747 82 721 q 107 801 79 772 q 163 863 135 831 q 217 803 190 831 q 271 751 244 775 l 271 744 m 525 100 q 557 49 533 60 q 317 -72 407 26 q 36 32 236 11 q 31 36 31 32 q 47 65 31 44 q 82 108 71 97 l 82 460 q 60 504 60 488 l 60 506 q 293 589 204 514 q 551 500 453 510 q 525 457 525 469 l 525 100 m 363 438 q 236 485 250 485 q 233 483 233 485 l 233 118 q 363 72 256 94 l 363 438 z "},"":{"ha":811,"x_min":58,"x_max":763,"o":"m 58 372 l 763 372 l 763 296 l 58 296 l 58 372 m 410 35 q 365 53 383 35 q 346 99 346 71 q 365 144 346 125 q 410 163 383 163 q 456 144 438 163 q 475 99 475 125 q 456 53 475 71 q 410 35 438 35 m 410 506 q 365 524 385 506 q 346 569 346 543 q 365 616 346 597 q 410 635 385 635 q 456 616 438 635 q 475 569 475 597 q 456 524 475 543 q 410 506 438 506 z "},"":{"ha":643,"x_min":14,"x_max":633,"o":"m 633 64 l 628 74 q 596 65 607 65 l 593 64 l 590 64 q 524 136 524 64 l 524 410 q 593 514 593 431 l 583 514 l 582 513 l 579 513 l 578 511 l 576 511 l 575 510 l 574 510 l 571 507 q 550 504 563 504 q 449 579 521 504 q 299 460 343 474 l 325 421 l 353 433 q 368 418 363 422 l 372 417 l 375 415 l 376 415 l 379 119 l 371 115 q 363 111 367 111 q 346 97 351 103 q 335 89 340 92 l 335 90 q 331 88 332 89 q 328 85 331 86 l 325 83 l 322 81 q 308 91 317 85 q 286 106 299 97 l 285 107 l 288 106 q 293 104 292 104 q 250 121 258 114 l 250 464 q 156 590 250 542 l 21 451 l 21 440 l 33 440 q 39 439 36 440 q 56 435 46 436 q 72 431 65 433 l 71 432 q 100 403 93 422 l 100 103 q 39 7 51 78 q 85 21 57 21 q 231 -61 144 21 q 265 -28 250 -42 q 292 -4 279 -14 q 339 30 319 15 q 374 54 358 44 q 377 57 376 56 q 381 60 378 58 q 504 -60 394 -31 l 633 64 m 342 757 q 280 783 313 768 q 210 822 247 799 q 86 918 126 875 q 14 792 58 842 q 83 762 47 779 q 153 722 118 744 q 224 674 193 697 q 276 628 256 651 q 344 747 304 701 l 342 757 z "},"":{"ha":643,"x_min":21,"x_max":633,"o":"m 633 64 l 628 74 q 596 65 607 65 l 593 64 l 590 64 q 524 136 524 64 l 524 410 q 593 514 593 431 l 583 514 l 582 513 l 579 513 l 578 511 l 575 511 l 574 510 l 571 507 q 550 504 563 504 q 449 579 521 504 q 299 460 343 474 l 325 421 l 353 433 q 368 418 363 422 l 372 417 l 375 415 l 376 415 l 379 119 l 371 115 q 363 111 367 111 q 346 97 351 103 q 335 89 340 92 l 335 90 q 331 88 332 89 q 328 85 331 86 l 325 83 l 322 81 q 308 91 317 85 q 286 106 299 97 l 285 107 l 288 106 q 293 104 292 104 q 250 121 258 114 l 250 464 q 156 590 250 542 l 21 451 l 21 440 l 33 440 q 39 439 36 440 q 56 435 46 436 q 72 431 65 433 l 71 432 q 100 403 93 422 l 100 103 q 39 7 51 78 q 85 21 57 21 q 231 -61 144 21 q 265 -28 250 -42 q 292 -4 279 -14 q 339 30 319 15 q 374 54 358 44 q 377 57 376 56 q 381 60 378 58 q 504 -60 394 -31 l 633 64 m 579 799 q 542 852 560 822 q 513 918 525 882 q 461 872 493 896 q 389 822 429 849 q 318 784 353 800 q 250 754 283 768 q 322 628 294 701 q 374 674 343 651 q 446 722 406 697 q 578 789 515 765 l 579 799 z "},"":{"ha":643,"x_min":21,"x_max":633,"o":"m 633 64 l 628 74 q 596 65 607 65 l 593 64 l 590 64 q 524 136 524 64 l 524 410 q 593 514 593 428 l 583 514 l 582 513 l 579 513 l 578 511 l 575 511 l 574 510 l 572 508 q 550 504 565 504 q 449 579 521 504 q 299 460 343 474 l 325 421 l 353 433 q 368 418 363 422 l 372 417 l 375 415 l 376 415 l 379 119 l 371 115 q 363 111 367 111 q 346 97 351 103 q 335 89 340 92 l 335 90 q 331 88 332 89 q 328 85 331 86 l 325 83 l 322 81 q 308 91 317 85 q 286 106 299 97 l 285 107 l 288 106 q 293 104 292 104 q 250 121 258 114 l 250 464 q 156 590 250 542 l 21 451 l 21 440 l 33 440 q 39 439 36 440 q 56 435 46 436 q 72 431 65 433 l 71 432 q 100 403 93 419 l 100 103 q 39 7 51 78 q 85 21 57 21 q 231 -61 144 21 q 265 -28 250 -42 q 292 -4 279 -14 q 339 30 319 15 q 374 54 358 44 q 377 57 376 56 q 381 60 378 58 q 504 -60 394 -31 l 633 64 m 501 726 q 424 796 471 750 q 311 911 376 842 q 115 722 185 776 q 151 683 131 706 q 193 633 171 661 q 253 698 224 669 q 311 749 282 726 q 368 698 339 726 q 428 633 397 669 q 470 682 451 661 q 503 718 489 703 l 501 726 z "},"":{"ha":643,"x_min":21,"x_max":633,"o":"m 633 64 l 628 74 q 596 65 607 65 l 593 64 l 590 64 q 524 136 524 64 l 524 408 q 593 514 593 429 l 583 514 l 582 513 l 579 513 l 578 511 l 575 511 l 574 510 l 572 508 q 550 504 565 504 q 449 579 519 504 q 299 460 343 474 l 325 419 l 353 433 q 362 423 358 426 q 368 417 365 419 l 372 415 l 375 414 l 376 414 l 379 119 l 371 115 q 363 111 367 111 q 346 97 351 103 q 335 89 340 92 l 335 90 q 331 88 332 89 q 328 85 331 86 l 325 83 l 322 81 q 308 91 317 85 q 286 106 299 97 l 285 107 l 288 106 q 293 104 292 104 q 250 121 258 114 l 250 464 q 156 590 250 542 l 21 451 l 21 440 l 33 440 q 39 439 36 440 q 56 435 46 436 q 72 431 65 433 l 71 432 q 100 401 93 419 l 100 103 q 39 7 51 78 q 85 21 57 21 q 231 -60 143 21 q 265 -27 250 -40 q 292 -4 279 -14 q 339 30 319 15 q 374 54 358 44 q 377 56 376 56 q 381 58 378 57 q 504 -58 396 -32 l 633 64 m 546 751 q 491 803 518 775 q 436 863 464 831 q 380 800 408 829 q 324 747 351 771 q 381 692 353 721 q 436 633 410 664 q 488 690 461 663 q 546 744 515 718 l 546 751 m 271 751 q 217 803 244 775 q 163 863 190 831 q 107 801 135 831 q 50 747 79 772 q 110 692 82 721 q 163 633 138 664 q 215 690 188 663 q 271 744 243 718 l 271 751 z "},"":{"ha":597,"x_min":21,"x_max":588,"o":"m 586 510 l 586 503 l 585 501 q 564 456 583 482 q 524 422 544 431 l 524 50 q 403 -50 524 -22 q 346 -58 369 -58 l 338 -58 q 325 -60 336 -58 q 178 -125 178 -71 q 204 -146 178 -146 q 289 -106 217 -146 q 356 -77 325 -86 q 414 -68 388 -68 q 497 -98 463 -68 q 532 -175 532 -128 q 502 -240 532 -214 q 429 -267 472 -267 q 379 -256 390 -267 l 379 -210 q 422 -222 401 -222 l 424 -222 l 426 -221 l 431 -221 q 450 -214 439 -221 q 461 -199 461 -207 q 443 -185 461 -185 l 440 -183 l 439 -183 q 353 -217 407 -183 q 298 -247 321 -236 q 263 -261 275 -258 q 246 -263 256 -262 q 221 -264 236 -264 q 175 -255 197 -264 q 136 -231 153 -246 q 109 -195 119 -215 q 99 -151 99 -175 l 99 -144 l 100 -144 q 171 -40 101 -76 q 121 -6 143 -28 q 88 58 88 25 l 88 421 q 21 460 88 453 l 21 469 l 169 588 q 190 571 179 581 q 211 549 201 561 q 235 503 235 517 l 236 500 l 236 492 l 238 490 l 238 435 l 446 575 q 540 517 489 517 l 543 517 l 544 518 q 588 533 568 518 l 588 513 l 586 510 m 315 -3 q 353 5 335 -3 q 371 28 371 13 l 371 408 q 360 413 365 410 q 347 418 354 415 l 324 429 l 239 369 l 239 36 q 288 -1 239 8 l 293 -1 q 296 -2 294 -1 q 300 -3 297 -3 q 302 -3 301 -3 q 304 -4 303 -4 l 313 -4 l 315 -3 m 578 792 q 513 763 546 779 q 446 724 481 746 q 321 629 364 675 q 249 756 296 703 q 389 824 317 782 q 460 874 429 850 q 513 921 492 897 q 579 801 538 844 l 578 792 z "},"":{"ha":597,"x_min":21,"x_max":588,"o":"m 586 508 l 586 501 l 585 500 q 578 478 585 490 q 564 456 572 467 q 544 435 556 444 q 524 422 533 426 l 524 50 q 403 -50 524 -22 q 346 -58 369 -58 l 338 -58 q 325 -60 336 -58 q 178 -125 178 -71 q 204 -146 178 -146 q 289 -106 217 -146 q 356 -77 325 -86 q 414 -68 388 -68 q 497 -98 463 -68 q 532 -175 532 -128 q 502 -240 532 -214 q 429 -267 472 -267 q 379 -256 390 -267 l 379 -210 q 422 -221 404 -221 l 424 -221 l 426 -219 l 431 -219 q 450 -213 439 -219 q 461 -199 461 -207 q 443 -185 461 -185 l 440 -183 l 439 -183 q 401 -192 421 -183 q 353 -215 381 -200 q 298 -247 321 -236 q 263 -261 275 -258 q 246 -263 256 -262 q 221 -264 236 -264 q 175 -255 197 -264 q 136 -231 153 -246 q 109 -195 119 -215 q 99 -151 99 -175 l 99 -144 l 100 -144 q 171 -40 101 -76 q 121 -6 143 -28 q 88 58 88 25 l 88 421 q 21 460 88 453 l 21 469 l 169 588 q 190 571 179 581 q 211 549 201 561 q 235 501 235 517 l 236 499 l 236 492 l 238 490 l 238 435 l 446 575 q 540 517 489 517 l 543 517 l 544 518 q 588 533 568 518 l 588 511 l 586 508 m 315 -3 q 353 5 335 -3 q 371 28 371 13 l 371 408 q 360 413 365 410 q 347 418 354 415 l 324 429 l 239 369 l 239 36 q 288 -1 239 8 l 293 -1 q 296 -2 294 -1 q 300 -3 297 -3 q 302 -3 301 -3 q 304 -4 303 -4 l 313 -4 l 315 -3 m 544 746 q 488 692 515 719 q 436 635 460 664 q 381 694 408 665 q 322 750 353 722 q 378 802 350 774 q 436 865 407 831 q 490 806 463 833 q 544 754 517 778 l 544 746 m 271 746 q 215 692 243 719 q 163 635 188 664 q 50 750 111 697 q 107 803 79 774 q 163 865 135 832 q 217 804 190 832 q 271 754 244 776 l 271 746 z "},"":{"ha":811,"x_min":58,"x_max":763,"o":"m 58 325 l 763 325 l 763 258 l 58 258 l 58 325 z "},"":{"ha":446,"x_min":17,"x_max":467,"o":"m 235 544 l 233 708 l 235 710 l 233 710 q 247 715 243 711 l 250 717 l 251 719 q 339 689 281 689 q 354 690 351 689 q 422 719 389 692 q 467 782 456 746 l 449 782 l 446 781 l 449 781 q 357 828 401 781 q 340 847 346 840 q 331 856 333 853 q 107 726 224 726 l 93 726 q 79 729 86 726 l 79 715 l 81 713 q 85 700 83 706 q 88 692 86 694 l 88 693 l 89 554 l 88 554 q 74 556 75 554 q 54 557 56 556 q 25 561 35 557 l 25 536 l 26 533 l 26 525 l 28 521 l 28 485 q 26 456 26 478 l 36 456 l 39 457 q 89 461 76 457 l 89 106 q 17 15 33 81 q 33 19 25 18 q 47 21 40 21 l 50 22 l 53 22 q 225 -60 131 22 l 374 83 l 344 111 l 314 79 q 290 94 300 89 q 278 103 281 100 q 256 110 267 103 q 233 114 242 110 l 235 544 z "},"":{"ha":1983,"x_min":22,"x_max":1972,"o":"m 22 -51 l 22 1111 l 1972 1111 l 1972 -51 l 22 -51 m 596 69 q 663 97 635 69 q 690 165 690 125 l 692 1100 l 625 1100 l 628 168 q 618 145 628 157 q 599 133 608 133 q 567 168 567 133 l 567 375 q 525 475 567 433 l 278 718 q 210 743 253 743 q 135 721 165 743 q 103 654 103 696 l 103 201 q 218 74 103 74 l 332 74 q 431 163 410 74 l 365 163 q 349 144 358 151 q 333 133 340 136 l 218 133 q 164 199 164 133 l 164 625 q 175 671 164 635 q 204 682 188 682 q 246 661 225 682 l 376 533 q 499 403 497 417 q 501 313 500 371 q 501 169 501 254 q 527 97 501 125 q 596 69 553 69 m 1392 322 q 1358 406 1392 375 q 1265 438 1324 438 l 925 438 q 863 494 863 438 l 863 625 q 925 689 863 689 l 1263 689 q 1325 660 1297 689 l 1383 660 q 1268 754 1363 754 l 928 754 q 833 717 868 754 q 799 619 799 679 l 799 497 q 832 408 799 442 q 919 375 865 375 l 1265 375 q 1333 308 1333 375 l 1333 204 q 1243 136 1333 136 l 897 136 q 861 171 861 136 q 894 201 861 201 l 1263 201 l 1263 263 l 882 263 q 822 235 844 263 q 799 168 799 208 q 824 102 799 128 q 889 76 850 76 l 1279 76 q 1361 108 1331 76 q 1392 193 1392 140 l 1392 322 m 1926 779 q 1902 845 1926 818 q 1842 872 1878 872 l 1638 872 q 1582 926 1582 872 l 1582 1100 l 1514 1100 l 1514 926 q 1668 810 1514 810 l 1686 810 q 1711 811 1697 810 q 1722 812 1717 811 q 1733 813 1726 813 q 1744 813 1739 813 q 1754 814 1749 814 q 1781 815 1769 815 l 1800 815 q 1861 785 1861 815 q 1801 750 1861 750 l 1782 750 q 1757 751 1771 750 q 1746 752 1751 751 q 1733 753 1740 753 q 1667 757 1689 757 q 1514 631 1514 757 l 1514 188 q 1601 75 1514 100 l 1601 143 q 1576 204 1576 161 l 1576 619 q 1629 686 1576 686 l 1831 686 q 1898 713 1869 686 q 1926 779 1926 740 z "}}}
